<?xml version="1.0" encoding="utf-8" standalone="no"?>
<!DOCTYPE svg PUBLIC "-//W3C//DTD SVG 1.1//EN"
  "http://www.w3.org/Graphics/SVG/1.1/DTD/svg11.dtd">
<svg xmlns:xlink="http://www.w3.org/1999/xlink" width="496.062992pt" height="566.929134pt" viewBox="0 0 496.062992 566.929134" xmlns="http://www.w3.org/2000/svg" version="1.1">
 <metadata>
  <rdf:RDF xmlns:dc="http://purl.org/dc/elements/1.1/" xmlns:cc="http://creativecommons.org/ns#" xmlns:rdf="http://www.w3.org/1999/02/22-rdf-syntax-ns#">
   <cc:Work>
    <dc:type rdf:resource="http://purl.org/dc/dcmitype/StillImage"/>
    <dc:date>2025-10-17T07:02:33.747635</dc:date>
    <dc:format>image/svg+xml</dc:format>
    <dc:creator>
     <cc:Agent>
      <dc:title>Matplotlib v3.10.3, https://matplotlib.org/</dc:title>
     </cc:Agent>
    </dc:creator>
   </cc:Work>
  </rdf:RDF>
 </metadata>
 <defs>
  <style type="text/css">*{stroke-linejoin: round; stroke-linecap: butt}</style>
 </defs>
 <g id="figure_1">
  <g id="patch_1">
   <path d="M 0 566.929134 
L 496.062992 566.929134 
L 496.062992 0 
L 0 0 
L 0 566.929134 
z
" style="fill: none"/>
  </g>
  <g id="axes_1">
   <g id="patch_2">
    <path d="M 40.074314 429.991818 
L 43.972958 436.077003 
L 42.652782 436.592697 
L 75.083167 519.614481 
L 75.083167 519.614481 
L 42.652782 436.592697 
L 41.332606 437.108391 
z
" clip-path="url(#p49941a1e7a)" style="stroke: #000000; stroke-linejoin: miter"/>
   </g>
   <g id="patch_3">
    <path d="M 43.286168 428.162201 
L 48.765885 432.874059 
L 47.649 433.746625 
L 116.162651 521.444099 
L 116.162651 521.444099 
L 47.649 433.746625 
L 46.532115 434.619192 
z
" clip-path="url(#p49941a1e7a)" style="stroke: #000000; stroke-linejoin: miter"/>
   </g>
   <g id="patch_4">
    <path d="M 45.136318 426.39034 
L 51.447022 429.91226 
L 50.527011 430.990398 
L 158.60384 523.215959 
L 158.60384 523.215959 
L 50.527011 430.990398 
L 49.606999 432.068537 
z
" clip-path="url(#p49941a1e7a)" style="stroke: #000000; stroke-linejoin: miter"/>
   </g>
   <g id="patch_5">
    <path d="M 46.177005 424.986354 
L 52.909871 427.612649 
L 52.145858 428.80642 
L 201.854491 524.619945 
L 201.854491 524.619945 
L 52.145858 428.80642 
L 51.381845 430.00019 
z
" clip-path="url(#p49941a1e7a)" style="stroke: #000000; stroke-linejoin: miter"/>
   </g>
   <g id="patch_6">
    <path d="M 46.787279 423.923591 
L 53.7411 425.891653 
L 53.095172 427.153232 
L 245.535556 525.682709 
L 245.535556 525.682709 
L 53.095172 427.153232 
L 52.449244 428.414811 
z
" clip-path="url(#p49941a1e7a)" style="stroke: #000000; stroke-linejoin: miter"/>
   </g>
   <g id="patch_7">
    <path d="M 47.165674 423.116147 
L 54.24 424.593586 
L 53.683787 425.897209 
L 289.448499 526.490152 
L 289.448499 526.490152 
L 53.683787 425.897209 
L 53.127575 427.200831 
z
" clip-path="url(#p49941a1e7a)" style="stroke: #000000; stroke-linejoin: miter"/>
   </g>
   <g id="patch_8">
    <path d="M 79.724409 430.866142 
L 81.141732 437.952756 
L 79.724409 437.952756 
L 79.724409 518.740157 
L 79.724409 518.740157 
L 79.724409 437.952756 
L 78.307087 437.952756 
z
" clip-path="url(#p49941a1e7a)" style="stroke: #000000; stroke-linejoin: miter"/>
   </g>
   <g id="patch_9">
    <path d="M 84.365652 429.991818 
L 88.264296 436.077003 
L 86.944121 436.592697 
L 119.374505 519.614481 
L 119.374505 519.614481 
L 86.944121 436.592697 
L 85.623945 437.108391 
z
" clip-path="url(#p49941a1e7a)" style="stroke: #000000; stroke-linejoin: miter"/>
   </g>
   <g id="patch_10">
    <path d="M 87.577507 428.162201 
L 93.057223 432.874059 
L 91.940338 433.746625 
L 160.453989 521.444099 
L 160.453989 521.444099 
L 91.940338 433.746625 
L 90.823454 434.619192 
z
" clip-path="url(#p49941a1e7a)" style="stroke: #000000; stroke-linejoin: miter"/>
   </g>
   <g id="patch_11">
    <path d="M 89.427656 426.39034 
L 95.738361 429.91226 
L 94.818349 430.990398 
L 202.895178 523.215959 
L 202.895178 523.215959 
L 94.818349 430.990398 
L 93.898338 432.068537 
z
" clip-path="url(#p49941a1e7a)" style="stroke: #000000; stroke-linejoin: miter"/>
   </g>
   <g id="patch_12">
    <path d="M 90.468344 424.986354 
L 97.201209 427.612649 
L 96.437196 428.80642 
L 246.145829 524.619945 
L 246.145829 524.619945 
L 96.437196 428.80642 
L 95.673183 430.00019 
z
" clip-path="url(#p49941a1e7a)" style="stroke: #000000; stroke-linejoin: miter"/>
   </g>
   <g id="patch_13">
    <path d="M 91.078617 423.923591 
L 98.032439 425.891653 
L 97.386511 427.153232 
L 289.826895 525.682709 
L 289.826895 525.682709 
L 97.386511 427.153232 
L 96.740582 428.414811 
z
" clip-path="url(#p49941a1e7a)" style="stroke: #000000; stroke-linejoin: miter"/>
   </g>
   <g id="patch_14">
    <path d="M 119.374505 429.991818 
L 118.116213 437.108391 
L 116.796037 436.592697 
L 84.365652 519.614481 
L 84.365652 519.614481 
L 116.796037 436.592697 
L 115.475861 436.077003 
z
" clip-path="url(#p49941a1e7a)" style="stroke: #000000; stroke-linejoin: miter"/>
   </g>
   <g id="patch_15">
    <path d="M 124.015748 430.866142 
L 125.433071 437.952756 
L 124.015748 437.952756 
L 124.015748 518.740157 
L 124.015748 518.740157 
L 124.015748 437.952756 
L 122.598425 437.952756 
z
" clip-path="url(#p49941a1e7a)" style="stroke: #000000; stroke-linejoin: miter"/>
   </g>
   <g id="patch_16">
    <path d="M 128.656991 429.991818 
L 132.555635 436.077003 
L 131.235459 436.592697 
L 163.665844 519.614481 
L 163.665844 519.614481 
L 131.235459 436.592697 
L 129.915284 437.108391 
z
" clip-path="url(#p49941a1e7a)" style="stroke: #000000; stroke-linejoin: miter"/>
   </g>
   <g id="patch_17">
    <path d="M 131.868845 428.162201 
L 137.348562 432.874059 
L 136.231677 433.746625 
L 204.745328 521.444099 
L 204.745328 521.444099 
L 136.231677 433.746625 
L 135.114792 434.619192 
z
" clip-path="url(#p49941a1e7a)" style="stroke: #000000; stroke-linejoin: miter"/>
   </g>
   <g id="patch_18">
    <path d="M 133.718995 426.39034 
L 140.029699 429.91226 
L 139.109688 430.990398 
L 247.186517 523.215959 
L 247.186517 523.215959 
L 139.109688 430.990398 
L 138.189676 432.068537 
z
" clip-path="url(#p49941a1e7a)" style="stroke: #000000; stroke-linejoin: miter"/>
   </g>
   <g id="patch_19">
    <path d="M 134.759682 424.986354 
L 141.492548 427.612649 
L 140.728535 428.80642 
L 290.437168 524.619945 
L 290.437168 524.619945 
L 140.728535 428.80642 
L 139.964522 430.00019 
z
" clip-path="url(#p49941a1e7a)" style="stroke: #000000; stroke-linejoin: miter"/>
   </g>
   <g id="patch_20">
    <path d="M 160.453989 428.162201 
L 157.208043 434.619192 
L 156.091158 433.746625 
L 87.577507 521.444099 
L 87.577507 521.444099 
L 156.091158 433.746625 
L 154.974273 432.874059 
z
" clip-path="url(#p49941a1e7a)" style="stroke: #000000; stroke-linejoin: miter"/>
   </g>
   <g id="patch_21">
    <path d="M 163.665844 429.991818 
L 162.407551 437.108391 
L 161.087375 436.592697 
L 128.656991 519.614481 
L 128.656991 519.614481 
L 161.087375 436.592697 
L 159.7672 436.077003 
z
" clip-path="url(#p49941a1e7a)" style="stroke: #000000; stroke-linejoin: miter"/>
   </g>
   <g id="patch_22">
    <path d="M 168.307087 430.866142 
L 169.724409 437.952756 
L 168.307087 437.952756 
L 168.307087 518.740157 
L 168.307087 518.740157 
L 168.307087 437.952756 
L 166.889764 437.952756 
z
" clip-path="url(#p49941a1e7a)" style="stroke: #000000; stroke-linejoin: miter"/>
   </g>
   <g id="patch_23">
    <path d="M 172.94833 429.991818 
L 176.846974 436.077003 
L 175.526798 436.592697 
L 207.957182 519.614481 
L 207.957182 519.614481 
L 175.526798 436.592697 
L 174.206622 437.108391 
z
" clip-path="url(#p49941a1e7a)" style="stroke: #000000; stroke-linejoin: miter"/>
   </g>
   <g id="patch_24">
    <path d="M 176.160184 428.162201 
L 181.639901 432.874059 
L 180.523016 433.746625 
L 249.036667 521.444099 
L 249.036667 521.444099 
L 180.523016 433.746625 
L 179.406131 434.619192 
z
" clip-path="url(#p49941a1e7a)" style="stroke: #000000; stroke-linejoin: miter"/>
   </g>
   <g id="patch_25">
    <path d="M 178.010334 426.39034 
L 184.321038 429.91226 
L 183.401026 430.990398 
L 291.477855 523.215959 
L 291.477855 523.215959 
L 183.401026 430.990398 
L 182.481015 432.068537 
z
" clip-path="url(#p49941a1e7a)" style="stroke: #000000; stroke-linejoin: miter"/>
   </g>
   <g id="patch_26">
    <path d="M 202.895178 426.39034 
L 198.424497 432.068537 
L 197.504485 430.990398 
L 89.427656 523.215959 
L 89.427656 523.215959 
L 197.504485 430.990398 
L 196.584474 429.91226 
z
" clip-path="url(#p49941a1e7a)" style="stroke: #000000; stroke-linejoin: miter"/>
   </g>
   <g id="patch_27">
    <path d="M 204.745328 428.162201 
L 201.499381 434.619192 
L 200.382496 433.746625 
L 131.868845 521.444099 
L 131.868845 521.444099 
L 200.382496 433.746625 
L 199.265611 432.874059 
z
" clip-path="url(#p49941a1e7a)" style="stroke: #000000; stroke-linejoin: miter"/>
   </g>
   <g id="patch_28">
    <path d="M 207.957182 429.991818 
L 206.69889 437.108391 
L 205.378714 436.592697 
L 172.94833 519.614481 
L 172.94833 519.614481 
L 205.378714 436.592697 
L 204.058538 436.077003 
z
" clip-path="url(#p49941a1e7a)" style="stroke: #000000; stroke-linejoin: miter"/>
   </g>
   <g id="patch_29">
    <path d="M 212.598425 430.866142 
L 214.015748 437.952756 
L 212.598425 437.952756 
L 212.598425 518.740157 
L 212.598425 518.740157 
L 212.598425 437.952756 
L 211.181102 437.952756 
z
" clip-path="url(#p49941a1e7a)" style="stroke: #000000; stroke-linejoin: miter"/>
   </g>
   <g id="patch_30">
    <path d="M 217.239668 429.991818 
L 221.138312 436.077003 
L 219.818136 436.592697 
L 252.248521 519.614481 
L 252.248521 519.614481 
L 219.818136 436.592697 
L 218.497961 437.108391 
z
" clip-path="url(#p49941a1e7a)" style="stroke: #000000; stroke-linejoin: miter"/>
   </g>
   <g id="patch_31">
    <path d="M 220.451522 428.162201 
L 225.931239 432.874059 
L 224.814354 433.746625 
L 293.328005 521.444099 
L 293.328005 521.444099 
L 224.814354 433.746625 
L 223.697469 434.619192 
z
" clip-path="url(#p49941a1e7a)" style="stroke: #000000; stroke-linejoin: miter"/>
   </g>
   <g id="patch_32">
    <path d="M 246.145829 424.986354 
L 240.94099 430.00019 
L 240.176977 428.80642 
L 90.468344 524.619945 
L 90.468344 524.619945 
L 240.176977 428.80642 
L 239.412964 427.612649 
z
" clip-path="url(#p49941a1e7a)" style="stroke: #000000; stroke-linejoin: miter"/>
   </g>
   <g id="patch_33">
    <path d="M 247.186517 426.39034 
L 242.715836 432.068537 
L 241.795824 430.990398 
L 133.718995 523.215959 
L 133.718995 523.215959 
L 241.795824 430.990398 
L 240.875812 429.91226 
z
" clip-path="url(#p49941a1e7a)" style="stroke: #000000; stroke-linejoin: miter"/>
   </g>
   <g id="patch_34">
    <path d="M 249.036667 428.162201 
L 245.79072 434.619192 
L 244.673835 433.746625 
L 176.160184 521.444099 
L 176.160184 521.444099 
L 244.673835 433.746625 
L 243.55695 432.874059 
z
" clip-path="url(#p49941a1e7a)" style="stroke: #000000; stroke-linejoin: miter"/>
   </g>
   <g id="patch_35">
    <path d="M 252.248521 429.991818 
L 250.990228 437.108391 
L 249.670053 436.592697 
L 217.239668 519.614481 
L 217.239668 519.614481 
L 249.670053 436.592697 
L 248.349877 436.077003 
z
" clip-path="url(#p49941a1e7a)" style="stroke: #000000; stroke-linejoin: miter"/>
   </g>
   <g id="patch_36">
    <path d="M 256.889764 430.866142 
L 258.307087 437.952756 
L 256.889764 437.952756 
L 256.889764 518.740157 
L 256.889764 518.740157 
L 256.889764 437.952756 
L 255.472441 437.952756 
z
" clip-path="url(#p49941a1e7a)" style="stroke: #000000; stroke-linejoin: miter"/>
   </g>
   <g id="patch_37">
    <path d="M 261.531007 429.991818 
L 265.429651 436.077003 
L 264.109475 436.592697 
L 296.539859 519.614481 
L 296.539859 519.614481 
L 264.109475 436.592697 
L 262.789299 437.108391 
z
" clip-path="url(#p49941a1e7a)" style="stroke: #000000; stroke-linejoin: miter"/>
   </g>
   <g id="patch_38">
    <path d="M 289.826895 423.923591 
L 284.16493 428.414811 
L 283.519001 427.153232 
L 91.078617 525.682709 
L 91.078617 525.682709 
L 283.519001 427.153232 
L 282.873073 425.891653 
z
" clip-path="url(#p49941a1e7a)" style="stroke: #000000; stroke-linejoin: miter"/>
   </g>
   <g id="patch_39">
    <path d="M 290.437168 424.986354 
L 285.232329 430.00019 
L 284.468316 428.80642 
L 134.759682 524.619945 
L 134.759682 524.619945 
L 284.468316 428.80642 
L 283.704302 427.612649 
z
" clip-path="url(#p49941a1e7a)" style="stroke: #000000; stroke-linejoin: miter"/>
   </g>
   <g id="patch_40">
    <path d="M 291.477855 426.39034 
L 287.007174 432.068537 
L 286.087163 430.990398 
L 178.010334 523.215959 
L 178.010334 523.215959 
L 286.087163 430.990398 
L 285.167151 429.91226 
z
" clip-path="url(#p49941a1e7a)" style="stroke: #000000; stroke-linejoin: miter"/>
   </g>
   <g id="patch_41">
    <path d="M 293.328005 428.162201 
L 290.082058 434.619192 
L 288.965173 433.746625 
L 220.451522 521.444099 
L 220.451522 521.444099 
L 288.965173 433.746625 
L 287.848288 432.874059 
z
" clip-path="url(#p49941a1e7a)" style="stroke: #000000; stroke-linejoin: miter"/>
   </g>
   <g id="patch_42">
    <path d="M 296.539859 429.991818 
L 295.281567 437.108391 
L 293.961391 436.592697 
L 261.531007 519.614481 
L 261.531007 519.614481 
L 293.961391 436.592697 
L 292.641215 436.077003 
z
" clip-path="url(#p49941a1e7a)" style="stroke: #000000; stroke-linejoin: miter"/>
   </g>
   <g id="patch_43">
    <path d="M 301.181102 430.866142 
L 302.598425 437.952756 
L 301.181102 437.952756 
L 301.181102 518.740157 
L 301.181102 518.740157 
L 301.181102 437.952756 
L 299.76378 437.952756 
z
" clip-path="url(#p49941a1e7a)" style="stroke: #000000; stroke-linejoin: miter"/>
   </g>
   <g id="patch_44">
    <path d="M 333.739838 423.116147 
L 327.777937 427.200831 
L 327.221725 425.897209 
L 91.457013 526.490152 
L 91.457013 526.490152 
L 327.221725 425.897209 
L 326.665512 424.593586 
z
" clip-path="url(#p49941a1e7a)" style="stroke: #000000; stroke-linejoin: miter"/>
   </g>
   <g id="patch_45">
    <path d="M 334.118233 423.923591 
L 328.456268 428.414811 
L 327.81034 427.153232 
L 135.369956 525.682709 
L 135.369956 525.682709 
L 327.81034 427.153232 
L 327.164412 425.891653 
z
" clip-path="url(#p49941a1e7a)" style="stroke: #000000; stroke-linejoin: miter"/>
   </g>
   <g id="patch_46">
    <path d="M 334.728507 424.986354 
L 329.523667 430.00019 
L 328.759654 428.80642 
L 179.051021 524.619945 
L 179.051021 524.619945 
L 328.759654 428.80642 
L 327.995641 427.612649 
z
" clip-path="url(#p49941a1e7a)" style="stroke: #000000; stroke-linejoin: miter"/>
   </g>
   <g id="patch_47">
    <path d="M 335.769194 426.39034 
L 331.298513 432.068537 
L 330.378501 430.990398 
L 222.301672 523.215959 
L 222.301672 523.215959 
L 330.378501 430.990398 
L 329.45849 429.91226 
z
" clip-path="url(#p49941a1e7a)" style="stroke: #000000; stroke-linejoin: miter"/>
   </g>
   <g id="patch_48">
    <path d="M 337.619344 428.162201 
L 334.373397 434.619192 
L 333.256512 433.746625 
L 264.742861 521.444099 
L 264.742861 521.444099 
L 333.256512 433.746625 
L 332.139627 432.874059 
z
" clip-path="url(#p49941a1e7a)" style="stroke: #000000; stroke-linejoin: miter"/>
   </g>
   <g id="patch_49">
    <path d="M 340.831198 429.991818 
L 339.572905 437.108391 
L 338.25273 436.592697 
L 305.822345 519.614481 
L 305.822345 519.614481 
L 338.25273 436.592697 
L 336.932554 436.077003 
z
" clip-path="url(#p49941a1e7a)" style="stroke: #000000; stroke-linejoin: miter"/>
   </g>
   <g id="patch_50">
    <path d="M 75.083167 316.605991 
L 73.824874 323.722564 
L 72.504698 323.20687 
L 40.074314 406.228654 
L 40.074314 406.228654 
L 72.504698 323.20687 
L 71.184522 322.691177 
z
" clip-path="url(#p49941a1e7a)" style="stroke: #000000; stroke-linejoin: miter"/>
   </g>
   <g id="patch_51">
    <path d="M 79.724409 317.480315 
L 81.141732 324.566929 
L 79.724409 324.566929 
L 79.724409 405.354331 
L 79.724409 405.354331 
L 79.724409 324.566929 
L 78.307087 324.566929 
z
" clip-path="url(#p49941a1e7a)" style="stroke: #000000; stroke-linejoin: miter"/>
   </g>
   <g id="patch_52">
    <path d="M 84.365652 316.605991 
L 88.264296 322.691177 
L 86.944121 323.20687 
L 119.374505 406.228654 
L 119.374505 406.228654 
L 86.944121 323.20687 
L 85.623945 323.722564 
z
" clip-path="url(#p49941a1e7a)" style="stroke: #000000; stroke-linejoin: miter"/>
   </g>
   <g id="patch_53">
    <path d="M 87.577507 314.776374 
L 93.057223 319.488232 
L 91.940338 320.360799 
L 160.453989 408.058272 
L 160.453989 408.058272 
L 91.940338 320.360799 
L 90.823454 321.233365 
z
" clip-path="url(#p49941a1e7a)" style="stroke: #000000; stroke-linejoin: miter"/>
   </g>
   <g id="patch_54">
    <path d="M 89.427656 313.004514 
L 95.738361 316.526433 
L 94.818349 317.604571 
L 202.895178 409.830132 
L 202.895178 409.830132 
L 94.818349 317.604571 
L 93.898338 318.68271 
z
" clip-path="url(#p49941a1e7a)" style="stroke: #000000; stroke-linejoin: miter"/>
   </g>
   <g id="patch_55">
    <path d="M 90.468344 311.600527 
L 97.201209 314.226823 
L 96.437196 315.420593 
L 246.145829 411.234118 
L 246.145829 411.234118 
L 96.437196 315.420593 
L 95.673183 316.614364 
z
" clip-path="url(#p49941a1e7a)" style="stroke: #000000; stroke-linejoin: miter"/>
   </g>
   <g id="patch_56">
    <path d="M 91.078617 310.537764 
L 98.032439 312.505827 
L 97.386511 313.767405 
L 289.826895 412.296882 
L 289.826895 412.296882 
L 97.386511 313.767405 
L 96.740582 315.028984 
z
" clip-path="url(#p49941a1e7a)" style="stroke: #000000; stroke-linejoin: miter"/>
   </g>
   <g id="patch_57">
    <path d="M 91.457013 309.73032 
L 98.531338 311.207759 
L 97.975126 312.511382 
L 333.739838 413.104325 
L 333.739838 413.104325 
L 97.975126 312.511382 
L 97.418914 313.815004 
z
" clip-path="url(#p49941a1e7a)" style="stroke: #000000; stroke-linejoin: miter"/>
   </g>
   <g id="patch_58">
    <path d="M 116.162651 314.776374 
L 112.916704 321.233365 
L 111.799819 320.360799 
L 43.286168 408.058272 
L 43.286168 408.058272 
L 111.799819 320.360799 
L 110.682934 319.488232 
z
" clip-path="url(#p49941a1e7a)" style="stroke: #000000; stroke-linejoin: miter"/>
   </g>
   <g id="patch_59">
    <path d="M 119.374505 316.605991 
L 118.116213 323.722564 
L 116.796037 323.20687 
L 84.365652 406.228654 
L 84.365652 406.228654 
L 116.796037 323.20687 
L 115.475861 322.691177 
z
" clip-path="url(#p49941a1e7a)" style="stroke: #000000; stroke-linejoin: miter"/>
   </g>
   <g id="patch_60">
    <path d="M 124.015748 317.480315 
L 125.433071 324.566929 
L 124.015748 324.566929 
L 124.015748 405.354331 
L 124.015748 405.354331 
L 124.015748 324.566929 
L 122.598425 324.566929 
z
" clip-path="url(#p49941a1e7a)" style="stroke: #000000; stroke-linejoin: miter"/>
   </g>
   <g id="patch_61">
    <path d="M 128.656991 316.605991 
L 132.555635 322.691177 
L 131.235459 323.20687 
L 163.665844 406.228654 
L 163.665844 406.228654 
L 131.235459 323.20687 
L 129.915284 323.722564 
z
" clip-path="url(#p49941a1e7a)" style="stroke: #000000; stroke-linejoin: miter"/>
   </g>
   <g id="patch_62">
    <path d="M 131.868845 314.776374 
L 137.348562 319.488232 
L 136.231677 320.360799 
L 204.745328 408.058272 
L 204.745328 408.058272 
L 136.231677 320.360799 
L 135.114792 321.233365 
z
" clip-path="url(#p49941a1e7a)" style="stroke: #000000; stroke-linejoin: miter"/>
   </g>
   <g id="patch_63">
    <path d="M 133.718995 313.004514 
L 140.029699 316.526433 
L 139.109688 317.604571 
L 247.186517 409.830132 
L 247.186517 409.830132 
L 139.109688 317.604571 
L 138.189676 318.68271 
z
" clip-path="url(#p49941a1e7a)" style="stroke: #000000; stroke-linejoin: miter"/>
   </g>
   <g id="patch_64">
    <path d="M 134.759682 311.600527 
L 141.492548 314.226823 
L 140.728535 315.420593 
L 290.437168 411.234118 
L 290.437168 411.234118 
L 140.728535 315.420593 
L 139.964522 316.614364 
z
" clip-path="url(#p49941a1e7a)" style="stroke: #000000; stroke-linejoin: miter"/>
   </g>
   <g id="patch_65">
    <path d="M 135.369956 310.537764 
L 142.323777 312.505827 
L 141.677849 313.767405 
L 334.118233 412.296882 
L 334.118233 412.296882 
L 141.677849 313.767405 
L 141.031921 315.028984 
z
" clip-path="url(#p49941a1e7a)" style="stroke: #000000; stroke-linejoin: miter"/>
   </g>
   <g id="patch_66">
    <path d="M 158.60384 313.004514 
L 154.133158 318.68271 
L 153.213147 317.604571 
L 45.136318 409.830132 
L 45.136318 409.830132 
L 153.213147 317.604571 
L 152.293135 316.526433 
z
" clip-path="url(#p49941a1e7a)" style="stroke: #000000; stroke-linejoin: miter"/>
   </g>
   <g id="patch_67">
    <path d="M 160.453989 314.776374 
L 157.208043 321.233365 
L 156.091158 320.360799 
L 87.577507 408.058272 
L 87.577507 408.058272 
L 156.091158 320.360799 
L 154.974273 319.488232 
z
" clip-path="url(#p49941a1e7a)" style="stroke: #000000; stroke-linejoin: miter"/>
   </g>
   <g id="patch_68">
    <path d="M 163.665844 316.605991 
L 162.407551 323.722564 
L 161.087375 323.20687 
L 128.656991 406.228654 
L 128.656991 406.228654 
L 161.087375 323.20687 
L 159.7672 322.691177 
z
" clip-path="url(#p49941a1e7a)" style="stroke: #000000; stroke-linejoin: miter"/>
   </g>
   <g id="patch_69">
    <path d="M 168.307087 317.480315 
L 169.724409 324.566929 
L 168.307087 324.566929 
L 168.307087 405.354331 
L 168.307087 405.354331 
L 168.307087 324.566929 
L 166.889764 324.566929 
z
" clip-path="url(#p49941a1e7a)" style="stroke: #000000; stroke-linejoin: miter"/>
   </g>
   <g id="patch_70">
    <path d="M 172.94833 316.605991 
L 176.846974 322.691177 
L 175.526798 323.20687 
L 207.957182 406.228654 
L 207.957182 406.228654 
L 175.526798 323.20687 
L 174.206622 323.722564 
z
" clip-path="url(#p49941a1e7a)" style="stroke: #000000; stroke-linejoin: miter"/>
   </g>
   <g id="patch_71">
    <path d="M 176.160184 314.776374 
L 181.639901 319.488232 
L 180.523016 320.360799 
L 249.036667 408.058272 
L 249.036667 408.058272 
L 180.523016 320.360799 
L 179.406131 321.233365 
z
" clip-path="url(#p49941a1e7a)" style="stroke: #000000; stroke-linejoin: miter"/>
   </g>
   <g id="patch_72">
    <path d="M 178.010334 313.004514 
L 184.321038 316.526433 
L 183.401026 317.604571 
L 291.477855 409.830132 
L 291.477855 409.830132 
L 183.401026 317.604571 
L 182.481015 318.68271 
z
" clip-path="url(#p49941a1e7a)" style="stroke: #000000; stroke-linejoin: miter"/>
   </g>
   <g id="patch_73">
    <path d="M 179.051021 311.600527 
L 185.783887 314.226823 
L 185.019873 315.420593 
L 334.728507 411.234118 
L 334.728507 411.234118 
L 185.019873 315.420593 
L 184.25586 316.614364 
z
" clip-path="url(#p49941a1e7a)" style="stroke: #000000; stroke-linejoin: miter"/>
   </g>
   <g id="patch_74">
    <path d="M 201.854491 311.600527 
L 196.649651 316.614364 
L 195.885638 315.420593 
L 46.177005 411.234118 
L 46.177005 411.234118 
L 195.885638 315.420593 
L 195.121625 314.226823 
z
" clip-path="url(#p49941a1e7a)" style="stroke: #000000; stroke-linejoin: miter"/>
   </g>
   <g id="patch_75">
    <path d="M 202.895178 313.004514 
L 198.424497 318.68271 
L 197.504485 317.604571 
L 89.427656 409.830132 
L 89.427656 409.830132 
L 197.504485 317.604571 
L 196.584474 316.526433 
z
" clip-path="url(#p49941a1e7a)" style="stroke: #000000; stroke-linejoin: miter"/>
   </g>
   <g id="patch_76">
    <path d="M 204.745328 314.776374 
L 201.499381 321.233365 
L 200.382496 320.360799 
L 131.868845 408.058272 
L 131.868845 408.058272 
L 200.382496 320.360799 
L 199.265611 319.488232 
z
" clip-path="url(#p49941a1e7a)" style="stroke: #000000; stroke-linejoin: miter"/>
   </g>
   <g id="patch_77">
    <path d="M 207.957182 316.605991 
L 206.69889 323.722564 
L 205.378714 323.20687 
L 172.94833 406.228654 
L 172.94833 406.228654 
L 205.378714 323.20687 
L 204.058538 322.691177 
z
" clip-path="url(#p49941a1e7a)" style="stroke: #000000; stroke-linejoin: miter"/>
   </g>
   <g id="patch_78">
    <path d="M 212.598425 317.480315 
L 214.015748 324.566929 
L 212.598425 324.566929 
L 212.598425 405.354331 
L 212.598425 405.354331 
L 212.598425 324.566929 
L 211.181102 324.566929 
z
" clip-path="url(#p49941a1e7a)" style="stroke: #000000; stroke-linejoin: miter"/>
   </g>
   <g id="patch_79">
    <path d="M 217.239668 316.605991 
L 221.138312 322.691177 
L 219.818136 323.20687 
L 252.248521 406.228654 
L 252.248521 406.228654 
L 219.818136 323.20687 
L 218.497961 323.722564 
z
" clip-path="url(#p49941a1e7a)" style="stroke: #000000; stroke-linejoin: miter"/>
   </g>
   <g id="patch_80">
    <path d="M 220.451522 314.776374 
L 225.931239 319.488232 
L 224.814354 320.360799 
L 293.328005 408.058272 
L 293.328005 408.058272 
L 224.814354 320.360799 
L 223.697469 321.233365 
z
" clip-path="url(#p49941a1e7a)" style="stroke: #000000; stroke-linejoin: miter"/>
   </g>
   <g id="patch_81">
    <path d="M 222.301672 313.004514 
L 228.612376 316.526433 
L 227.692365 317.604571 
L 335.769194 409.830132 
L 335.769194 409.830132 
L 227.692365 317.604571 
L 226.772353 318.68271 
z
" clip-path="url(#p49941a1e7a)" style="stroke: #000000; stroke-linejoin: miter"/>
   </g>
   <g id="patch_82">
    <path d="M 245.535556 310.537764 
L 239.873591 315.028984 
L 239.227663 313.767405 
L 46.787279 412.296882 
L 46.787279 412.296882 
L 239.227663 313.767405 
L 238.581734 312.505827 
z
" clip-path="url(#p49941a1e7a)" style="stroke: #000000; stroke-linejoin: miter"/>
   </g>
   <g id="patch_83">
    <path d="M 246.145829 311.600527 
L 240.94099 316.614364 
L 240.176977 315.420593 
L 90.468344 411.234118 
L 90.468344 411.234118 
L 240.176977 315.420593 
L 239.412964 314.226823 
z
" clip-path="url(#p49941a1e7a)" style="stroke: #000000; stroke-linejoin: miter"/>
   </g>
   <g id="patch_84">
    <path d="M 247.186517 313.004514 
L 242.715836 318.68271 
L 241.795824 317.604571 
L 133.718995 409.830132 
L 133.718995 409.830132 
L 241.795824 317.604571 
L 240.875812 316.526433 
z
" clip-path="url(#p49941a1e7a)" style="stroke: #000000; stroke-linejoin: miter"/>
   </g>
   <g id="patch_85">
    <path d="M 249.036667 314.776374 
L 245.79072 321.233365 
L 244.673835 320.360799 
L 176.160184 408.058272 
L 176.160184 408.058272 
L 244.673835 320.360799 
L 243.55695 319.488232 
z
" clip-path="url(#p49941a1e7a)" style="stroke: #000000; stroke-linejoin: miter"/>
   </g>
   <g id="patch_86">
    <path d="M 252.248521 316.605991 
L 250.990228 323.722564 
L 249.670053 323.20687 
L 217.239668 406.228654 
L 217.239668 406.228654 
L 249.670053 323.20687 
L 248.349877 322.691177 
z
" clip-path="url(#p49941a1e7a)" style="stroke: #000000; stroke-linejoin: miter"/>
   </g>
   <g id="patch_87">
    <path d="M 256.889764 317.480315 
L 258.307087 324.566929 
L 256.889764 324.566929 
L 256.889764 405.354331 
L 256.889764 405.354331 
L 256.889764 324.566929 
L 255.472441 324.566929 
z
" clip-path="url(#p49941a1e7a)" style="stroke: #000000; stroke-linejoin: miter"/>
   </g>
   <g id="patch_88">
    <path d="M 261.531007 316.605991 
L 265.429651 322.691177 
L 264.109475 323.20687 
L 296.539859 406.228654 
L 296.539859 406.228654 
L 264.109475 323.20687 
L 262.789299 323.722564 
z
" clip-path="url(#p49941a1e7a)" style="stroke: #000000; stroke-linejoin: miter"/>
   </g>
   <g id="patch_89">
    <path d="M 264.742861 314.776374 
L 270.222578 319.488232 
L 269.105693 320.360799 
L 337.619344 408.058272 
L 337.619344 408.058272 
L 269.105693 320.360799 
L 267.988808 321.233365 
z
" clip-path="url(#p49941a1e7a)" style="stroke: #000000; stroke-linejoin: miter"/>
   </g>
   <g id="patch_90">
    <path d="M 289.448499 309.73032 
L 283.486598 313.815004 
L 282.930386 312.511382 
L 47.165674 413.104325 
L 47.165674 413.104325 
L 282.930386 312.511382 
L 282.374174 311.207759 
z
" clip-path="url(#p49941a1e7a)" style="stroke: #000000; stroke-linejoin: miter"/>
   </g>
   <g id="patch_91">
    <path d="M 289.826895 310.537764 
L 284.16493 315.028984 
L 283.519001 313.767405 
L 91.078617 412.296882 
L 91.078617 412.296882 
L 283.519001 313.767405 
L 282.873073 312.505827 
z
" clip-path="url(#p49941a1e7a)" style="stroke: #000000; stroke-linejoin: miter"/>
   </g>
   <g id="patch_92">
    <path d="M 290.437168 311.600527 
L 285.232329 316.614364 
L 284.468316 315.420593 
L 134.759682 411.234118 
L 134.759682 411.234118 
L 284.468316 315.420593 
L 283.704302 314.226823 
z
" clip-path="url(#p49941a1e7a)" style="stroke: #000000; stroke-linejoin: miter"/>
   </g>
   <g id="patch_93">
    <path d="M 291.477855 313.004514 
L 287.007174 318.68271 
L 286.087163 317.604571 
L 178.010334 409.830132 
L 178.010334 409.830132 
L 286.087163 317.604571 
L 285.167151 316.526433 
z
" clip-path="url(#p49941a1e7a)" style="stroke: #000000; stroke-linejoin: miter"/>
   </g>
   <g id="patch_94">
    <path d="M 293.328005 314.776374 
L 290.082058 321.233365 
L 288.965173 320.360799 
L 220.451522 408.058272 
L 220.451522 408.058272 
L 288.965173 320.360799 
L 287.848288 319.488232 
z
" clip-path="url(#p49941a1e7a)" style="stroke: #000000; stroke-linejoin: miter"/>
   </g>
   <g id="patch_95">
    <path d="M 296.539859 316.605991 
L 295.281567 323.722564 
L 293.961391 323.20687 
L 261.531007 406.228654 
L 261.531007 406.228654 
L 293.961391 323.20687 
L 292.641215 322.691177 
z
" clip-path="url(#p49941a1e7a)" style="stroke: #000000; stroke-linejoin: miter"/>
   </g>
   <g id="patch_96">
    <path d="M 301.181102 317.480315 
L 302.598425 324.566929 
L 301.181102 324.566929 
L 301.181102 405.354331 
L 301.181102 405.354331 
L 301.181102 324.566929 
L 299.76378 324.566929 
z
" clip-path="url(#p49941a1e7a)" style="stroke: #000000; stroke-linejoin: miter"/>
   </g>
   <g id="patch_97">
    <path d="M 305.822345 316.605991 
L 309.720989 322.691177 
L 308.400814 323.20687 
L 340.831198 406.228654 
L 340.831198 406.228654 
L 308.400814 323.20687 
L 307.080638 323.722564 
z
" clip-path="url(#p49941a1e7a)" style="stroke: #000000; stroke-linejoin: miter"/>
   </g>
   <g id="patch_98">
    <path d="M 119.374505 203.220165 
L 118.116213 210.336737 
L 116.796037 209.821043 
L 84.365652 292.842828 
L 84.365652 292.842828 
L 116.796037 209.821043 
L 115.475861 209.30535 
z
" clip-path="url(#p49941a1e7a)" style="stroke: #000000; stroke-linejoin: miter"/>
   </g>
   <g id="patch_99">
    <path d="M 124.015748 204.094488 
L 125.433071 211.181102 
L 124.015748 211.181102 
L 124.015748 291.968504 
L 124.015748 291.968504 
L 124.015748 211.181102 
L 122.598425 211.181102 
z
" clip-path="url(#p49941a1e7a)" style="stroke: #000000; stroke-linejoin: miter"/>
   </g>
   <g id="patch_100">
    <path d="M 128.656991 203.220165 
L 132.555635 209.30535 
L 131.235459 209.821043 
L 163.665844 292.842828 
L 163.665844 292.842828 
L 131.235459 209.821043 
L 129.915284 210.336737 
z
" clip-path="url(#p49941a1e7a)" style="stroke: #000000; stroke-linejoin: miter"/>
   </g>
   <g id="patch_101">
    <path d="M 131.868845 201.390547 
L 137.348562 206.102405 
L 136.231677 206.974972 
L 204.745328 294.672445 
L 204.745328 294.672445 
L 136.231677 206.974972 
L 135.114792 207.847538 
z
" clip-path="url(#p49941a1e7a)" style="stroke: #000000; stroke-linejoin: miter"/>
   </g>
   <g id="patch_102">
    <path d="M 133.718995 199.618687 
L 140.029699 203.140606 
L 139.109688 204.218745 
L 247.186517 296.444305 
L 247.186517 296.444305 
L 139.109688 204.218745 
L 138.189676 205.296883 
z
" clip-path="url(#p49941a1e7a)" style="stroke: #000000; stroke-linejoin: miter"/>
   </g>
   <g id="patch_103">
    <path d="M 134.759682 198.214701 
L 141.492548 200.840996 
L 140.728535 202.034766 
L 290.437168 297.848291 
L 290.437168 297.848291 
L 140.728535 202.034766 
L 139.964522 203.228537 
z
" clip-path="url(#p49941a1e7a)" style="stroke: #000000; stroke-linejoin: miter"/>
   </g>
   <g id="patch_104">
    <path d="M 160.453989 201.390547 
L 157.208043 207.847538 
L 156.091158 206.974972 
L 87.577507 294.672445 
L 87.577507 294.672445 
L 156.091158 206.974972 
L 154.974273 206.102405 
z
" clip-path="url(#p49941a1e7a)" style="stroke: #000000; stroke-linejoin: miter"/>
   </g>
   <g id="patch_105">
    <path d="M 163.665844 203.220165 
L 162.407551 210.336737 
L 161.087375 209.821043 
L 128.656991 292.842828 
L 128.656991 292.842828 
L 161.087375 209.821043 
L 159.7672 209.30535 
z
" clip-path="url(#p49941a1e7a)" style="stroke: #000000; stroke-linejoin: miter"/>
   </g>
   <g id="patch_106">
    <path d="M 168.307087 204.094488 
L 169.724409 211.181102 
L 168.307087 211.181102 
L 168.307087 291.968504 
L 168.307087 291.968504 
L 168.307087 211.181102 
L 166.889764 211.181102 
z
" clip-path="url(#p49941a1e7a)" style="stroke: #000000; stroke-linejoin: miter"/>
   </g>
   <g id="patch_107">
    <path d="M 172.94833 203.220165 
L 176.846974 209.30535 
L 175.526798 209.821043 
L 207.957182 292.842828 
L 207.957182 292.842828 
L 175.526798 209.821043 
L 174.206622 210.336737 
z
" clip-path="url(#p49941a1e7a)" style="stroke: #000000; stroke-linejoin: miter"/>
   </g>
   <g id="patch_108">
    <path d="M 176.160184 201.390547 
L 181.639901 206.102405 
L 180.523016 206.974972 
L 249.036667 294.672445 
L 249.036667 294.672445 
L 180.523016 206.974972 
L 179.406131 207.847538 
z
" clip-path="url(#p49941a1e7a)" style="stroke: #000000; stroke-linejoin: miter"/>
   </g>
   <g id="patch_109">
    <path d="M 178.010334 199.618687 
L 184.321038 203.140606 
L 183.401026 204.218745 
L 291.477855 296.444305 
L 291.477855 296.444305 
L 183.401026 204.218745 
L 182.481015 205.296883 
z
" clip-path="url(#p49941a1e7a)" style="stroke: #000000; stroke-linejoin: miter"/>
   </g>
   <g id="patch_110">
    <path d="M 202.895178 199.618687 
L 198.424497 205.296883 
L 197.504485 204.218745 
L 89.427656 296.444305 
L 89.427656 296.444305 
L 197.504485 204.218745 
L 196.584474 203.140606 
z
" clip-path="url(#p49941a1e7a)" style="stroke: #000000; stroke-linejoin: miter"/>
   </g>
   <g id="patch_111">
    <path d="M 204.745328 201.390547 
L 201.499381 207.847538 
L 200.382496 206.974972 
L 131.868845 294.672445 
L 131.868845 294.672445 
L 200.382496 206.974972 
L 199.265611 206.102405 
z
" clip-path="url(#p49941a1e7a)" style="stroke: #000000; stroke-linejoin: miter"/>
   </g>
   <g id="patch_112">
    <path d="M 207.957182 203.220165 
L 206.69889 210.336737 
L 205.378714 209.821043 
L 172.94833 292.842828 
L 172.94833 292.842828 
L 205.378714 209.821043 
L 204.058538 209.30535 
z
" clip-path="url(#p49941a1e7a)" style="stroke: #000000; stroke-linejoin: miter"/>
   </g>
   <g id="patch_113">
    <path d="M 212.598425 204.094488 
L 214.015748 211.181102 
L 212.598425 211.181102 
L 212.598425 291.968504 
L 212.598425 291.968504 
L 212.598425 211.181102 
L 211.181102 211.181102 
z
" clip-path="url(#p49941a1e7a)" style="stroke: #000000; stroke-linejoin: miter"/>
   </g>
   <g id="patch_114">
    <path d="M 217.239668 203.220165 
L 221.138312 209.30535 
L 219.818136 209.821043 
L 252.248521 292.842828 
L 252.248521 292.842828 
L 219.818136 209.821043 
L 218.497961 210.336737 
z
" clip-path="url(#p49941a1e7a)" style="stroke: #000000; stroke-linejoin: miter"/>
   </g>
   <g id="patch_115">
    <path d="M 220.451522 201.390547 
L 225.931239 206.102405 
L 224.814354 206.974972 
L 293.328005 294.672445 
L 293.328005 294.672445 
L 224.814354 206.974972 
L 223.697469 207.847538 
z
" clip-path="url(#p49941a1e7a)" style="stroke: #000000; stroke-linejoin: miter"/>
   </g>
   <g id="patch_116">
    <path d="M 246.145829 198.214701 
L 240.94099 203.228537 
L 240.176977 202.034766 
L 90.468344 297.848291 
L 90.468344 297.848291 
L 240.176977 202.034766 
L 239.412964 200.840996 
z
" clip-path="url(#p49941a1e7a)" style="stroke: #000000; stroke-linejoin: miter"/>
   </g>
   <g id="patch_117">
    <path d="M 247.186517 199.618687 
L 242.715836 205.296883 
L 241.795824 204.218745 
L 133.718995 296.444305 
L 133.718995 296.444305 
L 241.795824 204.218745 
L 240.875812 203.140606 
z
" clip-path="url(#p49941a1e7a)" style="stroke: #000000; stroke-linejoin: miter"/>
   </g>
   <g id="patch_118">
    <path d="M 249.036667 201.390547 
L 245.79072 207.847538 
L 244.673835 206.974972 
L 176.160184 294.672445 
L 176.160184 294.672445 
L 244.673835 206.974972 
L 243.55695 206.102405 
z
" clip-path="url(#p49941a1e7a)" style="stroke: #000000; stroke-linejoin: miter"/>
   </g>
   <g id="patch_119">
    <path d="M 252.248521 203.220165 
L 250.990228 210.336737 
L 249.670053 209.821043 
L 217.239668 292.842828 
L 217.239668 292.842828 
L 249.670053 209.821043 
L 248.349877 209.30535 
z
" clip-path="url(#p49941a1e7a)" style="stroke: #000000; stroke-linejoin: miter"/>
   </g>
   <g id="patch_120">
    <path d="M 256.889764 204.094488 
L 258.307087 211.181102 
L 256.889764 211.181102 
L 256.889764 291.968504 
L 256.889764 291.968504 
L 256.889764 211.181102 
L 255.472441 211.181102 
z
" clip-path="url(#p49941a1e7a)" style="stroke: #000000; stroke-linejoin: miter"/>
   </g>
   <g id="patch_121">
    <path d="M 261.531007 203.220165 
L 265.429651 209.30535 
L 264.109475 209.821043 
L 296.539859 292.842828 
L 296.539859 292.842828 
L 264.109475 209.821043 
L 262.789299 210.336737 
z
" clip-path="url(#p49941a1e7a)" style="stroke: #000000; stroke-linejoin: miter"/>
   </g>
   <g id="patch_122">
    <path d="M 184.004053 88.958543 
L 181.644305 95.789392 
L 180.42144 95.072869 
L 130.464451 180.332796 
L 130.464451 180.332796 
L 180.42144 95.072869 
L 179.198574 94.356347 
z
" clip-path="url(#p49941a1e7a)" style="stroke: #000000; stroke-linejoin: miter"/>
   </g>
   <g id="patch_123">
    <path d="M 188.00757 90.472109 
L 188.040172 97.698992 
L 186.649133 97.427304 
L 170.752273 178.81923 
L 170.752273 178.81923 
L 186.649133 97.427304 
L 185.258094 97.155617 
z
" clip-path="url(#p49941a1e7a)" style="stroke: #000000; stroke-linejoin: miter"/>
   </g>
   <g id="patch_124">
    <path d="M 192.897942 90.472109 
L 195.647418 97.155617 
L 194.256379 97.427304 
L 210.153239 178.81923 
L 210.153239 178.81923 
L 194.256379 97.427304 
L 192.865339 97.698992 
z
" clip-path="url(#p49941a1e7a)" style="stroke: #000000; stroke-linejoin: miter"/>
   </g>
   <g id="patch_125">
    <path d="M 196.901459 88.958543 
L 201.706938 94.356347 
L 200.484072 95.072869 
L 250.44106 180.332796 
L 250.44106 180.332796 
L 200.484072 95.072869 
L 199.261207 95.789392 
z
" clip-path="url(#p49941a1e7a)" style="stroke: #000000; stroke-linejoin: miter"/>
   </g>
   <g id="patch_126">
    <path d="M 79.724409 544.251969 
C 83.107315 544.251969 86.352121 542.907926 88.744197 540.51585 
C 91.136272 538.123775 92.480315 534.878969 92.480315 531.496063 
C 92.480315 528.113157 91.136272 524.868351 88.744197 522.476276 
C 86.352121 520.0842 83.107315 518.740157 79.724409 518.740157 
C 76.341504 518.740157 73.096698 520.0842 70.704622 522.476276 
C 68.312547 524.868351 66.968504 528.113157 66.968504 531.496063 
C 66.968504 534.878969 68.312547 538.123775 70.704622 540.51585 
C 73.096698 542.907926 76.341504 544.251969 79.724409 544.251969 
z
" clip-path="url(#p49941a1e7a)" style="fill: #b2b2b2; stroke: #000000; stroke-linejoin: miter"/>
   </g>
   <g id="patch_127">
    <path d="M 79.724409 544.251969 
C 83.107315 544.251969 86.352121 542.907926 88.744197 540.51585 
C 91.136272 538.123775 92.480315 534.878969 92.480315 531.496063 
C 92.480315 528.113157 91.136272 524.868351 88.744197 522.476276 
C 86.352121 520.0842 83.107315 518.740157 79.724409 518.740157 
C 76.341504 518.740157 73.096698 520.0842 70.704622 522.476276 
C 68.312547 524.868351 66.968504 528.113157 66.968504 531.496063 
C 66.968504 534.878969 68.312547 538.123775 70.704622 540.51585 
C 73.096698 542.907926 76.341504 544.251969 79.724409 544.251969 
L 79.724409 544.251969 
z
" clip-path="url(#p49941a1e7a)" style="fill: none; stroke: #000000; stroke-linejoin: miter"/>
   </g>
   <g id="patch_128">
    <path d="M 124.015748 544.251969 
C 127.398654 544.251969 130.64346 542.907926 133.035535 540.51585 
C 135.427611 538.123775 136.771654 534.878969 136.771654 531.496063 
C 136.771654 528.113157 135.427611 524.868351 133.035535 522.476276 
C 130.64346 520.0842 127.398654 518.740157 124.015748 518.740157 
C 120.632842 518.740157 117.388036 520.0842 114.995961 522.476276 
C 112.603885 524.868351 111.259843 528.113157 111.259843 531.496063 
C 111.259843 534.878969 112.603885 538.123775 114.995961 540.51585 
C 117.388036 542.907926 120.632842 544.251969 124.015748 544.251969 
z
" clip-path="url(#p49941a1e7a)" style="fill: #b2b2b2; stroke: #000000; stroke-linejoin: miter"/>
   </g>
   <g id="patch_129">
    <path d="M 124.015748 544.251969 
C 127.398654 544.251969 130.64346 542.907926 133.035535 540.51585 
C 135.427611 538.123775 136.771654 534.878969 136.771654 531.496063 
C 136.771654 528.113157 135.427611 524.868351 133.035535 522.476276 
C 130.64346 520.0842 127.398654 518.740157 124.015748 518.740157 
C 120.632842 518.740157 117.388036 520.0842 114.995961 522.476276 
C 112.603885 524.868351 111.259843 528.113157 111.259843 531.496063 
C 111.259843 534.878969 112.603885 538.123775 114.995961 540.51585 
C 117.388036 542.907926 120.632842 544.251969 124.015748 544.251969 
L 124.015748 544.251969 
z
" clip-path="url(#p49941a1e7a)" style="fill: none; stroke: #000000; stroke-linejoin: miter"/>
   </g>
   <g id="patch_130">
    <path d="M 168.307087 544.251969 
C 171.689992 544.251969 174.934798 542.907926 177.326874 540.51585 
C 179.718949 538.123775 181.062992 534.878969 181.062992 531.496063 
C 181.062992 528.113157 179.718949 524.868351 177.326874 522.476276 
C 174.934798 520.0842 171.689992 518.740157 168.307087 518.740157 
C 164.924181 518.740157 161.679375 520.0842 159.287299 522.476276 
C 156.895224 524.868351 155.551181 528.113157 155.551181 531.496063 
C 155.551181 534.878969 156.895224 538.123775 159.287299 540.51585 
C 161.679375 542.907926 164.924181 544.251969 168.307087 544.251969 
z
" clip-path="url(#p49941a1e7a)" style="fill: #b2b2b2; stroke: #000000; stroke-linejoin: miter"/>
   </g>
   <g id="patch_131">
    <path d="M 168.307087 544.251969 
C 171.689992 544.251969 174.934798 542.907926 177.326874 540.51585 
C 179.718949 538.123775 181.062992 534.878969 181.062992 531.496063 
C 181.062992 528.113157 179.718949 524.868351 177.326874 522.476276 
C 174.934798 520.0842 171.689992 518.740157 168.307087 518.740157 
C 164.924181 518.740157 161.679375 520.0842 159.287299 522.476276 
C 156.895224 524.868351 155.551181 528.113157 155.551181 531.496063 
C 155.551181 534.878969 156.895224 538.123775 159.287299 540.51585 
C 161.679375 542.907926 164.924181 544.251969 168.307087 544.251969 
L 168.307087 544.251969 
z
" clip-path="url(#p49941a1e7a)" style="fill: none; stroke: #000000; stroke-linejoin: miter"/>
   </g>
   <g id="patch_132">
    <path d="M 212.598425 544.251969 
C 215.981331 544.251969 219.226137 542.907926 221.618212 540.51585 
C 224.010288 538.123775 225.354331 534.878969 225.354331 531.496063 
C 225.354331 528.113157 224.010288 524.868351 221.618212 522.476276 
C 219.226137 520.0842 215.981331 518.740157 212.598425 518.740157 
C 209.21552 518.740157 205.970713 520.0842 203.578638 522.476276 
C 201.186562 524.868351 199.84252 528.113157 199.84252 531.496063 
C 199.84252 534.878969 201.186562 538.123775 203.578638 540.51585 
C 205.970713 542.907926 209.21552 544.251969 212.598425 544.251969 
z
" clip-path="url(#p49941a1e7a)" style="fill: #b2b2b2; stroke: #000000; stroke-linejoin: miter"/>
   </g>
   <g id="patch_133">
    <path d="M 212.598425 544.251969 
C 215.981331 544.251969 219.226137 542.907926 221.618212 540.51585 
C 224.010288 538.123775 225.354331 534.878969 225.354331 531.496063 
C 225.354331 528.113157 224.010288 524.868351 221.618212 522.476276 
C 219.226137 520.0842 215.981331 518.740157 212.598425 518.740157 
C 209.21552 518.740157 205.970713 520.0842 203.578638 522.476276 
C 201.186562 524.868351 199.84252 528.113157 199.84252 531.496063 
C 199.84252 534.878969 201.186562 538.123775 203.578638 540.51585 
C 205.970713 542.907926 209.21552 544.251969 212.598425 544.251969 
L 212.598425 544.251969 
z
" clip-path="url(#p49941a1e7a)" style="fill: none; stroke: #000000; stroke-linejoin: miter"/>
   </g>
   <g id="patch_134">
    <path d="M 256.889764 544.251969 
C 260.272669 544.251969 263.517476 542.907926 265.909551 540.51585 
C 268.301627 538.123775 269.645669 534.878969 269.645669 531.496063 
C 269.645669 528.113157 268.301627 524.868351 265.909551 522.476276 
C 263.517476 520.0842 260.272669 518.740157 256.889764 518.740157 
C 253.506858 518.740157 250.262052 520.0842 247.869976 522.476276 
C 245.477901 524.868351 244.133858 528.113157 244.133858 531.496063 
C 244.133858 534.878969 245.477901 538.123775 247.869976 540.51585 
C 250.262052 542.907926 253.506858 544.251969 256.889764 544.251969 
z
" clip-path="url(#p49941a1e7a)" style="fill: #b2b2b2; stroke: #000000; stroke-linejoin: miter"/>
   </g>
   <g id="patch_135">
    <path d="M 256.889764 544.251969 
C 260.272669 544.251969 263.517476 542.907926 265.909551 540.51585 
C 268.301627 538.123775 269.645669 534.878969 269.645669 531.496063 
C 269.645669 528.113157 268.301627 524.868351 265.909551 522.476276 
C 263.517476 520.0842 260.272669 518.740157 256.889764 518.740157 
C 253.506858 518.740157 250.262052 520.0842 247.869976 522.476276 
C 245.477901 524.868351 244.133858 528.113157 244.133858 531.496063 
C 244.133858 534.878969 245.477901 538.123775 247.869976 540.51585 
C 250.262052 542.907926 253.506858 544.251969 256.889764 544.251969 
L 256.889764 544.251969 
z
" clip-path="url(#p49941a1e7a)" style="fill: none; stroke: #000000; stroke-linejoin: miter"/>
   </g>
   <g id="patch_136">
    <path d="M 301.181102 544.251969 
C 304.564008 544.251969 307.808814 542.907926 310.20089 540.51585 
C 312.592965 538.123775 313.937008 534.878969 313.937008 531.496063 
C 313.937008 528.113157 312.592965 524.868351 310.20089 522.476276 
C 307.808814 520.0842 304.564008 518.740157 301.181102 518.740157 
C 297.798197 518.740157 294.553391 520.0842 292.161315 522.476276 
C 289.76924 524.868351 288.425197 528.113157 288.425197 531.496063 
C 288.425197 534.878969 289.76924 538.123775 292.161315 540.51585 
C 294.553391 542.907926 297.798197 544.251969 301.181102 544.251969 
z
" clip-path="url(#p49941a1e7a)" style="fill: #b2b2b2; stroke: #000000; stroke-linejoin: miter"/>
   </g>
   <g id="patch_137">
    <path d="M 301.181102 544.251969 
C 304.564008 544.251969 307.808814 542.907926 310.20089 540.51585 
C 312.592965 538.123775 313.937008 534.878969 313.937008 531.496063 
C 313.937008 528.113157 312.592965 524.868351 310.20089 522.476276 
C 307.808814 520.0842 304.564008 518.740157 301.181102 518.740157 
C 297.798197 518.740157 294.553391 520.0842 292.161315 522.476276 
C 289.76924 524.868351 288.425197 528.113157 288.425197 531.496063 
C 288.425197 534.878969 289.76924 538.123775 292.161315 540.51585 
C 294.553391 542.907926 297.798197 544.251969 301.181102 544.251969 
L 301.181102 544.251969 
z
" clip-path="url(#p49941a1e7a)" style="fill: none; stroke: #000000; stroke-linejoin: miter"/>
   </g>
   <g id="patch_138">
    <path d="M 35.433071 430.866142 
C 38.815977 430.866142 42.060783 429.522099 44.452858 427.130024 
C 46.844934 424.737948 48.188976 421.493142 48.188976 418.110236 
C 48.188976 414.727331 46.844934 411.482524 44.452858 409.090449 
C 42.060783 406.698373 38.815977 405.354331 35.433071 405.354331 
C 32.050165 405.354331 28.805359 406.698373 26.413284 409.090449 
C 24.021208 411.482524 22.677165 414.727331 22.677165 418.110236 
C 22.677165 421.493142 24.021208 424.737948 26.413284 427.130024 
C 28.805359 429.522099 32.050165 430.866142 35.433071 430.866142 
z
" clip-path="url(#p49941a1e7a)" style="fill: #ffffff; stroke: #000000; stroke-linejoin: miter"/>
   </g>
   <g id="patch_139">
    <path d="M 79.724409 430.866142 
C 83.107315 430.866142 86.352121 429.522099 88.744197 427.130024 
C 91.136272 424.737948 92.480315 421.493142 92.480315 418.110236 
C 92.480315 414.727331 91.136272 411.482524 88.744197 409.090449 
C 86.352121 406.698373 83.107315 405.354331 79.724409 405.354331 
C 76.341504 405.354331 73.096698 406.698373 70.704622 409.090449 
C 68.312547 411.482524 66.968504 414.727331 66.968504 418.110236 
C 66.968504 421.493142 68.312547 424.737948 70.704622 427.130024 
C 73.096698 429.522099 76.341504 430.866142 79.724409 430.866142 
z
" clip-path="url(#p49941a1e7a)" style="fill: #ffffff; stroke: #000000; stroke-linejoin: miter"/>
   </g>
   <g id="patch_140">
    <path d="M 124.015748 430.866142 
C 127.398654 430.866142 130.64346 429.522099 133.035535 427.130024 
C 135.427611 424.737948 136.771654 421.493142 136.771654 418.110236 
C 136.771654 414.727331 135.427611 411.482524 133.035535 409.090449 
C 130.64346 406.698373 127.398654 405.354331 124.015748 405.354331 
C 120.632842 405.354331 117.388036 406.698373 114.995961 409.090449 
C 112.603885 411.482524 111.259843 414.727331 111.259843 418.110236 
C 111.259843 421.493142 112.603885 424.737948 114.995961 427.130024 
C 117.388036 429.522099 120.632842 430.866142 124.015748 430.866142 
z
" clip-path="url(#p49941a1e7a)" style="fill: #ffffff; stroke: #000000; stroke-linejoin: miter"/>
   </g>
   <g id="patch_141">
    <path d="M 168.307087 430.866142 
C 171.689992 430.866142 174.934798 429.522099 177.326874 427.130024 
C 179.718949 424.737948 181.062992 421.493142 181.062992 418.110236 
C 181.062992 414.727331 179.718949 411.482524 177.326874 409.090449 
C 174.934798 406.698373 171.689992 405.354331 168.307087 405.354331 
C 164.924181 405.354331 161.679375 406.698373 159.287299 409.090449 
C 156.895224 411.482524 155.551181 414.727331 155.551181 418.110236 
C 155.551181 421.493142 156.895224 424.737948 159.287299 427.130024 
C 161.679375 429.522099 164.924181 430.866142 168.307087 430.866142 
z
" clip-path="url(#p49941a1e7a)" style="fill: #ffffff; stroke: #000000; stroke-linejoin: miter"/>
   </g>
   <g id="patch_142">
    <path d="M 212.598425 430.866142 
C 215.981331 430.866142 219.226137 429.522099 221.618212 427.130024 
C 224.010288 424.737948 225.354331 421.493142 225.354331 418.110236 
C 225.354331 414.727331 224.010288 411.482524 221.618212 409.090449 
C 219.226137 406.698373 215.981331 405.354331 212.598425 405.354331 
C 209.21552 405.354331 205.970713 406.698373 203.578638 409.090449 
C 201.186562 411.482524 199.84252 414.727331 199.84252 418.110236 
C 199.84252 421.493142 201.186562 424.737948 203.578638 427.130024 
C 205.970713 429.522099 209.21552 430.866142 212.598425 430.866142 
z
" clip-path="url(#p49941a1e7a)" style="fill: #ffffff; stroke: #000000; stroke-linejoin: miter"/>
   </g>
   <g id="patch_143">
    <path d="M 256.889764 430.866142 
C 260.272669 430.866142 263.517476 429.522099 265.909551 427.130024 
C 268.301627 424.737948 269.645669 421.493142 269.645669 418.110236 
C 269.645669 414.727331 268.301627 411.482524 265.909551 409.090449 
C 263.517476 406.698373 260.272669 405.354331 256.889764 405.354331 
C 253.506858 405.354331 250.262052 406.698373 247.869976 409.090449 
C 245.477901 411.482524 244.133858 414.727331 244.133858 418.110236 
C 244.133858 421.493142 245.477901 424.737948 247.869976 427.130024 
C 250.262052 429.522099 253.506858 430.866142 256.889764 430.866142 
z
" clip-path="url(#p49941a1e7a)" style="fill: #ffffff; stroke: #000000; stroke-linejoin: miter"/>
   </g>
   <g id="patch_144">
    <path d="M 301.181102 430.866142 
C 304.564008 430.866142 307.808814 429.522099 310.20089 427.130024 
C 312.592965 424.737948 313.937008 421.493142 313.937008 418.110236 
C 313.937008 414.727331 312.592965 411.482524 310.20089 409.090449 
C 307.808814 406.698373 304.564008 405.354331 301.181102 405.354331 
C 297.798197 405.354331 294.553391 406.698373 292.161315 409.090449 
C 289.76924 411.482524 288.425197 414.727331 288.425197 418.110236 
C 288.425197 421.493142 289.76924 424.737948 292.161315 427.130024 
C 294.553391 429.522099 297.798197 430.866142 301.181102 430.866142 
z
" clip-path="url(#p49941a1e7a)" style="fill: #ffffff; stroke: #000000; stroke-linejoin: miter"/>
   </g>
   <g id="patch_145">
    <path d="M 345.472441 430.866142 
C 348.855347 430.866142 352.100153 429.522099 354.492228 427.130024 
C 356.884304 424.737948 358.228346 421.493142 358.228346 418.110236 
C 358.228346 414.727331 356.884304 411.482524 354.492228 409.090449 
C 352.100153 406.698373 348.855347 405.354331 345.472441 405.354331 
C 342.089535 405.354331 338.844729 406.698373 336.452654 409.090449 
C 334.060578 411.482524 332.716535 414.727331 332.716535 418.110236 
C 332.716535 421.493142 334.060578 424.737948 336.452654 427.130024 
C 338.844729 429.522099 342.089535 430.866142 345.472441 430.866142 
z
" clip-path="url(#p49941a1e7a)" style="fill: #ffffff; stroke: #000000; stroke-linejoin: miter"/>
   </g>
   <g id="patch_146">
    <path d="M 79.724409 317.480315 
C 83.107315 317.480315 86.352121 316.136272 88.744197 313.744197 
C 91.136272 311.352121 92.480315 308.107315 92.480315 304.724409 
C 92.480315 301.341504 91.136272 298.096698 88.744197 295.704622 
C 86.352121 293.312547 83.107315 291.968504 79.724409 291.968504 
C 76.341504 291.968504 73.096698 293.312547 70.704622 295.704622 
C 68.312547 298.096698 66.968504 301.341504 66.968504 304.724409 
C 66.968504 308.107315 68.312547 311.352121 70.704622 313.744197 
C 73.096698 316.136272 76.341504 317.480315 79.724409 317.480315 
z
" clip-path="url(#p49941a1e7a)" style="fill: #ffffff; stroke: #000000; stroke-linejoin: miter"/>
   </g>
   <g id="patch_147">
    <path d="M 124.015748 317.480315 
C 127.398654 317.480315 130.64346 316.136272 133.035535 313.744197 
C 135.427611 311.352121 136.771654 308.107315 136.771654 304.724409 
C 136.771654 301.341504 135.427611 298.096698 133.035535 295.704622 
C 130.64346 293.312547 127.398654 291.968504 124.015748 291.968504 
C 120.632842 291.968504 117.388036 293.312547 114.995961 295.704622 
C 112.603885 298.096698 111.259843 301.341504 111.259843 304.724409 
C 111.259843 308.107315 112.603885 311.352121 114.995961 313.744197 
C 117.388036 316.136272 120.632842 317.480315 124.015748 317.480315 
z
" clip-path="url(#p49941a1e7a)" style="fill: #ffffff; stroke: #000000; stroke-linejoin: miter"/>
   </g>
   <g id="patch_148">
    <path d="M 168.307087 317.480315 
C 171.689992 317.480315 174.934798 316.136272 177.326874 313.744197 
C 179.718949 311.352121 181.062992 308.107315 181.062992 304.724409 
C 181.062992 301.341504 179.718949 298.096698 177.326874 295.704622 
C 174.934798 293.312547 171.689992 291.968504 168.307087 291.968504 
C 164.924181 291.968504 161.679375 293.312547 159.287299 295.704622 
C 156.895224 298.096698 155.551181 301.341504 155.551181 304.724409 
C 155.551181 308.107315 156.895224 311.352121 159.287299 313.744197 
C 161.679375 316.136272 164.924181 317.480315 168.307087 317.480315 
z
" clip-path="url(#p49941a1e7a)" style="fill: #ffffff; stroke: #000000; stroke-linejoin: miter"/>
   </g>
   <g id="patch_149">
    <path d="M 212.598425 317.480315 
C 215.981331 317.480315 219.226137 316.136272 221.618212 313.744197 
C 224.010288 311.352121 225.354331 308.107315 225.354331 304.724409 
C 225.354331 301.341504 224.010288 298.096698 221.618212 295.704622 
C 219.226137 293.312547 215.981331 291.968504 212.598425 291.968504 
C 209.21552 291.968504 205.970713 293.312547 203.578638 295.704622 
C 201.186562 298.096698 199.84252 301.341504 199.84252 304.724409 
C 199.84252 308.107315 201.186562 311.352121 203.578638 313.744197 
C 205.970713 316.136272 209.21552 317.480315 212.598425 317.480315 
z
" clip-path="url(#p49941a1e7a)" style="fill: #ffffff; stroke: #000000; stroke-linejoin: miter"/>
   </g>
   <g id="patch_150">
    <path d="M 256.889764 317.480315 
C 260.272669 317.480315 263.517476 316.136272 265.909551 313.744197 
C 268.301627 311.352121 269.645669 308.107315 269.645669 304.724409 
C 269.645669 301.341504 268.301627 298.096698 265.909551 295.704622 
C 263.517476 293.312547 260.272669 291.968504 256.889764 291.968504 
C 253.506858 291.968504 250.262052 293.312547 247.869976 295.704622 
C 245.477901 298.096698 244.133858 301.341504 244.133858 304.724409 
C 244.133858 308.107315 245.477901 311.352121 247.869976 313.744197 
C 250.262052 316.136272 253.506858 317.480315 256.889764 317.480315 
z
" clip-path="url(#p49941a1e7a)" style="fill: #ffffff; stroke: #000000; stroke-linejoin: miter"/>
   </g>
   <g id="patch_151">
    <path d="M 301.181102 317.480315 
C 304.564008 317.480315 307.808814 316.136272 310.20089 313.744197 
C 312.592965 311.352121 313.937008 308.107315 313.937008 304.724409 
C 313.937008 301.341504 312.592965 298.096698 310.20089 295.704622 
C 307.808814 293.312547 304.564008 291.968504 301.181102 291.968504 
C 297.798197 291.968504 294.553391 293.312547 292.161315 295.704622 
C 289.76924 298.096698 288.425197 301.341504 288.425197 304.724409 
C 288.425197 308.107315 289.76924 311.352121 292.161315 313.744197 
C 294.553391 316.136272 297.798197 317.480315 301.181102 317.480315 
z
" clip-path="url(#p49941a1e7a)" style="fill: #ffffff; stroke: #000000; stroke-linejoin: miter"/>
   </g>
   <g id="patch_152">
    <path d="M 124.015748 204.094488 
C 127.398654 204.094488 130.64346 202.750446 133.035535 200.35837 
C 135.427611 197.966294 136.771654 194.721488 136.771654 191.338583 
C 136.771654 187.955677 135.427611 184.710871 133.035535 182.318795 
C 130.64346 179.92672 127.398654 178.582677 124.015748 178.582677 
C 120.632842 178.582677 117.388036 179.92672 114.995961 182.318795 
C 112.603885 184.710871 111.259843 187.955677 111.259843 191.338583 
C 111.259843 194.721488 112.603885 197.966294 114.995961 200.35837 
C 117.388036 202.750446 120.632842 204.094488 124.015748 204.094488 
z
" clip-path="url(#p49941a1e7a)" style="fill: #ffffff; stroke: #000000; stroke-linejoin: miter"/>
   </g>
   <g id="patch_153">
    <path d="M 168.307087 204.094488 
C 171.689992 204.094488 174.934798 202.750446 177.326874 200.35837 
C 179.718949 197.966294 181.062992 194.721488 181.062992 191.338583 
C 181.062992 187.955677 179.718949 184.710871 177.326874 182.318795 
C 174.934798 179.92672 171.689992 178.582677 168.307087 178.582677 
C 164.924181 178.582677 161.679375 179.92672 159.287299 182.318795 
C 156.895224 184.710871 155.551181 187.955677 155.551181 191.338583 
C 155.551181 194.721488 156.895224 197.966294 159.287299 200.35837 
C 161.679375 202.750446 164.924181 204.094488 168.307087 204.094488 
z
" clip-path="url(#p49941a1e7a)" style="fill: #ffffff; stroke: #000000; stroke-linejoin: miter"/>
   </g>
   <g id="patch_154">
    <path d="M 212.598425 204.094488 
C 215.981331 204.094488 219.226137 202.750446 221.618212 200.35837 
C 224.010288 197.966294 225.354331 194.721488 225.354331 191.338583 
C 225.354331 187.955677 224.010288 184.710871 221.618212 182.318795 
C 219.226137 179.92672 215.981331 178.582677 212.598425 178.582677 
C 209.21552 178.582677 205.970713 179.92672 203.578638 182.318795 
C 201.186562 184.710871 199.84252 187.955677 199.84252 191.338583 
C 199.84252 194.721488 201.186562 197.966294 203.578638 200.35837 
C 205.970713 202.750446 209.21552 204.094488 212.598425 204.094488 
z
" clip-path="url(#p49941a1e7a)" style="fill: #ffffff; stroke: #000000; stroke-linejoin: miter"/>
   </g>
   <g id="patch_155">
    <path d="M 256.889764 204.094488 
C 260.272669 204.094488 263.517476 202.750446 265.909551 200.35837 
C 268.301627 197.966294 269.645669 194.721488 269.645669 191.338583 
C 269.645669 187.955677 268.301627 184.710871 265.909551 182.318795 
C 263.517476 179.92672 260.272669 178.582677 256.889764 178.582677 
C 253.506858 178.582677 250.262052 179.92672 247.869976 182.318795 
C 245.477901 184.710871 244.133858 187.955677 244.133858 191.338583 
C 244.133858 194.721488 245.477901 197.966294 247.869976 200.35837 
C 250.262052 202.750446 253.506858 204.094488 256.889764 204.094488 
z
" clip-path="url(#p49941a1e7a)" style="fill: #ffffff; stroke: #000000; stroke-linejoin: miter"/>
   </g>
   <g id="patch_156">
    <path d="M 190.452756 90.708661 
C 193.835662 90.708661 197.080468 89.364619 199.472543 86.972543 
C 201.864619 84.580468 203.208661 81.335662 203.208661 77.952756 
C 203.208661 74.56985 201.864619 71.325044 199.472543 68.932969 
C 197.080468 66.540893 193.835662 65.19685 190.452756 65.19685 
C 187.06985 65.19685 183.825044 66.540893 181.432969 68.932969 
C 179.040893 71.325044 177.69685 74.56985 177.69685 77.952756 
C 177.69685 81.335662 179.040893 84.580468 181.432969 86.972543 
C 183.825044 89.364619 187.06985 90.708661 190.452756 90.708661 
z
" clip-path="url(#p49941a1e7a)" style="fill: #b2b2b2; stroke: #000000; stroke-linejoin: miter"/>
   </g>
   <g id="patch_157">
    <path d="M 190.452756 90.708661 
C 193.835662 90.708661 197.080468 89.364619 199.472543 86.972543 
C 201.864619 84.580468 203.208661 81.335662 203.208661 77.952756 
C 203.208661 74.56985 201.864619 71.325044 199.472543 68.932969 
C 197.080468 66.540893 193.835662 65.19685 190.452756 65.19685 
C 187.06985 65.19685 183.825044 66.540893 181.432969 68.932969 
C 179.040893 71.325044 177.69685 74.56985 177.69685 77.952756 
C 177.69685 81.335662 179.040893 84.580468 181.432969 86.972543 
C 183.825044 89.364619 187.06985 90.708661 190.452756 90.708661 
L 190.452756 90.708661 
z
" clip-path="url(#p49941a1e7a)" style="fill: none; stroke: #000000; stroke-linejoin: miter"/>
   </g>
   <g id="matplotlib.axis_1"/>
   <g id="matplotlib.axis_2"/>
   <g id="text_1">
    <!-- $x_1$ -->
    <g transform="translate(69.871017 536.974816) scale(0.22 -0.22)">
     <defs>
      <path id="CMMI12-78" d="M 3034 2606 
C 2829 2567 2752 2414 2752 2293 
C 2752 2139 2874 2088 2963 2088 
C 3155 2088 3290 2254 3290 2427 
C 3290 2695 2982 2816 2714 2816 
C 2323 2816 2106 2433 2048 2312 
C 1901 2816 1504 2816 1389 2816 
C 736 2816 390 1980 390 1839 
C 390 1814 416 1782 461 1782 
C 512 1782 525 1820 538 1846 
C 755 2555 1184 2689 1370 2689 
C 1658 2689 1715 2420 1715 2267 
C 1715 2127 1677 1980 1600 1673 
L 1382 798 
C 1286 415 1101 64 762 64 
C 730 64 570 64 435 147 
C 666 192 717 383 717 460 
C 717 588 621 664 499 664 
C 346 664 179 530 179 326 
C 179 57 480 -64 755 -64 
C 1062 -64 1280 179 1414 441 
C 1517 64 1837 -64 2074 -64 
C 2726 -64 3072 773 3072 913 
C 3072 945 3046 971 3008 971 
C 2950 971 2944 939 2925 888 
C 2752 326 2381 64 2093 64 
C 1869 64 1747 230 1747 492 
C 1747 632 1773 734 1875 1156 
L 2099 2024 
C 2195 2408 2413 2689 2707 2689 
C 2720 2689 2899 2689 3034 2606 
z
" transform="scale(0.015625)"/>
      <path id="CMR17-31" d="M 1702 4058 
C 1702 4192 1696 4192 1606 4192 
C 1357 3916 979 3827 621 3827 
C 602 3827 570 3827 563 3808 
C 557 3795 557 3782 557 3648 
C 755 3648 1088 3686 1344 3839 
L 1344 461 
C 1344 236 1331 160 781 160 
L 589 160 
L 589 0 
C 896 0 1216 0 1523 0 
C 1830 0 2150 0 2458 0 
L 2458 160 
L 2266 160 
C 1715 160 1702 230 1702 458 
L 1702 4058 
z
" transform="scale(0.015625)"/>
     </defs>
     <use xlink:href="#CMMI12-78" transform="scale(0.996264)"/>
     <use xlink:href="#CMR17-31" transform="translate(55.43406 -14.943915) scale(0.697382)"/>
    </g>
   </g>
   <g id="text_2">
    <!-- $x_2$ -->
    <g transform="translate(114.162356 536.974816) scale(0.22 -0.22)">
     <defs>
      <path id="CMR17-32" d="M 2669 989 
L 2554 989 
C 2490 536 2438 459 2413 420 
C 2381 369 1920 369 1830 369 
L 602 369 
C 832 619 1280 1072 1824 1597 
C 2214 1967 2669 2402 2669 3035 
C 2669 3790 2067 4224 1395 4224 
C 691 4224 262 3604 262 3030 
C 262 2780 448 2748 525 2748 
C 589 2748 781 2787 781 3010 
C 781 3207 614 3264 525 3264 
C 486 3264 448 3258 422 3245 
C 544 3790 915 4058 1306 4058 
C 1862 4058 2227 3617 2227 3035 
C 2227 2479 1901 2000 1536 1584 
L 262 146 
L 262 0 
L 2515 0 
L 2669 989 
z
" transform="scale(0.015625)"/>
     </defs>
     <use xlink:href="#CMMI12-78" transform="scale(0.996264)"/>
     <use xlink:href="#CMR17-32" transform="translate(55.43406 -14.943915) scale(0.697382)"/>
    </g>
   </g>
   <g id="text_3">
    <!-- $x_3$ -->
    <g transform="translate(158.453694 536.974816) scale(0.22 -0.22)">
     <defs>
      <path id="CMR17-33" d="M 1414 2157 
C 1984 2157 2234 1662 2234 1090 
C 2234 320 1824 25 1453 25 
C 1114 25 563 194 390 693 
C 422 680 454 680 486 680 
C 640 680 755 782 755 948 
C 755 1133 614 1216 486 1216 
C 378 1216 211 1165 211 926 
C 211 335 787 -128 1466 -128 
C 2176 -128 2720 430 2720 1085 
C 2720 1707 2208 2157 1600 2227 
C 2086 2328 2554 2756 2554 3329 
C 2554 3820 2048 4179 1472 4179 
C 890 4179 378 3829 378 3329 
C 378 3110 544 3072 627 3072 
C 762 3072 877 3155 877 3321 
C 877 3486 762 3569 627 3569 
C 602 3569 570 3569 544 3557 
C 730 3959 1235 4032 1459 4032 
C 1683 4032 2106 3925 2106 3320 
C 2106 3143 2080 2828 1862 2550 
C 1670 2304 1453 2304 1242 2284 
C 1210 2284 1062 2269 1037 2269 
C 992 2263 966 2257 966 2208 
C 966 2163 973 2157 1101 2157 
L 1414 2157 
z
" transform="scale(0.015625)"/>
     </defs>
     <use xlink:href="#CMMI12-78" transform="scale(0.996264)"/>
     <use xlink:href="#CMR17-33" transform="translate(55.43406 -14.943915) scale(0.697382)"/>
    </g>
   </g>
   <g id="text_4">
    <!-- $x_4$ -->
    <g transform="translate(202.745033 536.974816) scale(0.22 -0.22)">
     <defs>
      <path id="CMR17-34" d="M 2150 4122 
C 2150 4256 2144 4256 2029 4256 
L 128 1254 
L 128 1088 
L 1779 1088 
L 1779 457 
C 1779 224 1766 160 1318 160 
L 1197 160 
L 1197 0 
C 1402 0 1747 0 1965 0 
C 2182 0 2528 0 2733 0 
L 2733 160 
L 2611 160 
C 2163 160 2150 224 2150 457 
L 2150 1088 
L 2803 1088 
L 2803 1254 
L 2150 1254 
L 2150 4122 
z
M 1798 3703 
L 1798 1254 
L 256 1254 
L 1798 3703 
z
" transform="scale(0.015625)"/>
     </defs>
     <use xlink:href="#CMMI12-78" transform="scale(0.996264)"/>
     <use xlink:href="#CMR17-34" transform="translate(55.43406 -14.943915) scale(0.697382)"/>
    </g>
   </g>
   <g id="text_5">
    <!-- $x_5$ -->
    <g transform="translate(247.036371 536.974816) scale(0.22 -0.22)">
     <defs>
      <path id="CMR17-35" d="M 730 3692 
C 794 3666 1056 3584 1325 3584 
C 1920 3584 2246 3911 2432 4100 
C 2432 4157 2432 4192 2394 4192 
C 2387 4192 2374 4192 2323 4163 
C 2099 4058 1837 3973 1517 3973 
C 1325 3973 1037 3999 723 4139 
C 653 4171 640 4171 634 4171 
C 602 4171 595 4164 595 4037 
L 595 2203 
C 595 2089 595 2057 659 2057 
C 691 2057 704 2070 736 2114 
C 941 2401 1222 2522 1542 2522 
C 1766 2522 2246 2382 2246 1289 
C 2246 1085 2246 715 2054 421 
C 1894 159 1645 25 1370 25 
C 947 25 518 320 403 814 
C 429 807 480 795 506 795 
C 589 795 749 840 749 1038 
C 749 1210 627 1280 506 1280 
C 358 1280 262 1190 262 1011 
C 262 454 704 -128 1382 -128 
C 2042 -128 2669 440 2669 1264 
C 2669 2030 2170 2624 1549 2624 
C 1222 2624 947 2503 730 2274 
L 730 3692 
z
" transform="scale(0.015625)"/>
     </defs>
     <use xlink:href="#CMMI12-78" transform="scale(0.996264)"/>
     <use xlink:href="#CMR17-35" transform="translate(55.43406 -14.943915) scale(0.697382)"/>
    </g>
   </g>
   <g id="text_6">
    <!-- $x_6$ -->
    <g transform="translate(291.32771 536.974816) scale(0.22 -0.22)">
     <defs>
      <path id="CMR17-36" d="M 678 2176 
C 678 3690 1395 4032 1811 4032 
C 1946 4032 2272 4009 2400 3776 
C 2298 3776 2106 3776 2106 3553 
C 2106 3381 2246 3323 2336 3323 
C 2394 3323 2566 3348 2566 3560 
C 2566 3954 2246 4179 1805 4179 
C 1043 4179 243 3390 243 1984 
C 243 253 966 -128 1478 -128 
C 2099 -128 2688 427 2688 1283 
C 2688 2081 2170 2662 1517 2662 
C 1126 2662 838 2407 678 1960 
L 678 2176 
z
M 1478 25 
C 691 25 691 1200 691 1436 
C 691 1896 909 2560 1504 2560 
C 1613 2560 1926 2560 2138 2120 
C 2253 1870 2253 1609 2253 1289 
C 2253 944 2253 690 2118 434 
C 1978 171 1773 25 1478 25 
z
" transform="scale(0.015625)"/>
     </defs>
     <use xlink:href="#CMMI12-78" transform="scale(0.996264)"/>
     <use xlink:href="#CMR17-36" transform="translate(55.43406 -14.943915) scale(0.697382)"/>
    </g>
   </g>
   <g id="text_7">
    <!-- $h_{1, 1}$ -->
    <g transform="translate(19.658303 422.585132) scale(0.22 -0.22)">
     <defs>
      <path id="CMMI12-68" d="M 1798 4257 
C 1805 4283 1818 4321 1818 4352 
C 1818 4416 1754 4416 1741 4416 
C 1734 4416 1421 4388 1389 4380 
C 1280 4373 1184 4358 1069 4358 
C 909 4345 864 4339 864 4224 
C 864 4160 915 4160 1005 4160 
C 1318 4160 1325 4103 1325 4040 
C 1325 4002 1312 3951 1306 3932 
L 378 248 
C 352 152 352 140 352 101 
C 352 -38 461 -64 525 -64 
C 634 -64 717 19 749 89 
L 1037 1245 
C 1069 1386 1107 1520 1139 1660 
C 1210 1929 1210 1935 1331 2120 
C 1453 2305 1741 2689 2234 2689 
C 2490 2689 2579 2497 2579 2242 
C 2579 1884 2330 1188 2189 805 
C 2131 651 2099 568 2099 453 
C 2099 166 2298 -64 2605 -64 
C 3200 -64 3424 875 3424 913 
C 3424 945 3398 971 3360 971 
C 3302 971 3296 952 3264 843 
C 3117 332 2880 64 2624 64 
C 2560 64 2458 64 2458 269 
C 2458 436 2534 640 2560 710 
C 2675 1018 2963 1773 2963 2145 
C 2963 2528 2739 2816 2253 2816 
C 1888 2816 1568 2644 1306 2312 
L 1798 4257 
z
" transform="scale(0.015625)"/>
      <path id="CMMI12-3b" d="M 1248 -31 
C 1248 343 1126 619 864 619 
C 659 619 557 453 557 313 
C 557 172 653 0 870 0 
C 954 0 1024 26 1082 83 
C 1094 96 1101 96 1107 96 
C 1120 96 1120 5 1120 -27 
C 1120 -240 1082 -659 710 -1080 
C 640 -1157 640 -1170 640 -1183 
C 640 -1216 672 -1248 704 -1248 
C 755 -1248 1248 -771 1248 -31 
z
" transform="scale(0.015625)"/>
     </defs>
     <use xlink:href="#CMMI12-68" transform="scale(0.996264)"/>
     <use xlink:href="#CMR17-31" transform="translate(56.154624 -14.943915) scale(0.697382)"/>
     <use xlink:href="#CMMI12-3b" transform="translate(88.137806 -14.943915) scale(0.697382)"/>
     <use xlink:href="#CMR17-31" transform="translate(107.105739 -14.943915) scale(0.697382)"/>
    </g>
   </g>
   <g id="text_8">
    <!-- $h_{1, 2}$ -->
    <g transform="translate(63.949641 422.585132) scale(0.22 -0.22)">
     <use xlink:href="#CMMI12-68" transform="scale(0.996264)"/>
     <use xlink:href="#CMR17-31" transform="translate(56.154624 -14.943915) scale(0.697382)"/>
     <use xlink:href="#CMMI12-3b" transform="translate(88.137806 -14.943915) scale(0.697382)"/>
     <use xlink:href="#CMR17-32" transform="translate(107.105739 -14.943915) scale(0.697382)"/>
    </g>
   </g>
   <g id="text_9">
    <!-- $h_{1, 3}$ -->
    <g transform="translate(108.24098 422.585132) scale(0.22 -0.22)">
     <use xlink:href="#CMMI12-68" transform="scale(0.996264)"/>
     <use xlink:href="#CMR17-31" transform="translate(56.154624 -14.943915) scale(0.697382)"/>
     <use xlink:href="#CMMI12-3b" transform="translate(88.137806 -14.943915) scale(0.697382)"/>
     <use xlink:href="#CMR17-33" transform="translate(107.105739 -14.943915) scale(0.697382)"/>
    </g>
   </g>
   <g id="text_10">
    <!-- $h_{1, 4}$ -->
    <g transform="translate(152.532319 422.585132) scale(0.22 -0.22)">
     <use xlink:href="#CMMI12-68" transform="scale(0.996264)"/>
     <use xlink:href="#CMR17-31" transform="translate(56.154624 -14.943915) scale(0.697382)"/>
     <use xlink:href="#CMMI12-3b" transform="translate(88.137806 -14.943915) scale(0.697382)"/>
     <use xlink:href="#CMR17-34" transform="translate(107.105739 -14.943915) scale(0.697382)"/>
    </g>
   </g>
   <g id="text_11">
    <!-- $h_{1, 5}$ -->
    <g transform="translate(196.823657 422.585132) scale(0.22 -0.22)">
     <use xlink:href="#CMMI12-68" transform="scale(0.996264)"/>
     <use xlink:href="#CMR17-31" transform="translate(56.154624 -14.943915) scale(0.697382)"/>
     <use xlink:href="#CMMI12-3b" transform="translate(88.137806 -14.943915) scale(0.697382)"/>
     <use xlink:href="#CMR17-35" transform="translate(107.105739 -14.943915) scale(0.697382)"/>
    </g>
   </g>
   <g id="text_12">
    <!-- $h_{1, 6}$ -->
    <g transform="translate(241.114996 422.585132) scale(0.22 -0.22)">
     <use xlink:href="#CMMI12-68" transform="scale(0.996264)"/>
     <use xlink:href="#CMR17-31" transform="translate(56.154624 -14.943915) scale(0.697382)"/>
     <use xlink:href="#CMMI12-3b" transform="translate(88.137806 -14.943915) scale(0.697382)"/>
     <use xlink:href="#CMR17-36" transform="translate(107.105739 -14.943915) scale(0.697382)"/>
    </g>
   </g>
   <g id="text_13">
    <!-- $h_{1, 7}$ -->
    <g transform="translate(285.406334 422.585132) scale(0.22 -0.22)">
     <defs>
      <path id="CMR17-37" d="M 2886 3941 
L 2886 4081 
L 1382 4081 
C 634 4081 621 4165 595 4288 
L 480 4288 
L 294 3094 
L 410 3094 
C 429 3215 474 3540 550 3661 
C 589 3712 1062 3712 1171 3712 
L 2579 3712 
L 1869 2661 
C 1395 1954 1069 999 1069 165 
C 1069 89 1069 -128 1299 -128 
C 1530 -128 1530 89 1530 171 
L 1530 465 
C 1530 1508 1709 2196 2003 2636 
L 2886 3941 
z
" transform="scale(0.015625)"/>
     </defs>
     <use xlink:href="#CMMI12-68" transform="scale(0.996264)"/>
     <use xlink:href="#CMR17-31" transform="translate(56.154624 -14.943915) scale(0.697382)"/>
     <use xlink:href="#CMMI12-3b" transform="translate(88.137806 -14.943915) scale(0.697382)"/>
     <use xlink:href="#CMR17-37" transform="translate(107.105739 -14.943915) scale(0.697382)"/>
    </g>
   </g>
   <g id="text_14">
    <!-- $h_{1, 8}$ -->
    <g transform="translate(329.697673 422.585132) scale(0.22 -0.22)">
     <defs>
      <path id="CMR17-38" d="M 1741 2264 
C 2144 2467 2554 2773 2554 3263 
C 2554 3841 1990 4179 1472 4179 
C 890 4179 378 3759 378 3180 
C 378 3021 416 2747 666 2505 
C 730 2442 998 2251 1171 2130 
C 883 1983 211 1634 211 934 
C 211 279 838 -128 1459 -128 
C 2144 -128 2720 362 2720 1010 
C 2720 1590 2330 1857 2074 2029 
L 1741 2264 
z
M 902 2822 
C 851 2854 595 3051 595 3351 
C 595 3739 998 4032 1459 4032 
C 1965 4032 2336 3676 2336 3262 
C 2336 2669 1670 2331 1638 2331 
C 1632 2331 1626 2331 1574 2370 
L 902 2822 
z
M 2080 1519 
C 2176 1449 2483 1240 2483 851 
C 2483 381 2010 25 1472 25 
C 890 25 448 438 448 940 
C 448 1443 838 1862 1280 2060 
L 2080 1519 
z
" transform="scale(0.015625)"/>
     </defs>
     <use xlink:href="#CMMI12-68" transform="scale(0.996264)"/>
     <use xlink:href="#CMR17-31" transform="translate(56.154624 -14.943915) scale(0.697382)"/>
     <use xlink:href="#CMMI12-3b" transform="translate(88.137806 -14.943915) scale(0.697382)"/>
     <use xlink:href="#CMR17-38" transform="translate(107.105739 -14.943915) scale(0.697382)"/>
    </g>
   </g>
   <g id="text_15">
    <!-- $h_{2, 1}$ -->
    <g transform="translate(63.949641 309.199305) scale(0.22 -0.22)">
     <use xlink:href="#CMMI12-68" transform="scale(0.996264)"/>
     <use xlink:href="#CMR17-32" transform="translate(56.154624 -14.943915) scale(0.697382)"/>
     <use xlink:href="#CMMI12-3b" transform="translate(88.137806 -14.943915) scale(0.697382)"/>
     <use xlink:href="#CMR17-31" transform="translate(107.105739 -14.943915) scale(0.697382)"/>
    </g>
   </g>
   <g id="text_16">
    <!-- $h_{2, 2}$ -->
    <g transform="translate(108.24098 309.199305) scale(0.22 -0.22)">
     <use xlink:href="#CMMI12-68" transform="scale(0.996264)"/>
     <use xlink:href="#CMR17-32" transform="translate(56.154624 -14.943915) scale(0.697382)"/>
     <use xlink:href="#CMMI12-3b" transform="translate(88.137806 -14.943915) scale(0.697382)"/>
     <use xlink:href="#CMR17-32" transform="translate(107.105739 -14.943915) scale(0.697382)"/>
    </g>
   </g>
   <g id="text_17">
    <!-- $h_{2, 3}$ -->
    <g transform="translate(152.532319 309.199305) scale(0.22 -0.22)">
     <use xlink:href="#CMMI12-68" transform="scale(0.996264)"/>
     <use xlink:href="#CMR17-32" transform="translate(56.154624 -14.943915) scale(0.697382)"/>
     <use xlink:href="#CMMI12-3b" transform="translate(88.137806 -14.943915) scale(0.697382)"/>
     <use xlink:href="#CMR17-33" transform="translate(107.105739 -14.943915) scale(0.697382)"/>
    </g>
   </g>
   <g id="text_18">
    <!-- $h_{2, 4}$ -->
    <g transform="translate(196.823657 309.199305) scale(0.22 -0.22)">
     <use xlink:href="#CMMI12-68" transform="scale(0.996264)"/>
     <use xlink:href="#CMR17-32" transform="translate(56.154624 -14.943915) scale(0.697382)"/>
     <use xlink:href="#CMMI12-3b" transform="translate(88.137806 -14.943915) scale(0.697382)"/>
     <use xlink:href="#CMR17-34" transform="translate(107.105739 -14.943915) scale(0.697382)"/>
    </g>
   </g>
   <g id="text_19">
    <!-- $h_{2, 5}$ -->
    <g transform="translate(241.114996 309.199305) scale(0.22 -0.22)">
     <use xlink:href="#CMMI12-68" transform="scale(0.996264)"/>
     <use xlink:href="#CMR17-32" transform="translate(56.154624 -14.943915) scale(0.697382)"/>
     <use xlink:href="#CMMI12-3b" transform="translate(88.137806 -14.943915) scale(0.697382)"/>
     <use xlink:href="#CMR17-35" transform="translate(107.105739 -14.943915) scale(0.697382)"/>
    </g>
   </g>
   <g id="text_20">
    <!-- $h_{2, 6}$ -->
    <g transform="translate(285.406334 309.199305) scale(0.22 -0.22)">
     <use xlink:href="#CMMI12-68" transform="scale(0.996264)"/>
     <use xlink:href="#CMR17-32" transform="translate(56.154624 -14.943915) scale(0.697382)"/>
     <use xlink:href="#CMMI12-3b" transform="translate(88.137806 -14.943915) scale(0.697382)"/>
     <use xlink:href="#CMR17-36" transform="translate(107.105739 -14.943915) scale(0.697382)"/>
    </g>
   </g>
   <g id="text_21">
    <!-- $h_{3, 1}$ -->
    <g transform="translate(108.24098 195.813478) scale(0.22 -0.22)">
     <use xlink:href="#CMMI12-68" transform="scale(0.996264)"/>
     <use xlink:href="#CMR17-33" transform="translate(56.154624 -14.943915) scale(0.697382)"/>
     <use xlink:href="#CMMI12-3b" transform="translate(88.137806 -14.943915) scale(0.697382)"/>
     <use xlink:href="#CMR17-31" transform="translate(107.105739 -14.943915) scale(0.697382)"/>
    </g>
   </g>
   <g id="text_22">
    <!-- $h_{3, 2}$ -->
    <g transform="translate(152.532319 195.813478) scale(0.22 -0.22)">
     <use xlink:href="#CMMI12-68" transform="scale(0.996264)"/>
     <use xlink:href="#CMR17-33" transform="translate(56.154624 -14.943915) scale(0.697382)"/>
     <use xlink:href="#CMMI12-3b" transform="translate(88.137806 -14.943915) scale(0.697382)"/>
     <use xlink:href="#CMR17-32" transform="translate(107.105739 -14.943915) scale(0.697382)"/>
    </g>
   </g>
   <g id="text_23">
    <!-- $h_{3, 3}$ -->
    <g transform="translate(196.823657 195.813478) scale(0.22 -0.22)">
     <use xlink:href="#CMMI12-68" transform="scale(0.996264)"/>
     <use xlink:href="#CMR17-33" transform="translate(56.154624 -14.943915) scale(0.697382)"/>
     <use xlink:href="#CMMI12-3b" transform="translate(88.137806 -14.943915) scale(0.697382)"/>
     <use xlink:href="#CMR17-33" transform="translate(107.105739 -14.943915) scale(0.697382)"/>
    </g>
   </g>
   <g id="text_24">
    <!-- $h_{3, 4}$ -->
    <g transform="translate(241.114996 195.813478) scale(0.22 -0.22)">
     <use xlink:href="#CMMI12-68" transform="scale(0.996264)"/>
     <use xlink:href="#CMR17-33" transform="translate(56.154624 -14.943915) scale(0.697382)"/>
     <use xlink:href="#CMMI12-3b" transform="translate(88.137806 -14.943915) scale(0.697382)"/>
     <use xlink:href="#CMR17-34" transform="translate(107.105739 -14.943915) scale(0.697382)"/>
    </g>
   </g>
   <g id="text_25">
    <!-- $y$ -->
    <g transform="translate(185.220698 83.431509) scale(0.22 -0.22)">
     <defs>
      <path id="CMMI12-79" d="M 1683 -700 
C 1510 -939 1261 -1152 947 -1152 
C 870 -1152 563 -1152 467 -889 
C 486 -895 518 -895 531 -895 
C 723 -895 851 -729 851 -582 
C 851 -435 730 -384 634 -384 
C 531 -384 307 -458 307 -759 
C 307 -1071 582 -1286 947 -1286 
C 1587 -1286 2234 -700 2413 6 
L 3040 2485 
C 3046 2517 3059 2556 3059 2594 
C 3059 2689 2982 2753 2886 2753 
C 2829 2753 2694 2727 2643 2535 
L 2170 658 
C 2138 543 2138 530 2086 460 
C 1958 281 1747 64 1440 64 
C 1082 64 1050 415 1050 588 
C 1050 952 1222 1443 1395 1903 
C 1466 2088 1504 2178 1504 2305 
C 1504 2574 1312 2816 998 2816 
C 410 2816 173 1890 173 1839 
C 173 1814 198 1782 243 1782 
C 301 1782 307 1807 333 1897 
C 486 2433 730 2689 979 2689 
C 1037 2689 1146 2689 1146 2478 
C 1146 2312 1075 2127 979 1884 
C 666 1047 666 837 666 683 
C 666 77 1101 -64 1421 -64 
C 1606 -64 1837 -6 2061 230 
L 2067 224 
C 1971 -147 1907 -392 1683 -700 
z
" transform="scale(0.015625)"/>
     </defs>
     <use xlink:href="#CMMI12-79" transform="scale(0.996264)"/>
    </g>
   </g>
   <g id="text_26">
    <!-- given $\mathbf{x}$ -->
    <g transform="translate(395.971804 536.476745) scale(0.2 -0.2)">
     <defs>
      <path id="CMSS17-67" d="M 2848 2808 
C 2483 2808 2170 2738 1914 2617 
C 1702 2777 1485 2808 1338 2808 
C 781 2808 358 2349 358 1814 
C 358 1468 550 1207 563 1195 
C 448 1035 384 863 384 672 
C 384 448 474 289 544 200 
C 211 -3 166 -314 166 -435 
C 166 -898 749 -1280 1498 -1280 
C 2253 -1280 2835 -898 2835 -428 
C 2835 448 1856 448 1587 448 
L 1069 448 
C 973 448 717 448 717 791 
C 717 921 774 1004 781 1010 
C 877 940 1075 832 1338 832 
C 1869 832 2310 1278 2310 1827 
C 2310 2132 2170 2355 2112 2432 
L 2131 2432 
C 2150 2432 2419 2432 2515 2432 
C 2720 2432 2739 2429 2918 2419 
L 2848 2808 
z
M 1338 1182 
C 1120 1182 813 1315 813 1823 
C 813 2375 1165 2464 1331 2464 
C 1549 2464 1856 2331 1856 1823 
C 1856 1271 1504 1182 1338 1182 
z
M 1581 -10 
C 1734 -10 2381 -10 2381 -442 
C 2381 -714 1984 -929 1504 -929 
C 1018 -929 621 -720 621 -435 
C 621 -403 621 -10 1062 -10 
L 1581 -10 
z
" transform="scale(0.015625)"/>
      <path id="CMSS17-69" d="M 979 4183 
L 442 4183 
L 442 3648 
L 979 3648 
L 979 4183 
z
M 947 2739 
L 474 2739 
L 474 0 
L 947 0 
L 947 2739 
z
" transform="scale(0.015625)"/>
      <path id="CMSS17-76" d="M 2675 2752 
L 2176 2752 
L 1747 1556 
C 1613 1165 1421 627 1389 352 
L 1382 352 
C 1370 468 1318 634 1286 749 
C 1248 890 1197 1056 1158 1172 
L 595 2752 
L 83 2752 
L 1094 0 
L 1664 0 
L 2675 2752 
z
" transform="scale(0.015625)"/>
      <path id="CMSS17-65" d="M 2502 1377 
C 2502 1590 2490 2003 2285 2345 
C 2061 2713 1696 2816 1421 2816 
C 755 2816 192 2188 192 1375 
C 192 582 774 -64 1510 -64 
C 1798 -64 2150 19 2470 248 
C 2470 274 2458 414 2451 420 
C 2451 433 2432 630 2432 656 
C 2125 407 1773 325 1517 325 
C 1107 325 666 667 646 1377 
L 2502 1377 
z
M 698 1728 
C 781 2084 1062 2421 1421 2421 
C 1517 2421 1965 2421 2080 1728 
L 698 1728 
z
" transform="scale(0.015625)"/>
      <path id="CMSS17-6e" d="M 2618 1877 
C 2618 2283 2522 2816 1798 2816 
C 1389 2816 1120 2606 941 2389 
L 941 2758 
L 474 2758 
L 474 0 
L 960 0 
L 960 1559 
C 960 1964 1114 2428 1549 2428 
C 2112 2428 2131 2048 2131 1829 
L 2131 0 
L 2618 0 
L 2618 1877 
z
" transform="scale(0.015625)"/>
      <path id="CMBX12-78" d="M 2157 1567 
L 2899 2415 
C 2970 2498 3027 2549 3558 2549 
L 3558 2816 
C 3200 2816 3187 2816 2970 2816 
C 2784 2816 2509 2816 2330 2822 
L 2330 2549 
C 2451 2549 2586 2517 2586 2472 
C 2586 2460 2554 2415 2541 2402 
L 1984 1778 
L 1350 2549 
L 1619 2549 
L 1619 2822 
C 1472 2816 1037 2816 864 2816 
C 672 2816 326 2816 147 2822 
L 147 2549 
L 602 2549 
L 1600 1338 
L 768 401 
C 691 312 646 267 115 267 
L 115 0 
C 499 0 512 0 710 0 
C 896 0 1165 0 1344 -6 
L 1344 267 
C 1222 267 1088 299 1088 344 
C 1088 350 1088 356 1133 407 
L 1773 1128 
L 2483 267 
L 2214 267 
L 2214 -6 
C 2368 0 2797 0 2976 0 
C 3168 0 3507 0 3686 -6 
L 3686 267 
L 3238 267 
L 2157 1567 
z
" transform="scale(0.015625)"/>
     </defs>
     <use xlink:href="#CMSS17-67" transform="scale(0.996264)"/>
     <use xlink:href="#CMSS17-69" transform="translate(46.843624 0) scale(0.996264)"/>
     <use xlink:href="#CMSS17-76" transform="translate(69.024347 0) scale(0.996264)"/>
     <use xlink:href="#CMSS17-65" transform="translate(112.024488 0) scale(0.996264)"/>
     <use xlink:href="#CMSS17-6e" transform="translate(153.66331 0) scale(0.996264)"/>
     <use xlink:href="#CMBX12-78" transform="translate(233.097366 0) scale(0.996264)"/>
    </g>
   </g>
   <g id="text_27">
    <!-- $\mathbf{h}_1=\boldsymbol{\phi}\left(\mathbf{W}_1\mathbf{x}\right)$ -->
    <g transform="translate(365.630202 423.091549) scale(0.2 -0.2)">
     <defs>
      <path id="CMBX12-68" d="M 3398 1924 
C 3398 2525 3136 2834 2432 2834 
C 1786 2834 1472 2384 1382 2194 
L 1376 2194 
L 1376 4416 
L 269 4416 
L 269 4117 
C 666 4117 710 4117 710 3858 
L 710 260 
L 269 260 
L 269 -13 
C 416 0 877 0 1056 0 
C 1235 0 1702 0 1850 -13 
L 1850 260 
L 1408 260 
L 1408 1607 
C 1408 2289 1920 2624 2330 2624 
C 2566 2624 2701 2473 2701 1993 
L 2701 260 
L 2259 260 
L 2259 -13 
C 2406 0 2867 0 3046 0 
C 3226 0 3693 0 3840 -13 
L 3840 260 
L 3398 260 
L 3398 1924 
z
" transform="scale(0.015625)"/>
      <path id="CMR17-3d" d="M 4115 2017 
C 4211 2017 4307 2017 4307 2125 
C 4307 2240 4198 2240 4090 2240 
L 512 2240 
C 403 2240 294 2240 294 2125 
C 294 2017 390 2017 486 2017 
L 4115 2017 
z
M 4090 896 
C 4198 896 4307 896 4307 1011 
C 4307 1119 4211 1119 4115 1119 
L 486 1119 
C 390 1119 294 1119 294 1011 
C 294 896 403 896 512 896 
L 4090 896 
z
" transform="scale(0.015625)"/>
      <path id="CMMIB10-1e" d="M 3238 4230 
C 3258 4307 3258 4320 3258 4326 
C 3258 4416 3168 4416 3110 4416 
C 2982 4416 2976 4404 2944 4267 
L 2624 2978 
C 2598 2894 2598 2887 2592 2880 
C 2579 2874 2573 2867 2464 2861 
C 1146 2861 358 1936 358 1108 
C 358 411 909 -64 1850 -64 
L 1574 -1192 
C 1574 -1280 1664 -1280 1722 -1280 
C 1824 -1280 1856 -1274 1882 -1165 
L 2106 -269 
C 2150 -83 2157 -77 2163 -71 
C 2176 -64 2189 -64 2291 -64 
C 3590 -64 4397 854 4397 1700 
C 4397 2402 3846 2880 2906 2880 
L 3238 4230 
z
M 1907 165 
C 1357 165 1018 403 1018 925 
C 1018 1105 1088 1698 1421 2123 
C 1645 2406 2016 2625 2541 2670 
L 1907 165 
z
M 2848 2651 
C 3398 2651 3738 2413 3738 1893 
C 3738 1713 3667 1121 3334 697 
C 3110 415 2739 195 2214 151 
L 2848 2651 
z
" transform="scale(0.015625)"/>
      <path id="CMR17-28" d="M 1958 -1561 
C 1958 -1555 1958 -1542 1939 -1523 
C 1645 -1224 858 -407 858 1581 
C 858 3569 1632 4379 1946 4697 
C 1946 4704 1958 4717 1958 4736 
C 1958 4755 1939 4768 1914 4768 
C 1843 4768 1299 4296 986 3594 
C 666 2887 576 2199 576 1588 
C 576 1128 621 351 1005 -471 
C 1312 -1135 1837 -1600 1914 -1600 
C 1946 -1600 1958 -1587 1958 -1561 
z
" transform="scale(0.015625)"/>
      <path id="CMBX12-57" d="M 6694 3963 
C 6739 4077 6752 4077 7290 4077 
L 7290 4363 
C 6970 4363 6957 4363 6592 4363 
C 6406 4363 5939 4363 5786 4370 
L 5786 4096 
C 5862 4096 6426 4096 6426 4007 
C 6426 4001 6426 3988 6400 3931 
L 5325 1108 
L 4179 4096 
L 4787 4096 
L 4787 4363 
C 4582 4363 3987 4363 3744 4363 
C 3546 4363 2925 4363 2771 4370 
L 2771 4096 
L 3309 4096 
L 3571 3413 
L 2694 1108 
L 1555 4096 
L 2157 4096 
L 2157 4363 
C 1971 4363 1344 4363 1114 4363 
C 909 4363 301 4363 141 4370 
L 141 4096 
L 678 4096 
L 2202 119 
C 2240 12 2259 -32 2400 -32 
C 2541 -32 2560 12 2598 113 
L 3712 3032 
L 4832 113 
C 4870 12 4890 -32 5030 -32 
C 5152 -32 5184 -7 5229 114 
L 6694 3963 
z
" transform="scale(0.015625)"/>
      <path id="CMR17-29" d="M 1683 1581 
C 1683 2040 1638 2817 1254 3639 
C 947 4303 422 4768 346 4768 
C 326 4768 301 4761 301 4729 
C 301 4717 307 4710 314 4697 
C 621 4378 1402 3568 1402 1584 
C 1402 -407 627 -1217 314 -1537 
C 307 -1549 301 -1556 301 -1568 
C 301 -1600 326 -1600 346 -1600 
C 416 -1600 960 -1128 1274 -426 
C 1594 281 1683 969 1683 1581 
z
" transform="scale(0.015625)"/>
     </defs>
     <use xlink:href="#CMBX12-68" transform="scale(0.996264)"/>
     <use xlink:href="#CMR17-31" transform="translate(62.266501 -14.943915) scale(0.697382)"/>
     <use xlink:href="#CMR17-3d" transform="translate(122.421823 0) scale(0.996264)"/>
     <use xlink:href="#CMMIB10-1e" transform="translate(221.81062 0) scale(0.996264)"/>
     <use xlink:href="#CMR17-28" transform="translate(309.398411 0.003177) scale(0.996264)"/>
     <use xlink:href="#CMBX12-57" transform="translate(344.679179 0) scale(0.996264)"/>
     <use xlink:href="#CMR17-31" transform="translate(460.448824 -14.943915) scale(0.697382)"/>
     <use xlink:href="#CMBX12-78" transform="translate(492.930137 0) scale(0.996264)"/>
     <use xlink:href="#CMR17-29" transform="translate(552.083313 0.003177) scale(0.996264)"/>
    </g>
   </g>
   <g id="text_28">
    <!-- $\mathbf{h}_2=\boldsymbol{\phi}\left(\mathbf{W}_2\mathbf{h}_1\right)$ -->
    <g transform="translate(361.655574 309.705722) scale(0.2 -0.2)">
     <use xlink:href="#CMBX12-68" transform="scale(0.996264)"/>
     <use xlink:href="#CMR17-32" transform="translate(62.266501 -14.943915) scale(0.697382)"/>
     <use xlink:href="#CMR17-3d" transform="translate(122.421823 0) scale(0.996264)"/>
     <use xlink:href="#CMMIB10-1e" transform="translate(221.81062 0) scale(0.996264)"/>
     <use xlink:href="#CMR17-28" transform="translate(309.398411 0.003177) scale(0.996264)"/>
     <use xlink:href="#CMBX12-57" transform="translate(344.679179 0) scale(0.996264)"/>
     <use xlink:href="#CMR17-32" transform="translate(460.448824 -14.943915) scale(0.697382)"/>
     <use xlink:href="#CMBX12-68" transform="translate(492.930137 0) scale(0.996264)"/>
     <use xlink:href="#CMR17-31" transform="translate(555.196638 -14.943915) scale(0.697382)"/>
     <use xlink:href="#CMR17-29" transform="translate(587.677952 0.003177) scale(0.996264)"/>
    </g>
   </g>
   <g id="text_29">
    <!-- $\mathbf{h}_3=\boldsymbol{\phi}\left(\mathbf{W}_3\mathbf{h}_2\right)$ -->
    <g transform="translate(361.655574 196.319895) scale(0.2 -0.2)">
     <use xlink:href="#CMBX12-68" transform="scale(0.996264)"/>
     <use xlink:href="#CMR17-33" transform="translate(62.266501 -14.943915) scale(0.697382)"/>
     <use xlink:href="#CMR17-3d" transform="translate(122.421823 0) scale(0.996264)"/>
     <use xlink:href="#CMMIB10-1e" transform="translate(221.81062 0) scale(0.996264)"/>
     <use xlink:href="#CMR17-28" transform="translate(309.398411 0.003177) scale(0.996264)"/>
     <use xlink:href="#CMBX12-57" transform="translate(344.679179 0) scale(0.996264)"/>
     <use xlink:href="#CMR17-33" transform="translate(460.448824 -14.943915) scale(0.697382)"/>
     <use xlink:href="#CMBX12-68" transform="translate(492.930137 0) scale(0.996264)"/>
     <use xlink:href="#CMR17-32" transform="translate(555.196638 -14.943915) scale(0.697382)"/>
     <use xlink:href="#CMR17-29" transform="translate(587.677952 0.003177) scale(0.996264)"/>
    </g>
   </g>
   <g id="text_30">
    <!-- $y=\mathbf{w}_4^\top\mathbf{h}_3$ -->
    <g transform="translate(383.812407 83.879224) scale(0.2 -0.2)">
     <defs>
      <path id="CMBX12-77" d="M 4608 2396 
C 4653 2504 4672 2549 5043 2549 
L 5043 2816 
C 4858 2816 4774 2816 4544 2816 
C 4282 2816 4198 2816 3968 2816 
L 3968 2549 
C 4026 2549 4339 2549 4339 2466 
C 4339 2460 4339 2453 4314 2390 
L 3642 737 
L 2906 2549 
L 3270 2549 
L 3270 2822 
C 3117 2816 2739 2816 2566 2816 
C 2240 2816 2227 2816 1907 2816 
L 1907 2549 
L 2285 2549 
C 2304 2498 2336 2415 2362 2358 
C 2381 2320 2445 2167 2445 2135 
C 2445 2123 2426 2078 2419 2059 
L 1933 858 
L 1242 2549 
L 1606 2549 
L 1606 2822 
C 1459 2816 1024 2816 851 2816 
C 646 2816 339 2816 147 2816 
L 147 2549 
L 525 2549 
L 1504 127 
C 1549 13 1574 -32 1715 -32 
C 1786 -32 1862 -32 1914 95 
L 2592 1780 
L 3270 108 
C 3328 -32 3398 -32 3475 -32 
C 3616 -32 3635 6 3680 121 
L 4608 2396 
z
" transform="scale(0.015625)"/>
      <path id="CMSY10-3e" d="M 2618 4029 
L 4403 4029 
C 4512 4029 4627 4029 4627 4157 
C 4627 4285 4512 4285 4403 4285 
L 582 4285 
C 486 4285 352 4285 352 4157 
C 352 4029 486 4029 582 4029 
L 2362 4029 
L 2362 240 
C 2362 144 2362 10 2490 10 
C 2618 10 2618 125 2618 240 
L 2618 4029 
z
" transform="scale(0.015625)"/>
     </defs>
     <use xlink:href="#CMMI12-79" transform="scale(0.996264)"/>
     <use xlink:href="#CMR17-3d" transform="translate(78.812789 0) scale(0.996264)"/>
     <use xlink:href="#CMBX12-77" transform="translate(178.201587 0) scale(0.996264)"/>
     <use xlink:href="#CMSY10-3e" transform="translate(260.7047 36.153639) scale(0.697382)"/>
     <use xlink:href="#CMR17-34" transform="translate(259.148037 -24.62935) scale(0.697382)"/>
     <use xlink:href="#CMBX12-68" transform="translate(315.443825 0) scale(0.996264)"/>
     <use xlink:href="#CMR17-33" transform="translate(377.710326 -14.943915) scale(0.697382)"/>
    </g>
   </g>
  </g>
 </g>
 <defs>
  <clipPath id="p49941a1e7a">
   <rect x="0" y="0" width="496.062992" height="566.929134"/>
  </clipPath>
 </defs>
</svg>
