<?xml version="1.0" encoding="utf-8" standalone="no"?>
<!DOCTYPE svg PUBLIC "-//W3C//DTD SVG 1.1//EN"
  "http://www.w3.org/Graphics/SVG/1.1/DTD/svg11.dtd">
<svg xmlns:xlink="http://www.w3.org/1999/xlink" width="720pt" height="432pt" viewBox="0 0 720 432" xmlns="http://www.w3.org/2000/svg" version="1.1">
 <metadata>
  <rdf:RDF xmlns:dc="http://purl.org/dc/elements/1.1/" xmlns:cc="http://creativecommons.org/ns#" xmlns:rdf="http://www.w3.org/1999/02/22-rdf-syntax-ns#">
   <cc:Work>
    <dc:type rdf:resource="http://purl.org/dc/dcmitype/StillImage"/>
    <dc:date>2025-09-09T07:20:33.389071</dc:date>
    <dc:format>image/svg+xml</dc:format>
    <dc:creator>
     <cc:Agent>
      <dc:title>Matplotlib v3.10.3, https://matplotlib.org/</dc:title>
     </cc:Agent>
    </dc:creator>
   </cc:Work>
  </rdf:RDF>
 </metadata>
 <defs>
  <style type="text/css">*{stroke-linejoin: round; stroke-linecap: butt}</style>
 </defs>
 <g id="figure_1">
  <g id="patch_1">
   <path d="M 0 432 
L 720 432 
L 720 0 
L 0 0 
L 0 432 
z
" style="fill: none"/>
  </g>
  <g id="axes_1">
   <g id="patch_2">
    <path d="M 90 384.48 
L 648 384.48 
L 648 51.84 
L 90 51.84 
L 90 384.48 
z
" style="fill: none"/>
   </g>
   <g id="matplotlib.axis_1">
    <g id="xtick_1">
     <g id="line2d_1">
      <defs>
       <path id="me8fbf132ae" d="M 0 0 
L 0 3.5 
" style="stroke: #000000; stroke-width: 0.8"/>
      </defs>
      <g>
       <use xlink:href="#me8fbf132ae" x="169.714286" y="384.48" style="stroke: #000000; stroke-width: 0.8"/>
      </g>
     </g>
     <g id="text_1">
      <!-- 1900 -->
      <g transform="translate(141.719286 408.196563) scale(0.22 -0.22)">
       <defs>
        <path id="DejaVuSans-31" d="M 794 531 
L 1825 531 
L 1825 4091 
L 703 3866 
L 703 4441 
L 1819 4666 
L 2450 4666 
L 2450 531 
L 3481 531 
L 3481 0 
L 794 0 
L 794 531 
z
" transform="scale(0.015625)"/>
        <path id="DejaVuSans-39" d="M 703 97 
L 703 672 
Q 941 559 1184 500 
Q 1428 441 1663 441 
Q 2288 441 2617 861 
Q 2947 1281 2994 2138 
Q 2813 1869 2534 1725 
Q 2256 1581 1919 1581 
Q 1219 1581 811 2004 
Q 403 2428 403 3163 
Q 403 3881 828 4315 
Q 1253 4750 1959 4750 
Q 2769 4750 3195 4129 
Q 3622 3509 3622 2328 
Q 3622 1225 3098 567 
Q 2575 -91 1691 -91 
Q 1453 -91 1209 -44 
Q 966 3 703 97 
z
M 1959 2075 
Q 2384 2075 2632 2365 
Q 2881 2656 2881 3163 
Q 2881 3666 2632 3958 
Q 2384 4250 1959 4250 
Q 1534 4250 1286 3958 
Q 1038 3666 1038 3163 
Q 1038 2656 1286 2365 
Q 1534 2075 1959 2075 
z
" transform="scale(0.015625)"/>
        <path id="DejaVuSans-30" d="M 2034 4250 
Q 1547 4250 1301 3770 
Q 1056 3291 1056 2328 
Q 1056 1369 1301 889 
Q 1547 409 2034 409 
Q 2525 409 2770 889 
Q 3016 1369 3016 2328 
Q 3016 3291 2770 3770 
Q 2525 4250 2034 4250 
z
M 2034 4750 
Q 2819 4750 3233 4129 
Q 3647 3509 3647 2328 
Q 3647 1150 3233 529 
Q 2819 -91 2034 -91 
Q 1250 -91 836 529 
Q 422 1150 422 2328 
Q 422 3509 836 4129 
Q 1250 4750 2034 4750 
z
" transform="scale(0.015625)"/>
       </defs>
       <use xlink:href="#DejaVuSans-31"/>
       <use xlink:href="#DejaVuSans-39" transform="translate(63.623047 0)"/>
       <use xlink:href="#DejaVuSans-30" transform="translate(127.246094 0)"/>
       <use xlink:href="#DejaVuSans-30" transform="translate(190.869141 0)"/>
      </g>
     </g>
    </g>
    <g id="xtick_2">
     <g id="line2d_2">
      <g>
       <use xlink:href="#me8fbf132ae" x="252.75" y="384.48" style="stroke: #000000; stroke-width: 0.8"/>
      </g>
     </g>
     <g id="text_2">
      <!-- 1925 -->
      <g transform="translate(224.755 408.196563) scale(0.22 -0.22)">
       <defs>
        <path id="DejaVuSans-32" d="M 1228 531 
L 3431 531 
L 3431 0 
L 469 0 
L 469 531 
Q 828 903 1448 1529 
Q 2069 2156 2228 2338 
Q 2531 2678 2651 2914 
Q 2772 3150 2772 3378 
Q 2772 3750 2511 3984 
Q 2250 4219 1831 4219 
Q 1534 4219 1204 4116 
Q 875 4013 500 3803 
L 500 4441 
Q 881 4594 1212 4672 
Q 1544 4750 1819 4750 
Q 2544 4750 2975 4387 
Q 3406 4025 3406 3419 
Q 3406 3131 3298 2873 
Q 3191 2616 2906 2266 
Q 2828 2175 2409 1742 
Q 1991 1309 1228 531 
z
" transform="scale(0.015625)"/>
        <path id="DejaVuSans-35" d="M 691 4666 
L 3169 4666 
L 3169 4134 
L 1269 4134 
L 1269 2991 
Q 1406 3038 1543 3061 
Q 1681 3084 1819 3084 
Q 2600 3084 3056 2656 
Q 3513 2228 3513 1497 
Q 3513 744 3044 326 
Q 2575 -91 1722 -91 
Q 1428 -91 1123 -41 
Q 819 9 494 109 
L 494 744 
Q 775 591 1075 516 
Q 1375 441 1709 441 
Q 2250 441 2565 725 
Q 2881 1009 2881 1497 
Q 2881 1984 2565 2268 
Q 2250 2553 1709 2553 
Q 1456 2553 1204 2497 
Q 953 2441 691 2322 
L 691 4666 
z
" transform="scale(0.015625)"/>
       </defs>
       <use xlink:href="#DejaVuSans-31"/>
       <use xlink:href="#DejaVuSans-39" transform="translate(63.623047 0)"/>
       <use xlink:href="#DejaVuSans-32" transform="translate(127.246094 0)"/>
       <use xlink:href="#DejaVuSans-35" transform="translate(190.869141 0)"/>
      </g>
     </g>
    </g>
    <g id="xtick_3">
     <g id="line2d_3">
      <g>
       <use xlink:href="#me8fbf132ae" x="335.785714" y="384.48" style="stroke: #000000; stroke-width: 0.8"/>
      </g>
     </g>
     <g id="text_3">
      <!-- 1950 -->
      <g transform="translate(307.790714 408.196563) scale(0.22 -0.22)">
       <use xlink:href="#DejaVuSans-31"/>
       <use xlink:href="#DejaVuSans-39" transform="translate(63.623047 0)"/>
       <use xlink:href="#DejaVuSans-35" transform="translate(127.246094 0)"/>
       <use xlink:href="#DejaVuSans-30" transform="translate(190.869141 0)"/>
      </g>
     </g>
    </g>
    <g id="xtick_4">
     <g id="line2d_4">
      <g>
       <use xlink:href="#me8fbf132ae" x="418.821429" y="384.48" style="stroke: #000000; stroke-width: 0.8"/>
      </g>
     </g>
     <g id="text_4">
      <!-- 1975 -->
      <g transform="translate(390.826429 408.196563) scale(0.22 -0.22)">
       <defs>
        <path id="DejaVuSans-37" d="M 525 4666 
L 3525 4666 
L 3525 4397 
L 1831 0 
L 1172 0 
L 2766 4134 
L 525 4134 
L 525 4666 
z
" transform="scale(0.015625)"/>
       </defs>
       <use xlink:href="#DejaVuSans-31"/>
       <use xlink:href="#DejaVuSans-39" transform="translate(63.623047 0)"/>
       <use xlink:href="#DejaVuSans-37" transform="translate(127.246094 0)"/>
       <use xlink:href="#DejaVuSans-35" transform="translate(190.869141 0)"/>
      </g>
     </g>
    </g>
    <g id="xtick_5">
     <g id="line2d_5">
      <g>
       <use xlink:href="#me8fbf132ae" x="501.857143" y="384.48" style="stroke: #000000; stroke-width: 0.8"/>
      </g>
     </g>
     <g id="text_5">
      <!-- 2000 -->
      <g transform="translate(473.862143 408.196563) scale(0.22 -0.22)">
       <use xlink:href="#DejaVuSans-32"/>
       <use xlink:href="#DejaVuSans-30" transform="translate(63.623047 0)"/>
       <use xlink:href="#DejaVuSans-30" transform="translate(127.246094 0)"/>
       <use xlink:href="#DejaVuSans-30" transform="translate(190.869141 0)"/>
      </g>
     </g>
    </g>
    <g id="xtick_6">
     <g id="line2d_6">
      <g>
       <use xlink:href="#me8fbf132ae" x="584.892857" y="384.48" style="stroke: #000000; stroke-width: 0.8"/>
      </g>
     </g>
     <g id="text_6">
      <!-- 2025 -->
      <g transform="translate(556.897857 408.196563) scale(0.22 -0.22)">
       <use xlink:href="#DejaVuSans-32"/>
       <use xlink:href="#DejaVuSans-30" transform="translate(63.623047 0)"/>
       <use xlink:href="#DejaVuSans-32" transform="translate(127.246094 0)"/>
       <use xlink:href="#DejaVuSans-35" transform="translate(190.869141 0)"/>
      </g>
     </g>
    </g>
    <g id="text_7">
     <!-- year -->
     <g transform="translate(346.689062 431.96875) scale(0.2 -0.2)">
      <defs>
       <path id="DejaVuSans-79" d="M 2059 -325 
Q 1816 -950 1584 -1140 
Q 1353 -1331 966 -1331 
L 506 -1331 
L 506 -850 
L 844 -850 
Q 1081 -850 1212 -737 
Q 1344 -625 1503 -206 
L 1606 56 
L 191 3500 
L 800 3500 
L 1894 763 
L 2988 3500 
L 3597 3500 
L 2059 -325 
z
" transform="scale(0.015625)"/>
       <path id="DejaVuSans-65" d="M 3597 1894 
L 3597 1613 
L 953 1613 
Q 991 1019 1311 708 
Q 1631 397 2203 397 
Q 2534 397 2845 478 
Q 3156 559 3463 722 
L 3463 178 
Q 3153 47 2828 -22 
Q 2503 -91 2169 -91 
Q 1331 -91 842 396 
Q 353 884 353 1716 
Q 353 2575 817 3079 
Q 1281 3584 2069 3584 
Q 2775 3584 3186 3129 
Q 3597 2675 3597 1894 
z
M 3022 2063 
Q 3016 2534 2758 2815 
Q 2500 3097 2075 3097 
Q 1594 3097 1305 2825 
Q 1016 2553 972 2059 
L 3022 2063 
z
" transform="scale(0.015625)"/>
       <path id="DejaVuSans-61" d="M 2194 1759 
Q 1497 1759 1228 1600 
Q 959 1441 959 1056 
Q 959 750 1161 570 
Q 1363 391 1709 391 
Q 2188 391 2477 730 
Q 2766 1069 2766 1631 
L 2766 1759 
L 2194 1759 
z
M 3341 1997 
L 3341 0 
L 2766 0 
L 2766 531 
Q 2569 213 2275 61 
Q 1981 -91 1556 -91 
Q 1019 -91 701 211 
Q 384 513 384 1019 
Q 384 1609 779 1909 
Q 1175 2209 1959 2209 
L 2766 2209 
L 2766 2266 
Q 2766 2663 2505 2880 
Q 2244 3097 1772 3097 
Q 1472 3097 1187 3025 
Q 903 2953 641 2809 
L 641 3341 
Q 956 3463 1253 3523 
Q 1550 3584 1831 3584 
Q 2591 3584 2966 3190 
Q 3341 2797 3341 1997 
z
" transform="scale(0.015625)"/>
       <path id="DejaVuSans-72" d="M 2631 2963 
Q 2534 3019 2420 3045 
Q 2306 3072 2169 3072 
Q 1681 3072 1420 2755 
Q 1159 2438 1159 1844 
L 1159 0 
L 581 0 
L 581 3500 
L 1159 3500 
L 1159 2956 
Q 1341 3275 1631 3429 
Q 1922 3584 2338 3584 
Q 2397 3584 2469 3576 
Q 2541 3569 2628 3553 
L 2631 2963 
z
" transform="scale(0.015625)"/>
      </defs>
      <use xlink:href="#DejaVuSans-79"/>
      <use xlink:href="#DejaVuSans-65" transform="translate(59.179688 0)"/>
      <use xlink:href="#DejaVuSans-61" transform="translate(120.703125 0)"/>
      <use xlink:href="#DejaVuSans-72" transform="translate(181.982422 0)"/>
     </g>
    </g>
   </g>
   <g id="matplotlib.axis_2">
    <g id="ytick_1">
     <g id="line2d_7">
      <defs>
       <path id="m71c3d84ed0" d="M 0 0 
L -3.5 0 
" style="stroke: #000000; stroke-width: 0.8"/>
      </defs>
      <g>
       <use xlink:href="#m71c3d84ed0" x="90" y="342.9" style="stroke: #000000; stroke-width: 0.8"/>
      </g>
     </g>
     <g id="text_8">
      <!-- 3 -->
      <g transform="translate(69.0025 351.258281) scale(0.22 -0.22)">
       <defs>
        <path id="DejaVuSans-33" d="M 2597 2516 
Q 3050 2419 3304 2112 
Q 3559 1806 3559 1356 
Q 3559 666 3084 287 
Q 2609 -91 1734 -91 
Q 1441 -91 1130 -33 
Q 819 25 488 141 
L 488 750 
Q 750 597 1062 519 
Q 1375 441 1716 441 
Q 2309 441 2620 675 
Q 2931 909 2931 1356 
Q 2931 1769 2642 2001 
Q 2353 2234 1838 2234 
L 1294 2234 
L 1294 2753 
L 1863 2753 
Q 2328 2753 2575 2939 
Q 2822 3125 2822 3475 
Q 2822 3834 2567 4026 
Q 2313 4219 1838 4219 
Q 1578 4219 1281 4162 
Q 984 4106 628 3988 
L 628 4550 
Q 988 4650 1302 4700 
Q 1616 4750 1894 4750 
Q 2613 4750 3031 4423 
Q 3450 4097 3450 3541 
Q 3450 3153 3228 2886 
Q 3006 2619 2597 2516 
z
" transform="scale(0.015625)"/>
       </defs>
       <use xlink:href="#DejaVuSans-33"/>
      </g>
     </g>
    </g>
    <g id="ytick_2">
     <g id="line2d_8">
      <g>
       <use xlink:href="#m71c3d84ed0" x="90" y="259.74" style="stroke: #000000; stroke-width: 0.8"/>
      </g>
     </g>
     <g id="text_9">
      <!-- 4 -->
      <g transform="translate(69.0025 268.098281) scale(0.22 -0.22)">
       <defs>
        <path id="DejaVuSans-34" d="M 2419 4116 
L 825 1625 
L 2419 1625 
L 2419 4116 
z
M 2253 4666 
L 3047 4666 
L 3047 1625 
L 3713 1625 
L 3713 1100 
L 3047 1100 
L 3047 0 
L 2419 0 
L 2419 1100 
L 313 1100 
L 313 1709 
L 2253 4666 
z
" transform="scale(0.015625)"/>
       </defs>
       <use xlink:href="#DejaVuSans-34"/>
      </g>
     </g>
    </g>
    <g id="ytick_3">
     <g id="line2d_9">
      <g>
       <use xlink:href="#m71c3d84ed0" x="90" y="176.58" style="stroke: #000000; stroke-width: 0.8"/>
      </g>
     </g>
     <g id="text_10">
      <!-- 5 -->
      <g transform="translate(69.0025 184.938281) scale(0.22 -0.22)">
       <use xlink:href="#DejaVuSans-35"/>
      </g>
     </g>
    </g>
    <g id="ytick_4">
     <g id="line2d_10">
      <g>
       <use xlink:href="#m71c3d84ed0" x="90" y="93.42" style="stroke: #000000; stroke-width: 0.8"/>
      </g>
     </g>
     <g id="text_11">
      <!-- 6 -->
      <g transform="translate(69.0025 101.778281) scale(0.22 -0.22)">
       <defs>
        <path id="DejaVuSans-36" d="M 2113 2584 
Q 1688 2584 1439 2293 
Q 1191 2003 1191 1497 
Q 1191 994 1439 701 
Q 1688 409 2113 409 
Q 2538 409 2786 701 
Q 3034 994 3034 1497 
Q 3034 2003 2786 2293 
Q 2538 2584 2113 2584 
z
M 3366 4563 
L 3366 3988 
Q 3128 4100 2886 4159 
Q 2644 4219 2406 4219 
Q 1781 4219 1451 3797 
Q 1122 3375 1075 2522 
Q 1259 2794 1537 2939 
Q 1816 3084 2150 3084 
Q 2853 3084 3261 2657 
Q 3669 2231 3669 1497 
Q 3669 778 3244 343 
Q 2819 -91 2113 -91 
Q 1303 -91 875 529 
Q 447 1150 447 2328 
Q 447 3434 972 4092 
Q 1497 4750 2381 4750 
Q 2619 4750 2861 4703 
Q 3103 4656 3366 4563 
z
" transform="scale(0.015625)"/>
       </defs>
       <use xlink:href="#DejaVuSans-36"/>
      </g>
     </g>
    </g>
    <g id="text_12">
     <!-- pace min/km -->
     <g transform="translate(60.843125 283.2225) rotate(-90) scale(0.2 -0.2)">
      <defs>
       <path id="DejaVuSans-70" d="M 1159 525 
L 1159 -1331 
L 581 -1331 
L 581 3500 
L 1159 3500 
L 1159 2969 
Q 1341 3281 1617 3432 
Q 1894 3584 2278 3584 
Q 2916 3584 3314 3078 
Q 3713 2572 3713 1747 
Q 3713 922 3314 415 
Q 2916 -91 2278 -91 
Q 1894 -91 1617 61 
Q 1341 213 1159 525 
z
M 3116 1747 
Q 3116 2381 2855 2742 
Q 2594 3103 2138 3103 
Q 1681 3103 1420 2742 
Q 1159 2381 1159 1747 
Q 1159 1113 1420 752 
Q 1681 391 2138 391 
Q 2594 391 2855 752 
Q 3116 1113 3116 1747 
z
" transform="scale(0.015625)"/>
       <path id="DejaVuSans-63" d="M 3122 3366 
L 3122 2828 
Q 2878 2963 2633 3030 
Q 2388 3097 2138 3097 
Q 1578 3097 1268 2742 
Q 959 2388 959 1747 
Q 959 1106 1268 751 
Q 1578 397 2138 397 
Q 2388 397 2633 464 
Q 2878 531 3122 666 
L 3122 134 
Q 2881 22 2623 -34 
Q 2366 -91 2075 -91 
Q 1284 -91 818 406 
Q 353 903 353 1747 
Q 353 2603 823 3093 
Q 1294 3584 2113 3584 
Q 2378 3584 2631 3529 
Q 2884 3475 3122 3366 
z
" transform="scale(0.015625)"/>
       <path id="DejaVuSans-20" transform="scale(0.015625)"/>
       <path id="DejaVuSans-6d" d="M 3328 2828 
Q 3544 3216 3844 3400 
Q 4144 3584 4550 3584 
Q 5097 3584 5394 3201 
Q 5691 2819 5691 2113 
L 5691 0 
L 5113 0 
L 5113 2094 
Q 5113 2597 4934 2840 
Q 4756 3084 4391 3084 
Q 3944 3084 3684 2787 
Q 3425 2491 3425 1978 
L 3425 0 
L 2847 0 
L 2847 2094 
Q 2847 2600 2669 2842 
Q 2491 3084 2119 3084 
Q 1678 3084 1418 2786 
Q 1159 2488 1159 1978 
L 1159 0 
L 581 0 
L 581 3500 
L 1159 3500 
L 1159 2956 
Q 1356 3278 1631 3431 
Q 1906 3584 2284 3584 
Q 2666 3584 2933 3390 
Q 3200 3197 3328 2828 
z
" transform="scale(0.015625)"/>
       <path id="DejaVuSans-69" d="M 603 3500 
L 1178 3500 
L 1178 0 
L 603 0 
L 603 3500 
z
M 603 4863 
L 1178 4863 
L 1178 4134 
L 603 4134 
L 603 4863 
z
" transform="scale(0.015625)"/>
       <path id="DejaVuSans-6e" d="M 3513 2113 
L 3513 0 
L 2938 0 
L 2938 2094 
Q 2938 2591 2744 2837 
Q 2550 3084 2163 3084 
Q 1697 3084 1428 2787 
Q 1159 2491 1159 1978 
L 1159 0 
L 581 0 
L 581 3500 
L 1159 3500 
L 1159 2956 
Q 1366 3272 1645 3428 
Q 1925 3584 2291 3584 
Q 2894 3584 3203 3211 
Q 3513 2838 3513 2113 
z
" transform="scale(0.015625)"/>
       <path id="DejaVuSans-2f" d="M 1625 4666 
L 2156 4666 
L 531 -594 
L 0 -594 
L 1625 4666 
z
" transform="scale(0.015625)"/>
       <path id="DejaVuSans-6b" d="M 581 4863 
L 1159 4863 
L 1159 1991 
L 2875 3500 
L 3609 3500 
L 1753 1863 
L 3688 0 
L 2938 0 
L 1159 1709 
L 1159 0 
L 581 0 
L 581 4863 
z
" transform="scale(0.015625)"/>
      </defs>
      <use xlink:href="#DejaVuSans-70"/>
      <use xlink:href="#DejaVuSans-61" transform="translate(63.476562 0)"/>
      <use xlink:href="#DejaVuSans-63" transform="translate(124.755859 0)"/>
      <use xlink:href="#DejaVuSans-65" transform="translate(179.736328 0)"/>
      <use xlink:href="#DejaVuSans-20" transform="translate(241.259766 0)"/>
      <use xlink:href="#DejaVuSans-6d" transform="translate(273.046875 0)"/>
      <use xlink:href="#DejaVuSans-69" transform="translate(370.458984 0)"/>
      <use xlink:href="#DejaVuSans-6e" transform="translate(398.242188 0)"/>
      <use xlink:href="#DejaVuSans-2f" transform="translate(461.621094 0)"/>
      <use xlink:href="#DejaVuSans-6b" transform="translate(495.3125 0)"/>
      <use xlink:href="#DejaVuSans-6d" transform="translate(553.222656 0)"/>
     </g>
    </g>
   </g>
   <g id="line2d_11">
    <defs>
     <path id="mb5439922ad" d="M 0 2.5 
C 0.663008 2.5 1.29895 2.236584 1.767767 1.767767 
C 2.236584 1.29895 2.5 0.663008 2.5 0 
C 2.5 -0.663008 2.236584 -1.29895 1.767767 -1.767767 
C 1.29895 -2.236584 0.663008 -2.5 0 -2.5 
C -0.663008 -2.5 -1.29895 -2.236584 -1.767767 -1.767767 
C -2.236584 -1.29895 -2.5 -0.663008 -2.5 0 
C -2.5 0.663008 -2.236584 1.29895 -1.767767 1.767767 
C -1.29895 2.236584 -0.663008 2.5 0 2.5 
z
" style="stroke: #ff0000"/>
    </defs>
    <g clip-path="url(#pd3023442a5)">
     <use xlink:href="#mb5439922ad" x="156.428571" y="220.5855" style="fill: #ff0000; stroke: #ff0000"/>
     <use xlink:href="#mb5439922ad" x="169.714286" y="221.093115" style="fill: #ff0000; stroke: #ff0000"/>
     <use xlink:href="#mb5439922ad" x="183" y="158.11155" style="fill: #ff0000; stroke: #ff0000"/>
     <use xlink:href="#mb5439922ad" x="196.285714" y="246.876921" style="fill: #ff0000; stroke: #ff0000"/>
     <use xlink:href="#mb5439922ad" x="209.571429" y="267.780179" style="fill: #ff0000; stroke: #ff0000"/>
     <use xlink:href="#mb5439922ad" x="236.142857" y="295.539326" style="fill: #ff0000; stroke: #ff0000"/>
     <use xlink:href="#mb5439922ad" x="249.428571" y="274.330857" style="fill: #ff0000; stroke: #ff0000"/>
     <use xlink:href="#mb5439922ad" x="262.714286" y="290.93855" style="fill: #ff0000; stroke: #ff0000"/>
     <use xlink:href="#mb5439922ad" x="276" y="293.599197" style="fill: #ff0000; stroke: #ff0000"/>
     <use xlink:href="#mb5439922ad" x="289.285714" y="298.092734" style="fill: #ff0000; stroke: #ff0000"/>
     <use xlink:href="#mb5439922ad" x="329.142857" y="287.174227" style="fill: #ff0000; stroke: #ff0000"/>
     <use xlink:href="#mb5439922ad" x="342.428571" y="310.443391" style="fill: #ff0000; stroke: #ff0000"/>
     <use xlink:href="#mb5439922ad" x="355.714286" y="306.606804" style="fill: #ff0000; stroke: #ff0000"/>
     <use xlink:href="#mb5439922ad" x="369" y="325.783171" style="fill: #ff0000; stroke: #ff0000"/>
     <use xlink:href="#mb5439922ad" x="382.285714" y="331.859957" style="fill: #ff0000; stroke: #ff0000"/>
     <use xlink:href="#mb5439922ad" x="395.571429" y="315.607017" style="fill: #ff0000; stroke: #ff0000"/>
     <use xlink:href="#mb5439922ad" x="408.857143" y="331.603747" style="fill: #ff0000; stroke: #ff0000"/>
     <use xlink:href="#mb5439922ad" x="422.142857" y="336.333786" style="fill: #ff0000; stroke: #ff0000"/>
     <use xlink:href="#mb5439922ad" x="435.428571" y="334.100156" style="fill: #ff0000; stroke: #ff0000"/>
     <use xlink:href="#mb5439922ad" x="448.714286" y="337.450601" style="fill: #ff0000; stroke: #ff0000"/>
     <use xlink:href="#mb5439922ad" x="462" y="335.118429" style="fill: #ff0000; stroke: #ff0000"/>
     <use xlink:href="#mb5439922ad" x="475.285714" y="329.501507" style="fill: #ff0000; stroke: #ff0000"/>
     <use xlink:href="#mb5439922ad" x="488.571429" y="331.045339" style="fill: #ff0000; stroke: #ff0000"/>
     <use xlink:href="#mb5439922ad" x="501.857143" y="335.808226" style="fill: #ff0000; stroke: #ff0000"/>
     <use xlink:href="#mb5439922ad" x="515.142857" y="334.362936" style="fill: #ff0000; stroke: #ff0000"/>
     <use xlink:href="#mb5439922ad" x="528.428571" y="343.001827" style="fill: #ff0000; stroke: #ff0000"/>
     <use xlink:href="#mb5439922ad" x="541.714286" y="340.0784" style="fill: #ff0000; stroke: #ff0000"/>
     <use xlink:href="#mb5439922ad" x="555" y="338.665958" style="fill: #ff0000; stroke: #ff0000"/>
     <use xlink:href="#mb5439922ad" x="568.285714" y="338.863043" style="fill: #ff0000; stroke: #ff0000"/>
     <use xlink:href="#mb5439922ad" x="581.571429" y="343.198912" style="fill: #ff0000; stroke: #ff0000"/>
    </g>
   </g>
   <g id="line2d_12">
    <path d="M 107.277675 -1 
L 112.37594 14.016214 
L 117.969925 29.951399 
L 123.56391 45.334529 
L 129.157895 60.175343 
L 134.75188 74.483579 
L 140.345865 88.268976 
L 145.93985 101.541272 
L 151.533835 114.310204 
L 157.12782 126.585513 
L 162.721805 138.376934 
L 168.315789 149.694208 
L 173.909774 160.547072 
L 179.503759 170.945265 
L 185.097744 180.898524 
L 190.691729 190.416589 
L 196.285714 199.509197 
L 201.879699 208.186087 
L 207.473684 216.456997 
L 213.067669 224.331666 
L 218.661654 231.819831 
L 224.255639 238.931231 
L 229.849624 245.675604 
L 235.443609 252.062688 
L 241.037594 258.102223 
L 246.631579 263.803946 
L 252.225564 269.177595 
L 257.819549 274.232909 
L 263.413534 278.979626 
L 269.007519 283.427484 
L 274.601504 287.586221 
L 280.195489 291.465577 
L 285.789474 295.075289 
L 291.383459 298.425095 
L 296.977444 301.524735 
L 302.571429 304.383945 
L 308.165414 307.012465 
L 313.759398 309.420032 
L 319.353383 311.616385 
L 324.947368 313.611263 
L 331.93985 315.83637 
L 338.932331 317.780908 
L 345.924812 319.463896 
L 352.917293 320.904355 
L 359.909774 322.121305 
L 366.902256 323.133765 
L 375.293233 324.105572 
L 383.684211 324.843171 
L 393.473684 325.451536 
L 403.263158 325.838044 
L 415.849624 326.09298 
L 434.030075 326.190915 
L 457.804511 326.341384 
L 470.390977 326.662758 
L 480.180451 327.122138 
L 488.571429 327.70526 
L 496.962406 328.497873 
L 505.353383 329.532846 
L 512.345865 330.60417 
L 519.338346 331.885644 
L 526.330827 333.396287 
L 533.323308 335.155119 
L 540.315789 337.181161 
L 545.909774 339.007167 
L 551.503759 341.026098 
L 557.097744 343.247693 
L 562.691729 345.681689 
L 568.285714 348.337826 
L 573.879699 351.225841 
L 579.473684 354.355473 
L 585.067669 357.73646 
L 590.661654 361.37854 
L 596.255639 365.291452 
L 601.849624 369.484933 
L 607.443609 373.968723 
L 613.037594 378.75256 
L 618.631579 383.846181 
L 624.225564 389.259326 
L 629.819549 395.001731 
L 635.413534 401.083137 
L 641.007519 407.513281 
L 646.601504 414.3019 
L 648 416.056208 
L 648 416.056208 
" clip-path="url(#pd3023442a5)" style="fill: none; stroke: #0000ff; stroke-width: 2; stroke-linecap: square"/>
   </g>
   <g id="line2d_13">
    <path d="M 90 153.867768 
L 98.390977 162.810899 
L 106.781955 171.469717 
L 115.172932 179.848667 
L 123.56391 187.952188 
L 131.954887 195.784724 
L 140.345865 203.350717 
L 148.736842 210.654608 
L 157.12782 217.700839 
L 165.518797 224.493853 
L 173.909774 231.038092 
L 182.300752 237.337997 
L 190.691729 243.398011 
L 199.082707 249.222576 
L 208.87218 255.726246 
L 218.661654 261.922543 
L 228.451128 267.818522 
L 238.240602 273.421235 
L 248.030075 278.737736 
L 257.819549 283.775081 
L 267.609023 288.540321 
L 277.398496 293.040511 
L 287.18797 297.282705 
L 296.977444 301.273956 
L 306.766917 305.021319 
L 316.556391 308.531847 
L 326.345865 311.812594 
L 336.135338 314.870613 
L 345.924812 317.712959 
L 355.714286 320.346686 
L 366.902256 323.110254 
L 378.090226 325.621082 
L 389.278195 327.889699 
L 400.466165 329.926634 
L 411.654135 331.742416 
L 422.842105 333.347574 
L 435.428571 334.914727 
L 448.015038 336.243627 
L 460.601504 337.349266 
L 473.18797 338.246637 
L 487.172932 339.017684 
L 501.157895 339.570683 
L 516.541353 339.951681 
L 533.323308 340.126951 
L 551.503759 340.073891 
L 571.082707 339.784727 
L 593.458647 339.230363 
L 624.225564 338.22717 
L 648 337.385878 
L 648 337.385878 
" clip-path="url(#pd3023442a5)" style="fill: none; stroke: #0000ff; stroke-width: 2; stroke-linecap: square"/>
   </g>
   <g id="line2d_14">
    <path d="M 90 161.871368 
L 99.789474 170.989858 
L 109.578947 179.794272 
L 119.368421 188.290038 
L 129.157895 196.482585 
L 138.947368 204.377343 
L 148.736842 211.979739 
L 158.526316 219.295203 
L 168.315789 226.329164 
L 178.105263 233.08705 
L 187.894737 239.574289 
L 197.684211 245.796312 
L 207.473684 251.758546 
L 217.263158 257.46642 
L 227.052632 262.925364 
L 236.842105 268.140806 
L 246.631579 273.118174 
L 256.421053 277.862898 
L 266.210526 282.380406 
L 276 286.676128 
L 285.789474 290.755491 
L 296.977444 295.159656 
L 308.165414 299.296426 
L 319.353383 303.173903 
L 330.541353 306.800192 
L 341.729323 310.183396 
L 352.917293 313.331618 
L 364.105263 316.252963 
L 375.293233 318.955533 
L 386.481203 321.447433 
L 399.067669 324.009094 
L 411.654135 326.325918 
L 424.240602 328.409446 
L 436.827068 330.271214 
L 449.413534 331.922761 
L 463.398496 333.525291 
L 477.383459 334.898362 
L 491.368421 336.057799 
L 506.75188 337.105324 
L 522.135338 337.934571 
L 538.917293 338.615013 
L 557.097744 339.119028 
L 576.676692 339.429553 
L 599.052632 339.543951 
L 624.225564 339.443518 
L 648 339.205945 
L 648 339.205945 
" clip-path="url(#pd3023442a5)" style="fill: none; stroke: #0000ff; stroke-width: 2; stroke-linecap: square"/>
   </g>
   <g id="line2d_15">
    <path d="M 90 145.536122 
L 98.390977 155.491989 
L 106.781955 165.087857 
L 115.172932 174.330705 
L 123.56391 183.227511 
L 131.954887 191.785255 
L 140.345865 200.010915 
L 148.736842 207.91147 
L 157.12782 215.493898 
L 165.518797 222.765179 
L 173.909774 229.732292 
L 182.300752 236.402214 
L 190.691729 242.781926 
L 199.082707 248.878405 
L 207.473684 254.698631 
L 215.864662 260.249582 
L 224.255639 265.538237 
L 232.646617 270.571575 
L 241.037594 275.356575 
L 249.428571 279.900215 
L 257.819549 284.209475 
L 266.210526 288.291332 
L 274.601504 292.152767 
L 282.992481 295.800757 
L 292.781955 299.796286 
L 302.571429 303.521875 
L 312.360902 306.988605 
L 322.150376 310.207559 
L 331.93985 313.189819 
L 341.729323 315.946467 
L 351.518797 318.488584 
L 362.706767 321.145388 
L 373.894737 323.553005 
L 385.082707 325.72798 
L 396.270677 327.686853 
L 408.857143 329.652874 
L 421.443609 331.389882 
L 435.428571 333.079943 
L 449.413534 334.54866 
L 464.796992 335.947156 
L 482.977444 337.363831 
L 503.954887 338.768845 
L 540.315789 340.931398 
L 571.082707 342.849252 
L 590.661654 344.279971 
L 607.443609 345.71711 
L 622.827068 347.255841 
L 636.81203 348.875735 
L 648 350.345713 
L 648 350.345713 
" clip-path="url(#pd3023442a5)" style="fill: none; stroke: #0000ff; stroke-width: 2; stroke-linecap: square"/>
   </g>
   <g id="line2d_16">
    <path d="M 90 112.782935 
L 99.789474 124.591732 
L 109.578947 136.015861 
L 119.368421 147.060655 
L 129.157895 157.731449 
L 138.947368 168.033577 
L 148.736842 177.972374 
L 158.526316 187.553173 
L 168.315789 196.78131 
L 178.105263 205.662119 
L 187.894737 214.200933 
L 197.684211 222.403088 
L 207.473684 230.273918 
L 217.263158 237.818756 
L 227.052632 245.042939 
L 236.842105 251.951799 
L 246.631579 258.550671 
L 256.421053 264.84489 
L 266.210526 270.839789 
L 276 276.540704 
L 285.789474 281.952969 
L 295.578947 287.081917 
L 305.368421 291.932884 
L 315.157895 296.511204 
L 324.947368 300.82221 
L 334.736842 304.871239 
L 344.526316 308.663623 
L 354.315789 312.204697 
L 364.105263 315.499795 
L 373.894737 318.554253 
L 383.684211 321.373404 
L 393.473684 323.962582 
L 403.263158 326.327123 
L 413.052632 328.472359 
L 422.842105 330.403627 
L 432.631579 332.126259 
L 442.421053 333.645591 
L 453.609023 335.139874 
L 464.796992 336.383551 
L 475.984962 337.384586 
L 487.172932 338.15094 
L 498.360902 338.690577 
L 509.548872 339.01146 
L 520.736842 339.12155 
L 531.924812 339.02881 
L 544.511278 338.691948 
L 557.097744 338.119796 
L 569.684211 337.323689 
L 582.270677 336.314967 
L 596.255639 334.95859 
L 610.240602 333.369273 
L 624.225564 331.562568 
L 639.609023 329.342672 
L 648 328.036286 
L 648 328.036286 
" clip-path="url(#pd3023442a5)" style="fill: none; stroke: #0000ff; stroke-width: 2; stroke-linecap: square"/>
   </g>
   <g id="line2d_17">
    <path d="M 90 111.398107 
L 96.992481 122.264021 
L 103.984962 132.752376 
L 110.977444 142.870175 
L 117.969925 152.624421 
L 124.962406 162.022116 
L 131.954887 171.070264 
L 138.947368 179.775866 
L 145.93985 188.145927 
L 152.932331 196.187449 
L 159.924812 203.907434 
L 166.917293 211.312886 
L 173.909774 218.410807 
L 180.902256 225.2082 
L 187.894737 231.712068 
L 194.887218 237.929413 
L 201.879699 243.867239 
L 208.87218 249.532548 
L 215.864662 254.932342 
L 222.857143 260.073626 
L 229.849624 264.963402 
L 236.842105 269.608671 
L 243.834586 274.016438 
L 250.827068 278.193705 
L 257.819549 282.147475 
L 264.81203 285.88475 
L 273.203008 290.093568 
L 281.593985 294.012819 
L 289.984962 297.654603 
L 298.37594 301.031023 
L 306.766917 304.154177 
L 315.157895 307.036168 
L 323.548872 309.689096 
L 331.93985 312.125062 
L 340.330827 314.356167 
L 350.120301 316.716345 
L 359.909774 318.83337 
L 369.699248 320.726458 
L 380.887218 322.640429 
L 392.075188 324.315693 
L 404.661654 325.950748 
L 417.24812 327.360833 
L 431.233083 328.713411 
L 448.015038 330.11532 
L 473.18797 331.967437 
L 505.353383 334.362815 
L 522.135338 335.83324 
L 536.120301 337.266616 
L 548.706767 338.767841 
L 559.894737 340.304509 
L 571.082707 342.061405 
L 580.87218 343.801894 
L 590.661654 345.752171 
L 600.451128 347.931453 
L 610.240602 350.358954 
L 618.631579 352.651799 
L 627.022556 355.153227 
L 635.413534 357.87534 
L 643.804511 360.83024 
L 648 362.398766 
L 648 362.398766 
" clip-path="url(#pd3023442a5)" style="fill: none; stroke: #0000ff; stroke-width: 2; stroke-linecap: square"/>
   </g>
   <g id="line2d_18">
    <path d="M 90 169.58884 
L 101.18797 178.892399 
L 112.37594 187.903729 
L 123.56391 196.625684 
L 134.75188 205.06112 
L 145.93985 213.212891 
L 157.12782 221.083852 
L 168.315789 228.676859 
L 179.503759 235.994766 
L 190.691729 243.040427 
L 201.879699 249.816699 
L 213.067669 256.326436 
L 224.255639 262.572493 
L 235.443609 268.557725 
L 246.631579 274.284986 
L 257.819549 279.757132 
L 269.007519 284.977018 
L 280.195489 289.947498 
L 291.383459 294.671428 
L 302.571429 299.151663 
L 313.759398 303.391057 
L 324.947368 307.392465 
L 336.135338 311.158742 
L 347.323308 314.692744 
L 358.511278 317.997325 
L 369.699248 321.07534 
L 380.887218 323.929644 
L 392.075188 326.563092 
L 403.263158 328.978538 
L 414.451128 331.178839 
L 425.639098 333.166848 
L 436.827068 334.945421 
L 448.015038 336.517413 
L 459.203008 337.885678 
L 470.390977 339.053072 
L 482.977444 340.129841 
L 495.56391 340.96006 
L 508.150376 341.547794 
L 520.736842 341.897108 
L 533.323308 342.012067 
L 545.909774 341.896736 
L 558.496241 341.55518 
L 571.082707 340.991464 
L 583.669173 340.209653 
L 596.255639 339.213811 
L 608.842105 338.008004 
L 621.428571 336.596297 
L 635.413534 334.79119 
L 648 332.958153 
L 648 332.958153 
" clip-path="url(#pd3023442a5)" style="fill: none; stroke: #0000ff; stroke-width: 2; stroke-linecap: square"/>
   </g>
   <g id="line2d_19">
    <path d="M 90 136.287236 
L 98.390977 145.661298 
L 106.781955 154.746287 
L 115.172932 163.546682 
L 123.56391 172.066957 
L 131.954887 180.311588 
L 140.345865 188.285051 
L 148.736842 195.991823 
L 157.12782 203.436378 
L 165.518797 210.623194 
L 173.909774 217.556746 
L 182.300752 224.241509 
L 190.691729 230.681961 
L 200.481203 237.893008 
L 210.270677 244.78472 
L 220.06015 251.364202 
L 229.849624 257.638564 
L 239.639098 263.614912 
L 249.428571 269.300354 
L 259.218045 274.701998 
L 269.007519 279.826952 
L 278.796992 284.682322 
L 288.586466 289.275216 
L 298.37594 293.612743 
L 308.165414 297.702009 
L 317.954887 301.550123 
L 327.744361 305.164192 
L 337.533835 308.551323 
L 347.323308 311.718624 
L 357.112782 314.673202 
L 366.902256 317.422166 
L 378.090226 320.321184 
L 389.278195 322.971536 
L 400.466165 325.383833 
L 411.654135 327.568684 
L 422.842105 329.536699 
L 434.030075 331.298487 
L 446.616541 333.047203 
L 459.203008 334.563447 
L 471.789474 335.862326 
L 485.774436 337.068964 
L 499.759398 338.04662 
L 515.142857 338.882301 
L 530.526316 339.493569 
L 547.308271 339.936873 
L 565.488722 340.19431 
L 586.466165 340.261434 
L 611.639098 340.111179 
L 648 339.682742 
L 648 339.682742 
" clip-path="url(#pd3023442a5)" style="fill: none; stroke: #0000ff; stroke-width: 2; stroke-linecap: square"/>
   </g>
   <g id="line2d_20">
    <path d="M 90 130.649093 
L 96.992481 140.067754 
L 103.984962 149.164801 
L 110.977444 157.946383 
L 117.969925 166.418654 
L 124.962406 174.587763 
L 131.954887 182.459863 
L 138.947368 190.041105 
L 145.93985 197.33764 
L 152.932331 204.355619 
L 159.924812 211.101193 
L 166.917293 217.580515 
L 173.909774 223.799735 
L 180.902256 229.765004 
L 187.894737 235.482474 
L 194.887218 240.958297 
L 203.278195 247.21897 
L 211.669173 253.151157 
L 220.06015 258.765488 
L 228.451128 264.072593 
L 236.842105 269.083101 
L 245.233083 273.807641 
L 253.62406 278.256843 
L 262.015038 282.441336 
L 270.406015 286.37175 
L 278.796992 290.058715 
L 287.18797 293.512859 
L 295.578947 296.744812 
L 303.969925 299.765204 
L 313.759398 303.035785 
L 323.548872 306.049755 
L 333.338346 308.823993 
L 343.12782 311.375377 
L 354.315789 314.040017 
L 365.503759 316.460825 
L 376.691729 318.662998 
L 389.278195 320.910476 
L 403.263158 323.164171 
L 418.646617 325.404023 
L 436.827068 327.815036 
L 464.796992 331.263051 
L 495.56391 335.106952 
L 513.744361 337.608753 
L 529.12782 339.958948 
L 541.714286 342.089612 
L 554.300752 344.445808 
L 565.488722 346.758542 
L 576.676692 349.303014 
L 586.466165 351.739333 
L 596.255639 354.389247 
L 606.045113 357.269635 
L 615.834586 360.397376 
L 625.62406 363.78935 
L 634.015038 366.919858 
L 642.406015 370.267526 
L 648 372.625199 
L 648 372.625199 
" clip-path="url(#pd3023442a5)" style="fill: none; stroke: #0000ff; stroke-width: 2; stroke-linecap: square"/>
   </g>
   <g id="line2d_21">
    <path d="M 90 147.133294 
L 96.992481 156.390583 
L 103.984962 165.317362 
L 110.977444 173.919969 
L 117.969925 182.204742 
L 124.962406 190.178019 
L 131.954887 197.846138 
L 138.947368 205.215436 
L 145.93985 212.292251 
L 152.932331 219.082922 
L 159.924812 225.593786 
L 166.917293 231.831182 
L 173.909774 237.801447 
L 180.902256 243.510918 
L 187.894737 248.965935 
L 194.887218 254.172834 
L 201.879699 259.137954 
L 208.87218 263.867633 
L 215.864662 268.368208 
L 222.857143 272.646017 
L 231.24812 277.494262 
L 239.639098 282.041802 
L 248.030075 286.299591 
L 256.421053 290.278579 
L 264.81203 293.989719 
L 273.203008 297.443962 
L 281.593985 300.652261 
L 289.984962 303.625567 
L 298.37594 306.374833 
L 306.766917 308.911009 
L 316.556391 311.615172 
L 326.345865 314.061596 
L 336.135338 316.26767 
L 345.924812 318.250788 
L 355.714286 320.028339 
L 366.902256 321.830422 
L 378.090226 323.412685 
L 390.676692 324.962302 
L 404.661654 326.441295 
L 420.045113 327.831552 
L 438.225564 329.244614 
L 468.992481 331.367719 
L 495.56391 333.285422 
L 512.345865 334.70338 
L 526.330827 336.083524 
L 538.917293 337.524747 
L 551.503759 339.192917 
L 562.691729 340.896139 
L 573.879699 342.833843 
L 583.669173 344.742089 
L 593.458647 346.867127 
L 603.24812 349.226347 
L 613.037594 351.837141 
L 621.428571 354.28838 
L 629.819549 356.948178 
L 638.210526 359.827486 
L 646.601504 362.937257 
L 648 363.478727 
L 648 363.478727 
" clip-path="url(#pd3023442a5)" style="fill: none; stroke: #0000ff; stroke-width: 2; stroke-linecap: square"/>
   </g>
   <g id="patch_3">
    <path d="M 90 384.48 
L 90 51.84 
" style="fill: none; stroke: #000000; stroke-width: 0.8; stroke-linejoin: miter; stroke-linecap: square"/>
   </g>
   <g id="patch_4">
    <path d="M 648 384.48 
L 648 51.84 
" style="fill: none; stroke: #000000; stroke-width: 0.8; stroke-linejoin: miter; stroke-linecap: square"/>
   </g>
   <g id="patch_5">
    <path d="M 90 384.48 
L 648 384.48 
" style="fill: none; stroke: #000000; stroke-width: 0.8; stroke-linejoin: miter; stroke-linecap: square"/>
   </g>
   <g id="patch_6">
    <path d="M 90 51.84 
L 648 51.84 
" style="fill: none; stroke: #000000; stroke-width: 0.8; stroke-linejoin: miter; stroke-linecap: square"/>
   </g>
  </g>
 </g>
 <defs>
  <clipPath id="pd3023442a5">
   <rect x="90" y="51.84" width="558" height="332.64"/>
  </clipPath>
 </defs>
</svg>
