<?xml version="1.0" encoding="utf-8" standalone="no"?>
<!DOCTYPE svg PUBLIC "-//W3C//DTD SVG 1.1//EN"
  "http://www.w3.org/Graphics/SVG/1.1/DTD/svg11.dtd">
<svg xmlns:xlink="http://www.w3.org/1999/xlink" width="720pt" height="360pt" viewBox="0 0 720 360" xmlns="http://www.w3.org/2000/svg" version="1.1">
 <metadata>
  <rdf:RDF xmlns:dc="http://purl.org/dc/elements/1.1/" xmlns:cc="http://creativecommons.org/ns#" xmlns:rdf="http://www.w3.org/1999/02/22-rdf-syntax-ns#">
   <cc:Work>
    <dc:type rdf:resource="http://purl.org/dc/dcmitype/StillImage"/>
    <dc:date>2025-09-15T08:16:25.078342</dc:date>
    <dc:format>image/svg+xml</dc:format>
    <dc:creator>
     <cc:Agent>
      <dc:title>Matplotlib v3.9.4, https://matplotlib.org/</dc:title>
     </cc:Agent>
    </dc:creator>
   </cc:Work>
  </rdf:RDF>
 </metadata>
 <defs>
  <style type="text/css">*{stroke-linejoin: round; stroke-linecap: butt}</style>
 </defs>
 <g id="figure_1">
  <g id="patch_1">
   <path d="M 0 360 
L 720 360 
L 720 0 
L 0 0 
L 0 360 
z
" style="fill: none"/>
  </g>
  <g id="axes_1">
   <g id="patch_2">
    <path d="M 90 320.4 
L 343.636364 320.4 
L 343.636364 43.2 
L 90 43.2 
L 90 320.4 
z
" style="fill: none"/>
   </g>
   <g id="PolyCollection_1">
    <path d="M 101.528926 -490.366324 
L 101.528926 566.134274 
L 103.316356 479.900081 
L 105.103786 408.821973 
L 106.891217 350.537777 
L 108.678647 303.032996 
L 110.466077 264.593319 
L 112.253508 233.763191 
L 114.040938 209.309752 
L 115.828368 190.191495 
L 117.615799 175.5311 
L 119.403229 164.591885 
L 121.190659 156.757364 
L 122.97809 151.513373 
L 124.76552 148.432145 
L 126.55295 147.157643 
L 128.340381 147.391433 
L 130.127811 148.878656 
L 131.915241 151.394528 
L 133.702672 154.733187 
L 135.490102 158.701669 
L 137.277532 163.120639 
L 139.064963 167.830142 
L 140.852393 172.696011 
L 142.639823 177.613037 
L 144.427254 182.50391 
L 146.214684 187.315175 
L 148.002114 192.012104 
L 149.789544 196.573792 
L 151.576975 200.989105 
L 153.364405 205.253577 
L 155.151835 209.367164 
L 156.939266 213.332646 
L 158.726696 217.154527 
L 160.514126 220.838282 
L 162.301557 224.389839 
L 164.088987 227.815245 
L 165.876417 231.12044 
L 167.663848 234.311119 
L 169.451278 237.392646 
L 171.238708 240.370015 
L 173.026139 243.247836 
L 174.813569 246.030339 
L 176.600999 248.721396 
L 178.38843 251.324549 
L 180.17586 253.843042 
L 181.96329 256.279863 
L 183.750721 258.637776 
L 185.538151 260.919367 
L 187.325581 263.12708 
L 189.113012 265.263252 
L 190.900442 267.330154 
L 192.687872 269.330028 
L 194.475303 271.265118 
L 196.262733 273.137711 
L 198.050163 274.950174 
L 199.837594 276.704992 
L 201.625024 278.404811 
L 203.412454 280.052485 
L 205.199885 281.651123 
L 206.987315 283.204148 
L 208.774745 284.71535 
L 210.562176 286.188956 
L 212.349606 287.629691 
L 214.137036 289.042849 
L 215.924467 290.434354 
L 217.711897 291.810818 
L 219.499327 293.179572 
L 221.286758 294.548681 
L 223.074188 295.926915 
L 224.861618 297.323675 
L 226.649049 298.748863 
L 228.436479 300.212695 
L 230.223909 301.725472 
L 232.01134 303.297322 
L 233.79877 304.937938 
L 235.5862 306.656353 
L 237.373631 308.460779 
L 239.161061 310.358521 
L 240.948491 312.355987 
L 242.735922 314.458768 
L 244.523352 316.671787 
L 246.310782 318.999479 
L 248.098213 321.445982 
L 249.885643 324.015325 
L 251.673073 326.711602 
L 253.460504 329.539119 
L 255.247934 332.502522 
L 257.035364 335.606905 
L 258.822795 338.857898 
L 260.610225 342.261753 
L 262.397655 345.825413 
L 264.185086 349.556587 
L 265.972516 353.46383 
L 267.759946 357.556619 
L 269.547377 361.845451 
L 271.334807 366.341947 
L 273.122237 371.058979 
L 274.909667 376.010812 
L 276.697098 381.213281 
L 278.484528 386.683993 
L 280.271958 392.442575 
L 282.059389 398.510961 
L 283.846819 404.913752 
L 285.634249 411.678633 
L 287.42168 418.836891 
L 289.20911 426.424044 
L 290.99654 434.480607 
L 292.783971 443.053035 
L 294.571401 452.194891 
L 296.358831 461.968287 
L 298.146262 472.445679 
L 299.933692 483.712101 
L 301.721122 495.867949 
L 303.508553 509.032451 
L 305.295983 523.347981 
L 307.083413 538.985412 
L 308.870844 556.150722 
L 310.658274 575.093088 
L 312.445704 596.11473 
L 314.233135 619.582762 
L 316.020565 645.943288 
L 317.807995 675.73796 
L 319.595426 709.623175 
L 321.382856 748.39202 
L 323.170286 792.999072 
L 324.957717 844.588149 
L 326.745147 904.523175 
L 328.532577 974.422468 
L 330.320008 1056.196963 
L 332.107438 1152.09309 
L 332.107438 -457.732624 
L 332.107438 -457.732624 
L 330.320008 -365.48351 
L 328.532577 -287.031264 
L 326.745147 -220.186222 
L 324.957717 -163.084756 
L 323.170286 -114.147865 
L 321.382856 -72.044213 
L 319.595426 -35.656922 
L 317.807995 -4.053628 
L 316.020565 23.540489 
L 314.233135 47.766832 
L 312.445704 69.154782 
L 310.658274 88.14041 
L 308.870844 105.082641 
L 307.083413 120.277016 
L 305.295983 133.967264 
L 303.508553 146.354909 
L 301.721122 157.607181 
L 299.933692 167.863456 
L 298.146262 177.240476 
L 296.358831 185.836563 
L 294.571401 193.734997 
L 292.783971 201.006727 
L 290.99654 207.712553 
L 289.20911 213.904867 
L 287.42168 219.629062 
L 285.634249 224.924669 
L 283.846819 229.826272 
L 282.059389 234.364262 
L 280.271958 238.565445 
L 278.484528 242.453546 
L 276.697098 246.049627 
L 274.909667 249.372427 
L 273.122237 252.438649 
L 271.334807 255.263202 
L 269.547377 257.859399 
L 267.759946 260.23913 
L 265.972516 262.412998 
L 264.185086 264.39045 
L 262.397655 266.179872 
L 260.610225 267.788687 
L 258.822795 269.223427 
L 257.035364 270.489816 
L 255.247934 271.592834 
L 253.460504 272.536793 
L 251.673073 273.325411 
L 249.885643 273.961905 
L 248.098213 274.449093 
L 246.310782 274.78952 
L 244.523352 274.9856 
L 242.735922 275.039792 
L 240.948491 274.954777 
L 239.161061 274.733654 
L 237.373631 274.380113 
L 235.5862 273.898576 
L 233.79877 273.294282 
L 232.01134 272.573285 
L 230.223909 271.74237 
L 228.436479 270.808884 
L 226.649049 269.780506 
L 224.861618 268.664984 
L 223.074188 267.46987 
L 221.286758 266.202283 
L 219.499327 264.868723 
L 217.711897 263.474931 
L 215.924467 262.025809 
L 214.137036 260.525392 
L 212.349606 258.976843 
L 210.562176 257.382494 
L 208.774745 255.743886 
L 206.987315 254.061829 
L 205.199885 252.336464 
L 203.412454 250.567317 
L 201.625024 248.753364 
L 199.837594 246.893074 
L 198.050163 244.984463 
L 196.262733 243.025133 
L 194.475303 241.012314 
L 192.687872 238.942896 
L 190.900442 236.813462 
L 189.113012 234.620323 
L 187.325581 232.359546 
L 185.538151 230.026982 
L 183.750721 227.618306 
L 181.96329 225.129043 
L 180.17586 222.554608 
L 178.38843 219.890343 
L 176.600999 217.131558 
L 174.813569 214.273575 
L 173.026139 211.311772 
L 171.238708 208.241627 
L 169.451278 205.058766 
L 167.663848 201.758997 
L 165.876417 198.33835 
L 164.088987 194.793094 
L 162.301557 191.119739 
L 160.514126 187.315009 
L 158.726696 183.375766 
L 156.939266 179.298876 
L 155.151835 175.080959 
L 153.364405 170.718002 
L 151.576975 166.20475 
L 149.789544 161.533768 
L 148.002114 156.69406 
L 146.214684 151.669053 
L 144.427254 146.433792 
L 142.639823 140.951218 
L 140.852393 135.167665 
L 139.064963 129.00819 
L 137.277532 122.373087 
L 135.490102 115.137446 
L 133.702672 107.155077 
L 131.915241 98.26576 
L 130.127811 88.302005 
L 128.340381 77.090926 
L 126.55295 64.449543 
L 124.76552 50.175167 
L 122.97809 34.033652 
L 121.190659 15.747396 
L 119.403229 -5.016474 
L 117.615799 -28.658113 
L 115.828368 -55.657852 
L 114.040938 -86.59062 
L 112.253508 -122.142444 
L 110.466077 -163.129523 
L 108.678647 -210.520313 
L 106.891217 -265.4611 
L 105.103786 -329.305542 
L 103.316356 -403.648726 
L 101.528926 -490.366324 
z
" clip-path="url(#pd5954e3ee5)" style="fill: #1f77b4; fill-opacity: 0.3"/>
   </g>
   <g id="matplotlib.axis_1">
    <g id="xtick_1">
     <g id="line2d_1">
      <defs>
       <path id="mbe2786b1da" d="M 0 0 
L 0 3.5 
" style="stroke: #000000; stroke-width: 0.8"/>
      </defs>
      <g>
       <use xlink:href="#mbe2786b1da" x="134.468713" y="320.4" style="stroke: #000000; stroke-width: 0.8"/>
      </g>
     </g>
     <g id="text_1">
      <!-- 1900 -->
      <g transform="translate(106.473713 344.116562) scale(0.22 -0.22)">
       <defs>
        <path id="DejaVuSans-31" d="M 794 531 
L 1825 531 
L 1825 4091 
L 703 3866 
L 703 4441 
L 1819 4666 
L 2450 4666 
L 2450 531 
L 3481 531 
L 3481 0 
L 794 0 
L 794 531 
z
" transform="scale(0.015625)"/>
        <path id="DejaVuSans-39" d="M 703 97 
L 703 672 
Q 941 559 1184 500 
Q 1428 441 1663 441 
Q 2288 441 2617 861 
Q 2947 1281 2994 2138 
Q 2813 1869 2534 1725 
Q 2256 1581 1919 1581 
Q 1219 1581 811 2004 
Q 403 2428 403 3163 
Q 403 3881 828 4315 
Q 1253 4750 1959 4750 
Q 2769 4750 3195 4129 
Q 3622 3509 3622 2328 
Q 3622 1225 3098 567 
Q 2575 -91 1691 -91 
Q 1453 -91 1209 -44 
Q 966 3 703 97 
z
M 1959 2075 
Q 2384 2075 2632 2365 
Q 2881 2656 2881 3163 
Q 2881 3666 2632 3958 
Q 2384 4250 1959 4250 
Q 1534 4250 1286 3958 
Q 1038 3666 1038 3163 
Q 1038 2656 1286 2365 
Q 1534 2075 1959 2075 
z
" transform="scale(0.015625)"/>
        <path id="DejaVuSans-30" d="M 2034 4250 
Q 1547 4250 1301 3770 
Q 1056 3291 1056 2328 
Q 1056 1369 1301 889 
Q 1547 409 2034 409 
Q 2525 409 2770 889 
Q 3016 1369 3016 2328 
Q 3016 3291 2770 3770 
Q 2525 4250 2034 4250 
z
M 2034 4750 
Q 2819 4750 3233 4129 
Q 3647 3509 3647 2328 
Q 3647 1150 3233 529 
Q 2819 -91 2034 -91 
Q 1250 -91 836 529 
Q 422 1150 422 2328 
Q 422 3509 836 4129 
Q 1250 4750 2034 4750 
z
" transform="scale(0.015625)"/>
       </defs>
       <use xlink:href="#DejaVuSans-31"/>
       <use xlink:href="#DejaVuSans-39" x="63.623047"/>
       <use xlink:href="#DejaVuSans-30" x="127.246094"/>
       <use xlink:href="#DejaVuSans-30" x="190.869141"/>
      </g>
     </g>
    </g>
    <g id="xtick_2">
     <g id="line2d_2">
      <g>
       <use xlink:href="#mbe2786b1da" x="271.717828" y="320.4" style="stroke: #000000; stroke-width: 0.8"/>
      </g>
     </g>
     <g id="text_2">
      <!-- 2000 -->
      <g transform="translate(243.722828 344.116562) scale(0.22 -0.22)">
       <defs>
        <path id="DejaVuSans-32" d="M 1228 531 
L 3431 531 
L 3431 0 
L 469 0 
L 469 531 
Q 828 903 1448 1529 
Q 2069 2156 2228 2338 
Q 2531 2678 2651 2914 
Q 2772 3150 2772 3378 
Q 2772 3750 2511 3984 
Q 2250 4219 1831 4219 
Q 1534 4219 1204 4116 
Q 875 4013 500 3803 
L 500 4441 
Q 881 4594 1212 4672 
Q 1544 4750 1819 4750 
Q 2544 4750 2975 4387 
Q 3406 4025 3406 3419 
Q 3406 3131 3298 2873 
Q 3191 2616 2906 2266 
Q 2828 2175 2409 1742 
Q 1991 1309 1228 531 
z
" transform="scale(0.015625)"/>
       </defs>
       <use xlink:href="#DejaVuSans-32"/>
       <use xlink:href="#DejaVuSans-30" x="63.623047"/>
       <use xlink:href="#DejaVuSans-30" x="127.246094"/>
       <use xlink:href="#DejaVuSans-30" x="190.869141"/>
      </g>
     </g>
    </g>
   </g>
   <g id="matplotlib.axis_2">
    <g id="ytick_1">
     <g id="line2d_3">
      <defs>
       <path id="m56a7967641" d="M 0 0 
L -3.5 0 
" style="stroke: #000000; stroke-width: 0.8"/>
      </defs>
      <g>
       <use xlink:href="#m56a7967641" x="90" y="307.393025" style="stroke: #000000; stroke-width: 0.8"/>
      </g>
     </g>
     <g id="text_3">
      <!-- 3.0 -->
      <g transform="translate(48.013125 315.751307) scale(0.22 -0.22)">
       <defs>
        <path id="DejaVuSans-33" d="M 2597 2516 
Q 3050 2419 3304 2112 
Q 3559 1806 3559 1356 
Q 3559 666 3084 287 
Q 2609 -91 1734 -91 
Q 1441 -91 1130 -33 
Q 819 25 488 141 
L 488 750 
Q 750 597 1062 519 
Q 1375 441 1716 441 
Q 2309 441 2620 675 
Q 2931 909 2931 1356 
Q 2931 1769 2642 2001 
Q 2353 2234 1838 2234 
L 1294 2234 
L 1294 2753 
L 1863 2753 
Q 2328 2753 2575 2939 
Q 2822 3125 2822 3475 
Q 2822 3834 2567 4026 
Q 2313 4219 1838 4219 
Q 1578 4219 1281 4162 
Q 984 4106 628 3988 
L 628 4550 
Q 988 4650 1302 4700 
Q 1616 4750 1894 4750 
Q 2613 4750 3031 4423 
Q 3450 4097 3450 3541 
Q 3450 3153 3228 2886 
Q 3006 2619 2597 2516 
z
" transform="scale(0.015625)"/>
        <path id="DejaVuSans-2e" d="M 684 794 
L 1344 794 
L 1344 0 
L 684 0 
L 684 794 
z
" transform="scale(0.015625)"/>
       </defs>
       <use xlink:href="#DejaVuSans-33"/>
       <use xlink:href="#DejaVuSans-2e" x="63.623047"/>
       <use xlink:href="#DejaVuSans-30" x="95.410156"/>
      </g>
     </g>
    </g>
    <g id="ytick_2">
     <g id="line2d_4">
      <g>
       <use xlink:href="#m56a7967641" x="90" y="250.781056" style="stroke: #000000; stroke-width: 0.8"/>
      </g>
     </g>
     <g id="text_4">
      <!-- 3.5 -->
      <g transform="translate(48.013125 259.139338) scale(0.22 -0.22)">
       <defs>
        <path id="DejaVuSans-35" d="M 691 4666 
L 3169 4666 
L 3169 4134 
L 1269 4134 
L 1269 2991 
Q 1406 3038 1543 3061 
Q 1681 3084 1819 3084 
Q 2600 3084 3056 2656 
Q 3513 2228 3513 1497 
Q 3513 744 3044 326 
Q 2575 -91 1722 -91 
Q 1428 -91 1123 -41 
Q 819 9 494 109 
L 494 744 
Q 775 591 1075 516 
Q 1375 441 1709 441 
Q 2250 441 2565 725 
Q 2881 1009 2881 1497 
Q 2881 1984 2565 2268 
Q 2250 2553 1709 2553 
Q 1456 2553 1204 2497 
Q 953 2441 691 2322 
L 691 4666 
z
" transform="scale(0.015625)"/>
       </defs>
       <use xlink:href="#DejaVuSans-33"/>
       <use xlink:href="#DejaVuSans-2e" x="63.623047"/>
       <use xlink:href="#DejaVuSans-35" x="95.410156"/>
      </g>
     </g>
    </g>
    <g id="ytick_3">
     <g id="line2d_5">
      <g>
       <use xlink:href="#m56a7967641" x="90" y="194.169087" style="stroke: #000000; stroke-width: 0.8"/>
      </g>
     </g>
     <g id="text_5">
      <!-- 4.0 -->
      <g transform="translate(48.013125 202.527369) scale(0.22 -0.22)">
       <defs>
        <path id="DejaVuSans-34" d="M 2419 4116 
L 825 1625 
L 2419 1625 
L 2419 4116 
z
M 2253 4666 
L 3047 4666 
L 3047 1625 
L 3713 1625 
L 3713 1100 
L 3047 1100 
L 3047 0 
L 2419 0 
L 2419 1100 
L 313 1100 
L 313 1709 
L 2253 4666 
z
" transform="scale(0.015625)"/>
       </defs>
       <use xlink:href="#DejaVuSans-34"/>
       <use xlink:href="#DejaVuSans-2e" x="63.623047"/>
       <use xlink:href="#DejaVuSans-30" x="95.410156"/>
      </g>
     </g>
    </g>
    <g id="ytick_4">
     <g id="line2d_6">
      <g>
       <use xlink:href="#m56a7967641" x="90" y="137.557118" style="stroke: #000000; stroke-width: 0.8"/>
      </g>
     </g>
     <g id="text_6">
      <!-- 4.5 -->
      <g transform="translate(48.013125 145.9154) scale(0.22 -0.22)">
       <use xlink:href="#DejaVuSans-34"/>
       <use xlink:href="#DejaVuSans-2e" x="63.623047"/>
       <use xlink:href="#DejaVuSans-35" x="95.410156"/>
      </g>
     </g>
    </g>
    <g id="ytick_5">
     <g id="line2d_7">
      <g>
       <use xlink:href="#m56a7967641" x="90" y="80.94515" style="stroke: #000000; stroke-width: 0.8"/>
      </g>
     </g>
     <g id="text_7">
      <!-- 5.0 -->
      <g transform="translate(48.013125 89.303431) scale(0.22 -0.22)">
       <use xlink:href="#DejaVuSans-35"/>
       <use xlink:href="#DejaVuSans-2e" x="63.623047"/>
       <use xlink:href="#DejaVuSans-30" x="95.410156"/>
      </g>
     </g>
    </g>
   </g>
   <g id="line2d_8">
    <defs>
     <path id="mb1e1c3b2b5" d="M 0 3 
C 0.795609 3 1.55874 2.683901 2.12132 2.12132 
C 2.683901 1.55874 3 0.795609 3 0 
C 3 -0.795609 2.683901 -1.55874 2.12132 -2.12132 
C 1.55874 -2.683901 0.795609 -3 0 -3 
C -0.795609 -3 -1.55874 -2.683901 -2.12132 -2.12132 
C -2.683901 -1.55874 -3 -0.795609 -3 0 
C -3 0.795609 -2.683901 1.55874 -2.12132 2.12132 
C -1.55874 2.683901 -0.795609 3 0 3 
z
" style="stroke: #ff0000"/>
    </defs>
    <g clip-path="url(#pd5954e3ee5)">
     <use xlink:href="#mb1e1c3b2b5" x="128.978749" y="140.859483" style="fill: #ff0000; stroke: #ff0000"/>
     <use xlink:href="#mb1e1c3b2b5" x="134.468713" y="141.550611" style="fill: #ff0000; stroke: #ff0000"/>
     <use xlink:href="#mb1e1c3b2b5" x="139.958678" y="55.8" style="fill: #ff0000; stroke: #ff0000"/>
     <use xlink:href="#mb1e1c3b2b5" x="145.448642" y="176.655759" style="fill: #ff0000; stroke: #ff0000"/>
     <use xlink:href="#mb1e1c3b2b5" x="150.938607" y="205.115946" style="fill: #ff0000; stroke: #ff0000"/>
     <use xlink:href="#mb1e1c3b2b5" x="161.918536" y="242.910558" style="fill: #ff0000; stroke: #ff0000"/>
     <use xlink:href="#mb1e1c3b2b5" x="167.408501" y="214.034819" style="fill: #ff0000; stroke: #ff0000"/>
     <use xlink:href="#mb1e1c3b2b5" x="172.898465" y="236.646512" style="fill: #ff0000; stroke: #ff0000"/>
     <use xlink:href="#mb1e1c3b2b5" x="178.38843" y="240.269034" style="fill: #ff0000; stroke: #ff0000"/>
     <use xlink:href="#mb1e1c3b2b5" x="183.878394" y="246.387071" style="fill: #ff0000; stroke: #ff0000"/>
     <use xlink:href="#mb1e1c3b2b5" x="200.348288" y="231.521314" style="fill: #ff0000; stroke: #ff0000"/>
     <use xlink:href="#mb1e1c3b2b5" x="205.838253" y="263.202729" style="fill: #ff0000; stroke: #ff0000"/>
     <use xlink:href="#mb1e1c3b2b5" x="211.328217" y="257.979142" style="fill: #ff0000; stroke: #ff0000"/>
     <use xlink:href="#mb1e1c3b2b5" x="216.818182" y="284.088134" style="fill: #ff0000; stroke: #ff0000"/>
     <use xlink:href="#mb1e1c3b2b5" x="222.308146" y="292.361795" style="fill: #ff0000; stroke: #ff0000"/>
     <use xlink:href="#mb1e1c3b2b5" x="227.798111" y="270.233105" style="fill: #ff0000; stroke: #ff0000"/>
     <use xlink:href="#mb1e1c3b2b5" x="233.288076" y="292.01296" style="fill: #ff0000; stroke: #ff0000"/>
     <use xlink:href="#mb1e1c3b2b5" x="238.77804" y="298.452999" style="fill: #ff0000; stroke: #ff0000"/>
     <use xlink:href="#mb1e1c3b2b5" x="244.268005" y="295.411869" style="fill: #ff0000; stroke: #ff0000"/>
     <use xlink:href="#mb1e1c3b2b5" x="249.757969" y="299.973564" style="fill: #ff0000; stroke: #ff0000"/>
    </g>
   </g>
   <g id="line2d_9">
    <defs>
     <path id="m1ff8fbe771" d="M 0 3 
C 0.795609 3 1.55874 2.683901 2.12132 2.12132 
C 2.683901 1.55874 3 0.795609 3 0 
C 3 -0.795609 2.683901 -1.55874 2.12132 -2.12132 
C 1.55874 -2.683901 0.795609 -3 0 -3 
C -0.795609 -3 -1.55874 -2.683901 -2.12132 -2.12132 
C -2.683901 -1.55874 -3 -0.795609 -3 0 
C -3 0.795609 -2.683901 1.55874 -2.12132 2.12132 
C -1.55874 2.683901 -0.795609 3 0 3 
z
" style="stroke: #00ff00"/>
    </defs>
    <g clip-path="url(#pd5954e3ee5)">
     <use xlink:href="#m1ff8fbe771" x="255.247934" y="296.798266" style="fill: #00ff00; stroke: #00ff00"/>
     <use xlink:href="#m1ff8fbe771" x="260.737898" y="289.15072" style="fill: #00ff00; stroke: #00ff00"/>
     <use xlink:href="#m1ff8fbe771" x="266.227863" y="291.252677" style="fill: #00ff00; stroke: #00ff00"/>
     <use xlink:href="#m1ff8fbe771" x="271.717828" y="297.737439" style="fill: #00ff00; stroke: #00ff00"/>
     <use xlink:href="#m1ff8fbe771" x="277.207792" y="295.769649" style="fill: #00ff00; stroke: #00ff00"/>
     <use xlink:href="#m1ff8fbe771" x="282.697757" y="307.531665" style="fill: #00ff00; stroke: #00ff00"/>
     <use xlink:href="#m1ff8fbe771" x="288.187721" y="303.551363" style="fill: #00ff00; stroke: #00ff00"/>
     <use xlink:href="#m1ff8fbe771" x="293.677686" y="301.628296" style="fill: #00ff00; stroke: #00ff00"/>
     <use xlink:href="#m1ff8fbe771" x="299.167651" y="301.896631" style="fill: #00ff00; stroke: #00ff00"/>
     <use xlink:href="#m1ff8fbe771" x="304.657615" y="307.8" style="fill: #00ff00; stroke: #00ff00"/>
    </g>
   </g>
   <g id="line2d_10">
    <path d="M 101.528926 37.883975 
L 103.316356 38.125677 
L 105.103786 39.758215 
L 106.891217 42.538339 
L 108.678647 46.256342 
L 110.466077 50.731898 
L 112.253508 55.810374 
L 115.828368 67.266822 
L 119.403229 79.787705 
L 131.915241 124.830144 
L 135.490102 136.919558 
L 139.064963 148.419166 
L 142.639823 159.282128 
L 146.214684 169.492114 
L 149.789544 179.05378 
L 153.364405 187.98579 
L 156.939266 196.315761 
L 160.514126 204.076645 
L 164.088987 211.30417 
L 167.663848 218.035058 
L 171.238708 224.305821 
L 174.813569 230.151957 
L 178.38843 235.607446 
L 181.96329 240.704453 
L 185.538151 245.473175 
L 189.113012 249.941788 
L 192.687872 254.136462 
L 196.262733 258.081422 
L 201.625024 263.579087 
L 206.987315 268.632989 
L 212.349606 273.303267 
L 217.711897 277.642874 
L 223.074188 281.698392 
L 228.436479 285.51079 
L 235.5862 290.277465 
L 242.735922 294.74928 
L 251.673073 300.018506 
L 260.610225 305.02522 
L 273.122237 311.748814 
L 310.658274 331.616749 
L 316.020565 334.741888 
L 319.595426 336.983126 
L 323.170286 339.425603 
L 326.745147 342.168477 
L 330.320008 345.356726 
L 332.107438 347.180233 
L 332.107438 347.180233 
" clip-path="url(#pd5954e3ee5)" style="fill: none; stroke: #0000ff; stroke-width: 2; stroke-linecap: square"/>
   </g>
   <g id="patch_3">
    <path d="M 90 320.4 
L 90 43.2 
" style="fill: none; stroke: #000000; stroke-width: 0.8; stroke-linejoin: miter; stroke-linecap: square"/>
   </g>
   <g id="patch_4">
    <path d="M 343.636364 320.4 
L 343.636364 43.2 
" style="fill: none; stroke: #000000; stroke-width: 0.8; stroke-linejoin: miter; stroke-linecap: square"/>
   </g>
   <g id="patch_5">
    <path d="M 90 320.4 
L 343.636364 320.4 
" style="fill: none; stroke: #000000; stroke-width: 0.8; stroke-linejoin: miter; stroke-linecap: square"/>
   </g>
   <g id="patch_6">
    <path d="M 90 43.2 
L 343.636364 43.2 
" style="fill: none; stroke: #000000; stroke-width: 0.8; stroke-linejoin: miter; stroke-linecap: square"/>
   </g>
  </g>
  <g id="axes_2">
   <g id="patch_7">
    <path d="M 394.363636 320.4 
L 648 320.4 
L 648 43.2 
L 394.363636 43.2 
L 394.363636 320.4 
z
" style="fill: none"/>
   </g>
   <g id="matplotlib.axis_3">
    <g id="xtick_3">
     <g id="line2d_11">
      <g>
       <use xlink:href="#mbe2786b1da" x="394.363636" y="320.4" style="stroke: #000000; stroke-width: 0.8"/>
      </g>
     </g>
     <g id="text_8">
      <!-- 0 -->
      <g transform="translate(387.364886 344.116562) scale(0.22 -0.22)">
       <use xlink:href="#DejaVuSans-30"/>
      </g>
     </g>
    </g>
    <g id="xtick_4">
     <g id="line2d_12">
      <g>
       <use xlink:href="#mbe2786b1da" x="558" y="320.4" style="stroke: #000000; stroke-width: 0.8"/>
      </g>
     </g>
     <g id="text_9">
      <!-- 20 -->
      <g transform="translate(544.0025 344.116562) scale(0.22 -0.22)">
       <use xlink:href="#DejaVuSans-32"/>
       <use xlink:href="#DejaVuSans-30" x="63.623047"/>
      </g>
     </g>
    </g>
    <g id="text_10">
     <!-- number -->
     <g transform="translate(482.153693 367.88875) scale(0.2 -0.2)">
      <defs>
       <path id="DejaVuSans-6e" d="M 3513 2113 
L 3513 0 
L 2938 0 
L 2938 2094 
Q 2938 2591 2744 2837 
Q 2550 3084 2163 3084 
Q 1697 3084 1428 2787 
Q 1159 2491 1159 1978 
L 1159 0 
L 581 0 
L 581 3500 
L 1159 3500 
L 1159 2956 
Q 1366 3272 1645 3428 
Q 1925 3584 2291 3584 
Q 2894 3584 3203 3211 
Q 3513 2838 3513 2113 
z
" transform="scale(0.015625)"/>
       <path id="DejaVuSans-75" d="M 544 1381 
L 544 3500 
L 1119 3500 
L 1119 1403 
Q 1119 906 1312 657 
Q 1506 409 1894 409 
Q 2359 409 2629 706 
Q 2900 1003 2900 1516 
L 2900 3500 
L 3475 3500 
L 3475 0 
L 2900 0 
L 2900 538 
Q 2691 219 2414 64 
Q 2138 -91 1772 -91 
Q 1169 -91 856 284 
Q 544 659 544 1381 
z
M 1991 3584 
L 1991 3584 
z
" transform="scale(0.015625)"/>
       <path id="DejaVuSans-6d" d="M 3328 2828 
Q 3544 3216 3844 3400 
Q 4144 3584 4550 3584 
Q 5097 3584 5394 3201 
Q 5691 2819 5691 2113 
L 5691 0 
L 5113 0 
L 5113 2094 
Q 5113 2597 4934 2840 
Q 4756 3084 4391 3084 
Q 3944 3084 3684 2787 
Q 3425 2491 3425 1978 
L 3425 0 
L 2847 0 
L 2847 2094 
Q 2847 2600 2669 2842 
Q 2491 3084 2119 3084 
Q 1678 3084 1418 2786 
Q 1159 2488 1159 1978 
L 1159 0 
L 581 0 
L 581 3500 
L 1159 3500 
L 1159 2956 
Q 1356 3278 1631 3431 
Q 1906 3584 2284 3584 
Q 2666 3584 2933 3390 
Q 3200 3197 3328 2828 
z
" transform="scale(0.015625)"/>
       <path id="DejaVuSans-62" d="M 3116 1747 
Q 3116 2381 2855 2742 
Q 2594 3103 2138 3103 
Q 1681 3103 1420 2742 
Q 1159 2381 1159 1747 
Q 1159 1113 1420 752 
Q 1681 391 2138 391 
Q 2594 391 2855 752 
Q 3116 1113 3116 1747 
z
M 1159 2969 
Q 1341 3281 1617 3432 
Q 1894 3584 2278 3584 
Q 2916 3584 3314 3078 
Q 3713 2572 3713 1747 
Q 3713 922 3314 415 
Q 2916 -91 2278 -91 
Q 1894 -91 1617 61 
Q 1341 213 1159 525 
L 1159 0 
L 581 0 
L 581 4863 
L 1159 4863 
L 1159 2969 
z
" transform="scale(0.015625)"/>
       <path id="DejaVuSans-65" d="M 3597 1894 
L 3597 1613 
L 953 1613 
Q 991 1019 1311 708 
Q 1631 397 2203 397 
Q 2534 397 2845 478 
Q 3156 559 3463 722 
L 3463 178 
Q 3153 47 2828 -22 
Q 2503 -91 2169 -91 
Q 1331 -91 842 396 
Q 353 884 353 1716 
Q 353 2575 817 3079 
Q 1281 3584 2069 3584 
Q 2775 3584 3186 3129 
Q 3597 2675 3597 1894 
z
M 3022 2063 
Q 3016 2534 2758 2815 
Q 2500 3097 2075 3097 
Q 1594 3097 1305 2825 
Q 1016 2553 972 2059 
L 3022 2063 
z
" transform="scale(0.015625)"/>
       <path id="DejaVuSans-72" d="M 2631 2963 
Q 2534 3019 2420 3045 
Q 2306 3072 2169 3072 
Q 1681 3072 1420 2755 
Q 1159 2438 1159 1844 
L 1159 0 
L 581 0 
L 581 3500 
L 1159 3500 
L 1159 2956 
Q 1341 3275 1631 3429 
Q 1922 3584 2338 3584 
Q 2397 3584 2469 3576 
Q 2541 3569 2628 3553 
L 2631 2963 
z
" transform="scale(0.015625)"/>
      </defs>
      <use xlink:href="#DejaVuSans-6e"/>
      <use xlink:href="#DejaVuSans-75" x="63.378906"/>
      <use xlink:href="#DejaVuSans-6d" x="126.757812"/>
      <use xlink:href="#DejaVuSans-62" x="224.169922"/>
      <use xlink:href="#DejaVuSans-65" x="287.646484"/>
      <use xlink:href="#DejaVuSans-72" x="349.169922"/>
     </g>
    </g>
   </g>
   <g id="matplotlib.axis_4">
    <g id="ytick_6">
     <g id="line2d_13">
      <g>
       <use xlink:href="#m56a7967641" x="394.363636" y="320.4" style="stroke: #000000; stroke-width: 0.8"/>
      </g>
     </g>
     <g id="text_11">
      <!-- 0.1 -->
      <g transform="translate(352.376761 328.758281) scale(0.22 -0.22)">
       <use xlink:href="#DejaVuSans-30"/>
       <use xlink:href="#DejaVuSans-2e" x="63.623047"/>
       <use xlink:href="#DejaVuSans-31" x="95.410156"/>
      </g>
     </g>
    </g>
    <g id="ytick_7">
     <g id="line2d_14">
      <g>
       <use xlink:href="#m56a7967641" x="394.363636" y="264.96" style="stroke: #000000; stroke-width: 0.8"/>
      </g>
     </g>
     <g id="text_12">
      <!-- 0.2 -->
      <g transform="translate(352.376761 273.318281) scale(0.22 -0.22)">
       <use xlink:href="#DejaVuSans-30"/>
       <use xlink:href="#DejaVuSans-2e" x="63.623047"/>
       <use xlink:href="#DejaVuSans-32" x="95.410156"/>
      </g>
     </g>
    </g>
    <g id="ytick_8">
     <g id="line2d_15">
      <g>
       <use xlink:href="#m56a7967641" x="394.363636" y="209.52" style="stroke: #000000; stroke-width: 0.8"/>
      </g>
     </g>
     <g id="text_13">
      <!-- 0.3 -->
      <g transform="translate(352.376761 217.878281) scale(0.22 -0.22)">
       <use xlink:href="#DejaVuSans-30"/>
       <use xlink:href="#DejaVuSans-2e" x="63.623047"/>
       <use xlink:href="#DejaVuSans-33" x="95.410156"/>
      </g>
     </g>
    </g>
    <g id="ytick_9">
     <g id="line2d_16">
      <g>
       <use xlink:href="#m56a7967641" x="394.363636" y="154.08" style="stroke: #000000; stroke-width: 0.8"/>
      </g>
     </g>
     <g id="text_14">
      <!-- 0.4 -->
      <g transform="translate(352.376761 162.438281) scale(0.22 -0.22)">
       <use xlink:href="#DejaVuSans-30"/>
       <use xlink:href="#DejaVuSans-2e" x="63.623047"/>
       <use xlink:href="#DejaVuSans-34" x="95.410156"/>
      </g>
     </g>
    </g>
    <g id="ytick_10">
     <g id="line2d_17">
      <g>
       <use xlink:href="#m56a7967641" x="394.363636" y="98.64" style="stroke: #000000; stroke-width: 0.8"/>
      </g>
     </g>
     <g id="text_15">
      <!-- 0.5 -->
      <g transform="translate(352.376761 106.998281) scale(0.22 -0.22)">
       <use xlink:href="#DejaVuSans-30"/>
       <use xlink:href="#DejaVuSans-2e" x="63.623047"/>
       <use xlink:href="#DejaVuSans-35" x="95.410156"/>
      </g>
     </g>
    </g>
    <g id="ytick_11">
     <g id="line2d_18">
      <g>
       <use xlink:href="#m56a7967641" x="394.363636" y="43.2" style="stroke: #000000; stroke-width: 0.8"/>
      </g>
     </g>
     <g id="text_16">
      <!-- 0.6 -->
      <g transform="translate(352.376761 51.558281) scale(0.22 -0.22)">
       <defs>
        <path id="DejaVuSans-36" d="M 2113 2584 
Q 1688 2584 1439 2293 
Q 1191 2003 1191 1497 
Q 1191 994 1439 701 
Q 1688 409 2113 409 
Q 2538 409 2786 701 
Q 3034 994 3034 1497 
Q 3034 2003 2786 2293 
Q 2538 2584 2113 2584 
z
M 3366 4563 
L 3366 3988 
Q 3128 4100 2886 4159 
Q 2644 4219 2406 4219 
Q 1781 4219 1451 3797 
Q 1122 3375 1075 2522 
Q 1259 2794 1537 2939 
Q 1816 3084 2150 3084 
Q 2853 3084 3261 2657 
Q 3669 2231 3669 1497 
Q 3669 778 3244 343 
Q 2819 -91 2113 -91 
Q 1303 -91 875 529 
Q 447 1150 447 2328 
Q 447 3434 972 4092 
Q 1497 4750 2381 4750 
Q 2619 4750 2861 4703 
Q 3103 4656 3366 4563 
z
" transform="scale(0.015625)"/>
       </defs>
       <use xlink:href="#DejaVuSans-30"/>
       <use xlink:href="#DejaVuSans-2e" x="63.623047"/>
       <use xlink:href="#DejaVuSans-36" x="95.410156"/>
      </g>
     </g>
    </g>
   </g>
   <g id="line2d_19">
    <g clip-path="url(#p2423053699)">
     <use xlink:href="#mb1e1c3b2b5" x="402.545455" y="60.048498" style="fill: #ff0000; stroke: #ff0000"/>
    </g>
   </g>
   <g id="line2d_20">
    <g clip-path="url(#p2423053699)">
     <use xlink:href="#mb1e1c3b2b5" x="410.727273" y="59.826456" style="fill: #ff0000; stroke: #ff0000"/>
    </g>
   </g>
   <g id="line2d_21">
    <g clip-path="url(#p2423053699)">
     <use xlink:href="#mb1e1c3b2b5" x="418.909091" y="289.71968" style="fill: #ff0000; stroke: #ff0000"/>
    </g>
   </g>
   <g id="line2d_22">
    <g clip-path="url(#p2423053699)">
     <use xlink:href="#mb1e1c3b2b5" x="427.090909" y="272.544616" style="fill: #ff0000; stroke: #ff0000"/>
    </g>
   </g>
   <g id="line2d_23">
    <g clip-path="url(#p2423053699)">
     <use xlink:href="#mb1e1c3b2b5" x="435.272727" y="306.003135" style="fill: #ff0000; stroke: #ff0000"/>
    </g>
   </g>
   <g id="line2d_24">
    <g clip-path="url(#p2423053699)">
     <use xlink:href="#mb1e1c3b2b5" x="443.454545" y="290.914042" style="fill: #ff0000; stroke: #ff0000"/>
    </g>
   </g>
   <g id="line2d_25">
    <g clip-path="url(#p2423053699)">
     <use xlink:href="#mb1e1c3b2b5" x="451.636364" y="292.731336" style="fill: #ff0000; stroke: #ff0000"/>
    </g>
   </g>
   <g id="line2d_26">
    <g clip-path="url(#p2423053699)">
     <use xlink:href="#mb1e1c3b2b5" x="459.818182" y="294.015238" style="fill: #ff0000; stroke: #ff0000"/>
    </g>
   </g>
   <g id="line2d_27">
    <g clip-path="url(#p2423053699)">
     <use xlink:href="#mb1e1c3b2b5" x="468" y="292.47289" style="fill: #ff0000; stroke: #ff0000"/>
    </g>
   </g>
   <g id="line2d_28">
    <g clip-path="url(#p2423053699)">
     <use xlink:href="#mb1e1c3b2b5" x="476.181818" y="294.160285" style="fill: #ff0000; stroke: #ff0000"/>
    </g>
   </g>
   <g id="line2d_29">
    <g clip-path="url(#p2423053699)">
     <use xlink:href="#mb1e1c3b2b5" x="484.363636" y="293.119094" style="fill: #ff0000; stroke: #ff0000"/>
    </g>
   </g>
   <g id="line2d_30">
    <g clip-path="url(#p2423053699)">
     <use xlink:href="#mb1e1c3b2b5" x="492.545455" y="293.940717" style="fill: #ff0000; stroke: #ff0000"/>
    </g>
   </g>
   <g id="line2d_31">
    <g clip-path="url(#p2423053699)">
     <use xlink:href="#mb1e1c3b2b5" x="500.727273" y="293.460709" style="fill: #ff0000; stroke: #ff0000"/>
    </g>
   </g>
   <g id="line2d_32">
    <g clip-path="url(#p2423053699)">
     <use xlink:href="#mb1e1c3b2b5" x="508.909091" y="293.787645" style="fill: #ff0000; stroke: #ff0000"/>
    </g>
   </g>
   <g id="line2d_33">
    <g clip-path="url(#p2423053699)">
     <use xlink:href="#mb1e1c3b2b5" x="517.090909" y="293.594466" style="fill: #ff0000; stroke: #ff0000"/>
    </g>
   </g>
   <g id="patch_8">
    <path d="M 394.363636 320.4 
L 394.363636 43.2 
" style="fill: none; stroke: #000000; stroke-width: 0.8; stroke-linejoin: miter; stroke-linecap: square"/>
   </g>
   <g id="patch_9">
    <path d="M 648 320.4 
L 648 43.2 
" style="fill: none; stroke: #000000; stroke-width: 0.8; stroke-linejoin: miter; stroke-linecap: square"/>
   </g>
   <g id="patch_10">
    <path d="M 394.363636 320.4 
L 648 320.4 
" style="fill: none; stroke: #000000; stroke-width: 0.8; stroke-linejoin: miter; stroke-linecap: square"/>
   </g>
   <g id="patch_11">
    <path d="M 394.363636 43.2 
L 648 43.2 
" style="fill: none; stroke: #000000; stroke-width: 0.8; stroke-linejoin: miter; stroke-linecap: square"/>
   </g>
   <g id="text_17">
    <!-- Hold Out Validation -->
    <g transform="translate(424.549006 37.2) scale(0.2 -0.2)">
     <defs>
      <path id="DejaVuSans-48" d="M 628 4666 
L 1259 4666 
L 1259 2753 
L 3553 2753 
L 3553 4666 
L 4184 4666 
L 4184 0 
L 3553 0 
L 3553 2222 
L 1259 2222 
L 1259 0 
L 628 0 
L 628 4666 
z
" transform="scale(0.015625)"/>
      <path id="DejaVuSans-6f" d="M 1959 3097 
Q 1497 3097 1228 2736 
Q 959 2375 959 1747 
Q 959 1119 1226 758 
Q 1494 397 1959 397 
Q 2419 397 2687 759 
Q 2956 1122 2956 1747 
Q 2956 2369 2687 2733 
Q 2419 3097 1959 3097 
z
M 1959 3584 
Q 2709 3584 3137 3096 
Q 3566 2609 3566 1747 
Q 3566 888 3137 398 
Q 2709 -91 1959 -91 
Q 1206 -91 779 398 
Q 353 888 353 1747 
Q 353 2609 779 3096 
Q 1206 3584 1959 3584 
z
" transform="scale(0.015625)"/>
      <path id="DejaVuSans-6c" d="M 603 4863 
L 1178 4863 
L 1178 0 
L 603 0 
L 603 4863 
z
" transform="scale(0.015625)"/>
      <path id="DejaVuSans-64" d="M 2906 2969 
L 2906 4863 
L 3481 4863 
L 3481 0 
L 2906 0 
L 2906 525 
Q 2725 213 2448 61 
Q 2172 -91 1784 -91 
Q 1150 -91 751 415 
Q 353 922 353 1747 
Q 353 2572 751 3078 
Q 1150 3584 1784 3584 
Q 2172 3584 2448 3432 
Q 2725 3281 2906 2969 
z
M 947 1747 
Q 947 1113 1208 752 
Q 1469 391 1925 391 
Q 2381 391 2643 752 
Q 2906 1113 2906 1747 
Q 2906 2381 2643 2742 
Q 2381 3103 1925 3103 
Q 1469 3103 1208 2742 
Q 947 2381 947 1747 
z
" transform="scale(0.015625)"/>
      <path id="DejaVuSans-20" transform="scale(0.015625)"/>
      <path id="DejaVuSans-4f" d="M 2522 4238 
Q 1834 4238 1429 3725 
Q 1025 3213 1025 2328 
Q 1025 1447 1429 934 
Q 1834 422 2522 422 
Q 3209 422 3611 934 
Q 4013 1447 4013 2328 
Q 4013 3213 3611 3725 
Q 3209 4238 2522 4238 
z
M 2522 4750 
Q 3503 4750 4090 4092 
Q 4678 3434 4678 2328 
Q 4678 1225 4090 567 
Q 3503 -91 2522 -91 
Q 1538 -91 948 565 
Q 359 1222 359 2328 
Q 359 3434 948 4092 
Q 1538 4750 2522 4750 
z
" transform="scale(0.015625)"/>
      <path id="DejaVuSans-74" d="M 1172 4494 
L 1172 3500 
L 2356 3500 
L 2356 3053 
L 1172 3053 
L 1172 1153 
Q 1172 725 1289 603 
Q 1406 481 1766 481 
L 2356 481 
L 2356 0 
L 1766 0 
Q 1100 0 847 248 
Q 594 497 594 1153 
L 594 3053 
L 172 3053 
L 172 3500 
L 594 3500 
L 594 4494 
L 1172 4494 
z
" transform="scale(0.015625)"/>
      <path id="DejaVuSans-56" d="M 1831 0 
L 50 4666 
L 709 4666 
L 2188 738 
L 3669 4666 
L 4325 4666 
L 2547 0 
L 1831 0 
z
" transform="scale(0.015625)"/>
      <path id="DejaVuSans-61" d="M 2194 1759 
Q 1497 1759 1228 1600 
Q 959 1441 959 1056 
Q 959 750 1161 570 
Q 1363 391 1709 391 
Q 2188 391 2477 730 
Q 2766 1069 2766 1631 
L 2766 1759 
L 2194 1759 
z
M 3341 1997 
L 3341 0 
L 2766 0 
L 2766 531 
Q 2569 213 2275 61 
Q 1981 -91 1556 -91 
Q 1019 -91 701 211 
Q 384 513 384 1019 
Q 384 1609 779 1909 
Q 1175 2209 1959 2209 
L 2766 2209 
L 2766 2266 
Q 2766 2663 2505 2880 
Q 2244 3097 1772 3097 
Q 1472 3097 1187 3025 
Q 903 2953 641 2809 
L 641 3341 
Q 956 3463 1253 3523 
Q 1550 3584 1831 3584 
Q 2591 3584 2966 3190 
Q 3341 2797 3341 1997 
z
" transform="scale(0.015625)"/>
      <path id="DejaVuSans-69" d="M 603 3500 
L 1178 3500 
L 1178 0 
L 603 0 
L 603 3500 
z
M 603 4863 
L 1178 4863 
L 1178 4134 
L 603 4134 
L 603 4863 
z
" transform="scale(0.015625)"/>
     </defs>
     <use xlink:href="#DejaVuSans-48"/>
     <use xlink:href="#DejaVuSans-6f" x="75.195312"/>
     <use xlink:href="#DejaVuSans-6c" x="136.376953"/>
     <use xlink:href="#DejaVuSans-64" x="164.160156"/>
     <use xlink:href="#DejaVuSans-20" x="227.636719"/>
     <use xlink:href="#DejaVuSans-4f" x="259.423828"/>
     <use xlink:href="#DejaVuSans-75" x="338.134766"/>
     <use xlink:href="#DejaVuSans-74" x="401.513672"/>
     <use xlink:href="#DejaVuSans-20" x="440.722656"/>
     <use xlink:href="#DejaVuSans-56" x="472.509766"/>
     <use xlink:href="#DejaVuSans-61" x="533.167969"/>
     <use xlink:href="#DejaVuSans-6c" x="594.447266"/>
     <use xlink:href="#DejaVuSans-69" x="622.230469"/>
     <use xlink:href="#DejaVuSans-64" x="650.013672"/>
     <use xlink:href="#DejaVuSans-61" x="713.490234"/>
     <use xlink:href="#DejaVuSans-74" x="774.769531"/>
     <use xlink:href="#DejaVuSans-69" x="813.978516"/>
     <use xlink:href="#DejaVuSans-6f" x="841.761719"/>
     <use xlink:href="#DejaVuSans-6e" x="902.943359"/>
    </g>
   </g>
  </g>
 </g>
 <defs>
  <clipPath id="pd5954e3ee5">
   <rect x="90" y="43.2" width="253.636364" height="277.2"/>
  </clipPath>
  <clipPath id="p2423053699">
   <rect x="394.363636" y="43.2" width="253.636364" height="277.2"/>
  </clipPath>
 </defs>
</svg>
