<?xml version="1.0" encoding="utf-8" standalone="no"?>
<!DOCTYPE svg PUBLIC "-//W3C//DTD SVG 1.1//EN"
  "http://www.w3.org/Graphics/SVG/1.1/DTD/svg11.dtd">
<svg xmlns:xlink="http://www.w3.org/1999/xlink" width="720pt" height="360pt" viewBox="0 0 720 360" xmlns="http://www.w3.org/2000/svg" version="1.1">
 <metadata>
  <rdf:RDF xmlns:dc="http://purl.org/dc/elements/1.1/" xmlns:cc="http://creativecommons.org/ns#" xmlns:rdf="http://www.w3.org/1999/02/22-rdf-syntax-ns#">
   <cc:Work>
    <dc:type rdf:resource="http://purl.org/dc/dcmitype/StillImage"/>
    <dc:date>2025-09-15T08:16:18.465894</dc:date>
    <dc:format>image/svg+xml</dc:format>
    <dc:creator>
     <cc:Agent>
      <dc:title>Matplotlib v3.9.4, https://matplotlib.org/</dc:title>
     </cc:Agent>
    </dc:creator>
   </cc:Work>
  </rdf:RDF>
 </metadata>
 <defs>
  <style type="text/css">*{stroke-linejoin: round; stroke-linecap: butt}</style>
 </defs>
 <g id="figure_1">
  <g id="patch_1">
   <path d="M 0 360 
L 720 360 
L 720 0 
L 0 0 
L 0 360 
z
" style="fill: none"/>
  </g>
  <g id="axes_1">
   <g id="patch_2">
    <path d="M 90 320.4 
L 343.636364 320.4 
L 343.636364 43.2 
L 90 43.2 
L 90 320.4 
z
" style="fill: none"/>
   </g>
   <g id="PolyCollection_1">
    <path d="M 101.528926 -581.631881 
L 101.528926 705.337004 
L 103.316356 582.104157 
L 105.103786 483.264631 
L 106.891217 404.298702 
L 108.678647 341.501705 
L 110.466077 291.843471 
L 112.253508 252.850797 
L 114.040938 222.50939 
L 115.828368 199.182256 
L 117.615799 181.541923 
L 119.403229 168.514296 
L 121.190659 159.232185 
L 122.97809 152.996791 
L 124.76552 149.245549 
L 126.55295 147.524828 
L 128.340381 147.466111 
L 130.127811 148.764713 
L 131.915241 151.161027 
L 133.702672 154.425673 
L 135.490102 158.350748 
L 137.277532 162.748235 
L 139.064963 167.453584 
L 140.852393 172.330213 
L 142.639823 177.271332 
L 144.427254 182.198151 
L 146.214684 187.055575 
L 148.002114 191.807058 
L 149.789544 196.42978 
L 151.576975 200.91068 
L 153.364405 205.24343 
L 155.151835 209.42623 
L 156.939266 213.460251 
L 158.726696 217.348548 
L 160.514126 221.095314 
L 162.301557 224.705382 
L 164.088987 228.183878 
L 165.876417 231.536001 
L 167.663848 234.766881 
L 169.451278 237.881487 
L 171.238708 240.884574 
L 173.026139 243.780663 
L 174.813569 246.574029 
L 176.600999 249.268704 
L 178.38843 251.868488 
L 180.17586 254.376965 
L 181.96329 256.79752 
L 183.750721 259.133355 
L 185.538151 261.387508 
L 187.325581 263.562871 
L 189.113012 265.662205 
L 190.900442 267.688152 
L 192.687872 269.643253 
L 194.475303 271.529953 
L 196.262733 273.350617 
L 198.050163 275.107534 
L 199.837594 276.802926 
L 201.625024 278.438954 
L 203.412454 280.017723 
L 205.199885 281.541287 
L 206.987315 283.011652 
L 208.774745 284.430779 
L 210.562176 285.80059 
L 212.349606 287.122963 
L 214.137036 288.399741 
L 215.924467 289.632731 
L 217.711897 290.823706 
L 219.499327 291.974403 
L 221.286758 293.08653 
L 223.074188 294.161762 
L 224.861618 295.201745 
L 226.649049 296.208092 
L 228.436479 297.182391 
L 230.223909 298.126195 
L 232.01134 299.041029 
L 233.79877 299.928389 
L 235.5862 300.789735 
L 237.373631 301.626494 
L 239.161061 302.440057 
L 240.948491 303.231772 
L 242.735922 304.002946 
L 244.523352 304.754834 
L 246.310782 305.488636 
L 248.098213 306.205489 
L 249.885643 306.90646 
L 251.673073 307.592535 
L 253.460504 308.264611 
L 255.247934 308.923487 
L 257.035364 309.569848 
L 258.822795 310.204261 
L 260.610225 310.827161 
L 262.397655 311.438846 
L 264.185086 312.039475 
L 265.972516 312.629067 
L 267.759946 313.207521 
L 269.547377 313.774637 
L 271.334807 314.330171 
L 273.122237 314.873918 
L 274.909667 315.405845 
L 276.697098 315.926296 
L 278.484528 316.436299 
L 280.271958 316.938031 
L 282.059389 317.435493 
L 283.846819 317.935498 
L 285.634249 318.449083 
L 287.42168 318.993485 
L 289.20911 319.594824 
L 290.99654 320.291544 
L 292.783971 321.138508 
L 294.571401 322.211224 
L 296.358831 323.609244 
L 298.146262 325.457511 
L 299.933692 327.904963 
L 301.721122 331.121363 
L 303.508553 335.295126 
L 305.295983 340.635263 
L 307.083413 347.378944 
L 308.870844 355.804109 
L 310.658274 366.245649 
L 312.445704 379.114246 
L 314.233135 394.917876 
L 316.020565 414.28676 
L 317.807995 438.002893 
L 319.595426 467.035514 
L 321.382856 502.583951 
L 323.170286 546.129474 
L 324.957717 599.497953 
L 326.745147 664.935451 
L 328.532577 745.199173 
L 330.320008 843.666658 
L 332.107438 964.466564 
L 332.107438 -317.396293 
L 332.107438 -317.396293 
L 330.320008 -201.464441 
L 328.532577 -107.328853 
L 326.745147 -30.913211 
L 324.957717 31.110815 
L 323.170286 81.454575 
L 321.382856 122.321709 
L 319.595426 155.499092 
L 317.807995 182.432328 
L 316.020565 204.288287 
L 314.233135 222.006771 
L 312.445704 236.343178 
L 310.658274 247.903758 
L 308.870844 257.174943 
L 307.083413 264.548082 
L 305.295983 270.340754 
L 303.508553 274.815407 
L 301.721122 278.195372 
L 299.933692 280.677296 
L 298.146262 282.438556 
L 296.358831 283.639062 
L 294.571401 284.418951 
L 292.783971 284.8953 
L 290.99654 285.160632 
L 289.20911 285.284157 
L 287.42168 285.315092 
L 285.634249 285.286811 
L 283.846819 285.220869 
L 282.059389 285.130385 
L 280.271958 285.022668 
L 278.484528 284.901148 
L 276.697098 284.766744 
L 274.909667 284.618812 
L 273.122237 284.455791 
L 271.334807 284.275632 
L 269.547377 284.076081 
L 267.759946 283.854861 
L 265.972516 283.60978 
L 264.185086 283.338799 
L 262.397655 283.040064 
L 260.610225 282.711917 
L 258.822795 282.352897 
L 257.035364 281.961728 
L 255.247934 281.537306 
L 253.460504 281.07868 
L 251.673073 280.585031 
L 249.885643 280.055655 
L 248.098213 279.489944 
L 246.310782 278.887363 
L 244.523352 278.247436 
L 242.735922 277.56973 
L 240.948491 276.853837 
L 239.161061 276.099363 
L 237.373631 275.305913 
L 235.5862 274.473084 
L 233.79877 273.600447 
L 232.01134 272.687547 
L 230.223909 271.733885 
L 228.436479 270.738917 
L 226.649049 269.702045 
L 224.861618 268.622609 
L 223.074188 267.49988 
L 221.286758 266.333057 
L 219.499327 265.121258 
L 217.711897 263.863519 
L 215.924467 262.558782 
L 214.137036 261.205894 
L 212.349606 259.803604 
L 210.562176 258.350552 
L 208.774745 256.845268 
L 206.987315 255.286166 
L 205.199885 253.671541 
L 203.412454 251.999561 
L 201.625024 250.268267 
L 199.837594 248.47557 
L 198.050163 246.619243 
L 196.262733 244.696924 
L 194.475303 242.706115 
L 192.687872 240.644177 
L 190.900442 238.508339 
L 189.113012 236.295698 
L 187.325581 234.003222 
L 185.538151 231.627762 
L 183.750721 229.166061 
L 181.96329 226.614765 
L 180.17586 223.97044 
L 178.38843 221.229593 
L 176.600999 218.388692 
L 174.813569 215.444193 
L 173.026139 212.392563 
L 171.238708 209.230317 
L 169.451278 205.954042 
L 167.663848 202.560429 
L 165.876417 199.046295 
L 164.088987 195.4086 
L 162.301557 191.644446 
L 160.514126 187.751055 
L 158.726696 183.725694 
L 156.939266 179.565557 
L 155.151835 175.267533 
L 153.364405 170.827848 
L 151.576975 166.241486 
L 149.789544 161.50131 
L 148.002114 156.596748 
L 146.214684 151.511886 
L 144.427254 146.222793 
L 142.639823 140.693978 
L 140.852393 134.874076 
L 139.064963 128.691301 
L 137.277532 122.04987 
L 135.490102 114.829058 
L 133.702672 106.886051 
L 131.915241 98.061661 
L 130.127811 88.185341 
L 128.340381 77.075309 
L 126.55295 64.531822 
L 124.76552 50.324718 
L 122.97809 34.177503 
L 121.190659 15.749405 
L 119.403229 -5.384487 
L 117.615799 -29.755879 
L 115.828368 -58.029948 
L 114.040938 -91.03742 
L 112.253508 -129.813478 
L 110.466077 -175.645048 
L 108.678647 -230.128182 
L 106.891217 -295.237521 
L 105.103786 -373.410149 
L 103.316356 -467.646556 
L 101.528926 -581.631881 
z
" clip-path="url(#p474809c393)" style="fill: #1f77b4; fill-opacity: 0.3"/>
   </g>
   <g id="matplotlib.axis_1">
    <g id="xtick_1">
     <g id="line2d_1">
      <defs>
       <path id="me00949a0f0" d="M 0 0 
L 0 3.5 
" style="stroke: #000000; stroke-width: 0.8"/>
      </defs>
      <g>
       <use xlink:href="#me00949a0f0" x="134.468713" y="320.4" style="stroke: #000000; stroke-width: 0.8"/>
      </g>
     </g>
     <g id="text_1">
      <!-- 1900 -->
      <g transform="translate(106.473713 344.116562) scale(0.22 -0.22)">
       <defs>
        <path id="DejaVuSans-31" d="M 794 531 
L 1825 531 
L 1825 4091 
L 703 3866 
L 703 4441 
L 1819 4666 
L 2450 4666 
L 2450 531 
L 3481 531 
L 3481 0 
L 794 0 
L 794 531 
z
" transform="scale(0.015625)"/>
        <path id="DejaVuSans-39" d="M 703 97 
L 703 672 
Q 941 559 1184 500 
Q 1428 441 1663 441 
Q 2288 441 2617 861 
Q 2947 1281 2994 2138 
Q 2813 1869 2534 1725 
Q 2256 1581 1919 1581 
Q 1219 1581 811 2004 
Q 403 2428 403 3163 
Q 403 3881 828 4315 
Q 1253 4750 1959 4750 
Q 2769 4750 3195 4129 
Q 3622 3509 3622 2328 
Q 3622 1225 3098 567 
Q 2575 -91 1691 -91 
Q 1453 -91 1209 -44 
Q 966 3 703 97 
z
M 1959 2075 
Q 2384 2075 2632 2365 
Q 2881 2656 2881 3163 
Q 2881 3666 2632 3958 
Q 2384 4250 1959 4250 
Q 1534 4250 1286 3958 
Q 1038 3666 1038 3163 
Q 1038 2656 1286 2365 
Q 1534 2075 1959 2075 
z
" transform="scale(0.015625)"/>
        <path id="DejaVuSans-30" d="M 2034 4250 
Q 1547 4250 1301 3770 
Q 1056 3291 1056 2328 
Q 1056 1369 1301 889 
Q 1547 409 2034 409 
Q 2525 409 2770 889 
Q 3016 1369 3016 2328 
Q 3016 3291 2770 3770 
Q 2525 4250 2034 4250 
z
M 2034 4750 
Q 2819 4750 3233 4129 
Q 3647 3509 3647 2328 
Q 3647 1150 3233 529 
Q 2819 -91 2034 -91 
Q 1250 -91 836 529 
Q 422 1150 422 2328 
Q 422 3509 836 4129 
Q 1250 4750 2034 4750 
z
" transform="scale(0.015625)"/>
       </defs>
       <use xlink:href="#DejaVuSans-31"/>
       <use xlink:href="#DejaVuSans-39" x="63.623047"/>
       <use xlink:href="#DejaVuSans-30" x="127.246094"/>
       <use xlink:href="#DejaVuSans-30" x="190.869141"/>
      </g>
     </g>
    </g>
    <g id="xtick_2">
     <g id="line2d_2">
      <g>
       <use xlink:href="#me00949a0f0" x="271.717828" y="320.4" style="stroke: #000000; stroke-width: 0.8"/>
      </g>
     </g>
     <g id="text_2">
      <!-- 2000 -->
      <g transform="translate(243.722828 344.116562) scale(0.22 -0.22)">
       <defs>
        <path id="DejaVuSans-32" d="M 1228 531 
L 3431 531 
L 3431 0 
L 469 0 
L 469 531 
Q 828 903 1448 1529 
Q 2069 2156 2228 2338 
Q 2531 2678 2651 2914 
Q 2772 3150 2772 3378 
Q 2772 3750 2511 3984 
Q 2250 4219 1831 4219 
Q 1534 4219 1204 4116 
Q 875 4013 500 3803 
L 500 4441 
Q 881 4594 1212 4672 
Q 1544 4750 1819 4750 
Q 2544 4750 2975 4387 
Q 3406 4025 3406 3419 
Q 3406 3131 3298 2873 
Q 3191 2616 2906 2266 
Q 2828 2175 2409 1742 
Q 1991 1309 1228 531 
z
" transform="scale(0.015625)"/>
       </defs>
       <use xlink:href="#DejaVuSans-32"/>
       <use xlink:href="#DejaVuSans-30" x="63.623047"/>
       <use xlink:href="#DejaVuSans-30" x="127.246094"/>
       <use xlink:href="#DejaVuSans-30" x="190.869141"/>
      </g>
     </g>
    </g>
   </g>
   <g id="matplotlib.axis_2">
    <g id="ytick_1">
     <g id="line2d_3">
      <defs>
       <path id="me6521bd44d" d="M 0 0 
L -3.5 0 
" style="stroke: #000000; stroke-width: 0.8"/>
      </defs>
      <g>
       <use xlink:href="#me6521bd44d" x="90" y="307.393025" style="stroke: #000000; stroke-width: 0.8"/>
      </g>
     </g>
     <g id="text_3">
      <!-- 3.0 -->
      <g transform="translate(48.013125 315.751307) scale(0.22 -0.22)">
       <defs>
        <path id="DejaVuSans-33" d="M 2597 2516 
Q 3050 2419 3304 2112 
Q 3559 1806 3559 1356 
Q 3559 666 3084 287 
Q 2609 -91 1734 -91 
Q 1441 -91 1130 -33 
Q 819 25 488 141 
L 488 750 
Q 750 597 1062 519 
Q 1375 441 1716 441 
Q 2309 441 2620 675 
Q 2931 909 2931 1356 
Q 2931 1769 2642 2001 
Q 2353 2234 1838 2234 
L 1294 2234 
L 1294 2753 
L 1863 2753 
Q 2328 2753 2575 2939 
Q 2822 3125 2822 3475 
Q 2822 3834 2567 4026 
Q 2313 4219 1838 4219 
Q 1578 4219 1281 4162 
Q 984 4106 628 3988 
L 628 4550 
Q 988 4650 1302 4700 
Q 1616 4750 1894 4750 
Q 2613 4750 3031 4423 
Q 3450 4097 3450 3541 
Q 3450 3153 3228 2886 
Q 3006 2619 2597 2516 
z
" transform="scale(0.015625)"/>
        <path id="DejaVuSans-2e" d="M 684 794 
L 1344 794 
L 1344 0 
L 684 0 
L 684 794 
z
" transform="scale(0.015625)"/>
       </defs>
       <use xlink:href="#DejaVuSans-33"/>
       <use xlink:href="#DejaVuSans-2e" x="63.623047"/>
       <use xlink:href="#DejaVuSans-30" x="95.410156"/>
      </g>
     </g>
    </g>
    <g id="ytick_2">
     <g id="line2d_4">
      <g>
       <use xlink:href="#me6521bd44d" x="90" y="250.781056" style="stroke: #000000; stroke-width: 0.8"/>
      </g>
     </g>
     <g id="text_4">
      <!-- 3.5 -->
      <g transform="translate(48.013125 259.139338) scale(0.22 -0.22)">
       <defs>
        <path id="DejaVuSans-35" d="M 691 4666 
L 3169 4666 
L 3169 4134 
L 1269 4134 
L 1269 2991 
Q 1406 3038 1543 3061 
Q 1681 3084 1819 3084 
Q 2600 3084 3056 2656 
Q 3513 2228 3513 1497 
Q 3513 744 3044 326 
Q 2575 -91 1722 -91 
Q 1428 -91 1123 -41 
Q 819 9 494 109 
L 494 744 
Q 775 591 1075 516 
Q 1375 441 1709 441 
Q 2250 441 2565 725 
Q 2881 1009 2881 1497 
Q 2881 1984 2565 2268 
Q 2250 2553 1709 2553 
Q 1456 2553 1204 2497 
Q 953 2441 691 2322 
L 691 4666 
z
" transform="scale(0.015625)"/>
       </defs>
       <use xlink:href="#DejaVuSans-33"/>
       <use xlink:href="#DejaVuSans-2e" x="63.623047"/>
       <use xlink:href="#DejaVuSans-35" x="95.410156"/>
      </g>
     </g>
    </g>
    <g id="ytick_3">
     <g id="line2d_5">
      <g>
       <use xlink:href="#me6521bd44d" x="90" y="194.169087" style="stroke: #000000; stroke-width: 0.8"/>
      </g>
     </g>
     <g id="text_5">
      <!-- 4.0 -->
      <g transform="translate(48.013125 202.527369) scale(0.22 -0.22)">
       <defs>
        <path id="DejaVuSans-34" d="M 2419 4116 
L 825 1625 
L 2419 1625 
L 2419 4116 
z
M 2253 4666 
L 3047 4666 
L 3047 1625 
L 3713 1625 
L 3713 1100 
L 3047 1100 
L 3047 0 
L 2419 0 
L 2419 1100 
L 313 1100 
L 313 1709 
L 2253 4666 
z
" transform="scale(0.015625)"/>
       </defs>
       <use xlink:href="#DejaVuSans-34"/>
       <use xlink:href="#DejaVuSans-2e" x="63.623047"/>
       <use xlink:href="#DejaVuSans-30" x="95.410156"/>
      </g>
     </g>
    </g>
    <g id="ytick_4">
     <g id="line2d_6">
      <g>
       <use xlink:href="#me6521bd44d" x="90" y="137.557118" style="stroke: #000000; stroke-width: 0.8"/>
      </g>
     </g>
     <g id="text_6">
      <!-- 4.5 -->
      <g transform="translate(48.013125 145.9154) scale(0.22 -0.22)">
       <use xlink:href="#DejaVuSans-34"/>
       <use xlink:href="#DejaVuSans-2e" x="63.623047"/>
       <use xlink:href="#DejaVuSans-35" x="95.410156"/>
      </g>
     </g>
    </g>
    <g id="ytick_5">
     <g id="line2d_7">
      <g>
       <use xlink:href="#me6521bd44d" x="90" y="80.94515" style="stroke: #000000; stroke-width: 0.8"/>
      </g>
     </g>
     <g id="text_7">
      <!-- 5.0 -->
      <g transform="translate(48.013125 89.303431) scale(0.22 -0.22)">
       <use xlink:href="#DejaVuSans-35"/>
       <use xlink:href="#DejaVuSans-2e" x="63.623047"/>
       <use xlink:href="#DejaVuSans-30" x="95.410156"/>
      </g>
     </g>
    </g>
   </g>
   <g id="line2d_8">
    <defs>
     <path id="m4a0a051ac9" d="M 0 3 
C 0.795609 3 1.55874 2.683901 2.12132 2.12132 
C 2.683901 1.55874 3 0.795609 3 0 
C 3 -0.795609 2.683901 -1.55874 2.12132 -2.12132 
C 1.55874 -2.683901 0.795609 -3 0 -3 
C -0.795609 -3 -1.55874 -2.683901 -2.12132 -2.12132 
C -2.683901 -1.55874 -3 -0.795609 -3 0 
C -3 0.795609 -2.683901 1.55874 -2.12132 2.12132 
C -1.55874 2.683901 -0.795609 3 0 3 
z
" style="stroke: #ff0000"/>
    </defs>
    <g clip-path="url(#p474809c393)">
     <use xlink:href="#m4a0a051ac9" x="128.978749" y="140.859483" style="fill: #ff0000; stroke: #ff0000"/>
     <use xlink:href="#m4a0a051ac9" x="134.468713" y="141.550611" style="fill: #ff0000; stroke: #ff0000"/>
     <use xlink:href="#m4a0a051ac9" x="139.958678" y="55.8" style="fill: #ff0000; stroke: #ff0000"/>
     <use xlink:href="#m4a0a051ac9" x="145.448642" y="176.655759" style="fill: #ff0000; stroke: #ff0000"/>
     <use xlink:href="#m4a0a051ac9" x="150.938607" y="205.115946" style="fill: #ff0000; stroke: #ff0000"/>
     <use xlink:href="#m4a0a051ac9" x="161.918536" y="242.910558" style="fill: #ff0000; stroke: #ff0000"/>
     <use xlink:href="#m4a0a051ac9" x="167.408501" y="214.034819" style="fill: #ff0000; stroke: #ff0000"/>
     <use xlink:href="#m4a0a051ac9" x="172.898465" y="236.646512" style="fill: #ff0000; stroke: #ff0000"/>
     <use xlink:href="#m4a0a051ac9" x="178.38843" y="240.269034" style="fill: #ff0000; stroke: #ff0000"/>
     <use xlink:href="#m4a0a051ac9" x="183.878394" y="246.387071" style="fill: #ff0000; stroke: #ff0000"/>
     <use xlink:href="#m4a0a051ac9" x="200.348288" y="231.521314" style="fill: #ff0000; stroke: #ff0000"/>
     <use xlink:href="#m4a0a051ac9" x="205.838253" y="263.202729" style="fill: #ff0000; stroke: #ff0000"/>
     <use xlink:href="#m4a0a051ac9" x="211.328217" y="257.979142" style="fill: #ff0000; stroke: #ff0000"/>
     <use xlink:href="#m4a0a051ac9" x="216.818182" y="284.088134" style="fill: #ff0000; stroke: #ff0000"/>
     <use xlink:href="#m4a0a051ac9" x="222.308146" y="292.361795" style="fill: #ff0000; stroke: #ff0000"/>
     <use xlink:href="#m4a0a051ac9" x="227.798111" y="270.233105" style="fill: #ff0000; stroke: #ff0000"/>
     <use xlink:href="#m4a0a051ac9" x="233.288076" y="292.01296" style="fill: #ff0000; stroke: #ff0000"/>
     <use xlink:href="#m4a0a051ac9" x="238.77804" y="298.452999" style="fill: #ff0000; stroke: #ff0000"/>
     <use xlink:href="#m4a0a051ac9" x="244.268005" y="295.411869" style="fill: #ff0000; stroke: #ff0000"/>
     <use xlink:href="#m4a0a051ac9" x="249.757969" y="299.973564" style="fill: #ff0000; stroke: #ff0000"/>
     <use xlink:href="#m4a0a051ac9" x="255.247934" y="296.798266" style="fill: #ff0000; stroke: #ff0000"/>
     <use xlink:href="#m4a0a051ac9" x="260.737898" y="289.15072" style="fill: #ff0000; stroke: #ff0000"/>
     <use xlink:href="#m4a0a051ac9" x="266.227863" y="291.252677" style="fill: #ff0000; stroke: #ff0000"/>
     <use xlink:href="#m4a0a051ac9" x="271.717828" y="297.737439" style="fill: #ff0000; stroke: #ff0000"/>
     <use xlink:href="#m4a0a051ac9" x="277.207792" y="295.769649" style="fill: #ff0000; stroke: #ff0000"/>
     <use xlink:href="#m4a0a051ac9" x="282.697757" y="307.531665" style="fill: #ff0000; stroke: #ff0000"/>
     <use xlink:href="#m4a0a051ac9" x="288.187721" y="303.551363" style="fill: #ff0000; stroke: #ff0000"/>
     <use xlink:href="#m4a0a051ac9" x="293.677686" y="301.628296" style="fill: #ff0000; stroke: #ff0000"/>
     <use xlink:href="#m4a0a051ac9" x="299.167651" y="301.896631" style="fill: #ff0000; stroke: #ff0000"/>
     <use xlink:href="#m4a0a051ac9" x="304.657615" y="307.8" style="fill: #ff0000; stroke: #ff0000"/>
    </g>
   </g>
   <g id="line2d_9">
    <path d="M 101.528926 61.852562 
L 103.316356 57.2288 
L 105.103786 54.927241 
L 106.891217 54.53059 
L 108.678647 55.686761 
L 110.466077 58.099212 
L 112.253508 61.51866 
L 114.040938 65.735985 
L 115.828368 70.576154 
L 117.615799 75.893022 
L 121.190659 87.490795 
L 128.340381 112.27071 
L 133.702672 130.655862 
L 137.277532 142.399052 
L 140.852393 153.602144 
L 144.427254 164.210472 
L 148.002114 174.201903 
L 151.576975 183.576083 
L 155.151835 192.346882 
L 158.726696 200.537121 
L 162.301557 208.174914 
L 165.876417 215.291148 
L 169.451278 221.917765 
L 173.026139 228.086613 
L 176.600999 233.828698 
L 180.17586 239.173703 
L 183.750721 244.149708 
L 187.325581 248.783047 
L 190.900442 253.098246 
L 194.475303 257.118034 
L 198.050163 260.863389 
L 201.625024 264.353611 
L 205.199885 267.606414 
L 208.774745 270.638024 
L 212.349606 273.463284 
L 217.711897 277.343612 
L 223.074188 280.830821 
L 228.436479 283.960654 
L 233.79877 286.764418 
L 239.161061 289.26971 
L 244.523352 291.501135 
L 249.885643 293.481058 
L 255.247934 295.230397 
L 260.610225 296.769539 
L 265.972516 298.119424 
L 273.122237 299.664855 
L 280.271958 300.980349 
L 301.721122 304.658367 
L 305.295983 305.488008 
L 308.870844 306.489526 
L 312.445704 307.728712 
L 316.020565 309.287523 
L 319.595426 311.267303 
L 321.382856 312.45283 
L 323.170286 313.792024 
L 324.957717 315.304384 
L 326.745147 317.01112 
L 328.532577 318.93516 
L 330.320008 321.101109 
L 332.107438 323.535136 
L 332.107438 323.535136 
" clip-path="url(#p474809c393)" style="fill: none; stroke: #0000ff; stroke-width: 2; stroke-linecap: square"/>
   </g>
   <g id="patch_3">
    <path d="M 90 320.4 
L 90 43.2 
" style="fill: none; stroke: #000000; stroke-width: 0.8; stroke-linejoin: miter; stroke-linecap: square"/>
   </g>
   <g id="patch_4">
    <path d="M 343.636364 320.4 
L 343.636364 43.2 
" style="fill: none; stroke: #000000; stroke-width: 0.8; stroke-linejoin: miter; stroke-linecap: square"/>
   </g>
   <g id="patch_5">
    <path d="M 90 320.4 
L 343.636364 320.4 
" style="fill: none; stroke: #000000; stroke-width: 0.8; stroke-linejoin: miter; stroke-linecap: square"/>
   </g>
   <g id="patch_6">
    <path d="M 90 43.2 
L 343.636364 43.2 
" style="fill: none; stroke: #000000; stroke-width: 0.8; stroke-linejoin: miter; stroke-linecap: square"/>
   </g>
  </g>
  <g id="axes_2">
   <g id="patch_7">
    <path d="M 394.363636 320.4 
L 648 320.4 
L 648 43.2 
L 394.363636 43.2 
L 394.363636 320.4 
z
" style="fill: none"/>
   </g>
   <g id="matplotlib.axis_3">
    <g id="xtick_3">
     <g id="line2d_10">
      <g>
       <use xlink:href="#me00949a0f0" x="394.363636" y="320.4" style="stroke: #000000; stroke-width: 0.8"/>
      </g>
     </g>
     <g id="text_8">
      <!-- 0 -->
      <g transform="translate(387.364886 344.116562) scale(0.22 -0.22)">
       <use xlink:href="#DejaVuSans-30"/>
      </g>
     </g>
    </g>
    <g id="xtick_4">
     <g id="line2d_11">
      <g>
       <use xlink:href="#me00949a0f0" x="558" y="320.4" style="stroke: #000000; stroke-width: 0.8"/>
      </g>
     </g>
     <g id="text_9">
      <!-- 20 -->
      <g transform="translate(544.0025 344.116562) scale(0.22 -0.22)">
       <use xlink:href="#DejaVuSans-32"/>
       <use xlink:href="#DejaVuSans-30" x="63.623047"/>
      </g>
     </g>
    </g>
    <g id="text_10">
     <!-- number -->
     <g transform="translate(482.153693 367.88875) scale(0.2 -0.2)">
      <defs>
       <path id="DejaVuSans-6e" d="M 3513 2113 
L 3513 0 
L 2938 0 
L 2938 2094 
Q 2938 2591 2744 2837 
Q 2550 3084 2163 3084 
Q 1697 3084 1428 2787 
Q 1159 2491 1159 1978 
L 1159 0 
L 581 0 
L 581 3500 
L 1159 3500 
L 1159 2956 
Q 1366 3272 1645 3428 
Q 1925 3584 2291 3584 
Q 2894 3584 3203 3211 
Q 3513 2838 3513 2113 
z
" transform="scale(0.015625)"/>
       <path id="DejaVuSans-75" d="M 544 1381 
L 544 3500 
L 1119 3500 
L 1119 1403 
Q 1119 906 1312 657 
Q 1506 409 1894 409 
Q 2359 409 2629 706 
Q 2900 1003 2900 1516 
L 2900 3500 
L 3475 3500 
L 3475 0 
L 2900 0 
L 2900 538 
Q 2691 219 2414 64 
Q 2138 -91 1772 -91 
Q 1169 -91 856 284 
Q 544 659 544 1381 
z
M 1991 3584 
L 1991 3584 
z
" transform="scale(0.015625)"/>
       <path id="DejaVuSans-6d" d="M 3328 2828 
Q 3544 3216 3844 3400 
Q 4144 3584 4550 3584 
Q 5097 3584 5394 3201 
Q 5691 2819 5691 2113 
L 5691 0 
L 5113 0 
L 5113 2094 
Q 5113 2597 4934 2840 
Q 4756 3084 4391 3084 
Q 3944 3084 3684 2787 
Q 3425 2491 3425 1978 
L 3425 0 
L 2847 0 
L 2847 2094 
Q 2847 2600 2669 2842 
Q 2491 3084 2119 3084 
Q 1678 3084 1418 2786 
Q 1159 2488 1159 1978 
L 1159 0 
L 581 0 
L 581 3500 
L 1159 3500 
L 1159 2956 
Q 1356 3278 1631 3431 
Q 1906 3584 2284 3584 
Q 2666 3584 2933 3390 
Q 3200 3197 3328 2828 
z
" transform="scale(0.015625)"/>
       <path id="DejaVuSans-62" d="M 3116 1747 
Q 3116 2381 2855 2742 
Q 2594 3103 2138 3103 
Q 1681 3103 1420 2742 
Q 1159 2381 1159 1747 
Q 1159 1113 1420 752 
Q 1681 391 2138 391 
Q 2594 391 2855 752 
Q 3116 1113 3116 1747 
z
M 1159 2969 
Q 1341 3281 1617 3432 
Q 1894 3584 2278 3584 
Q 2916 3584 3314 3078 
Q 3713 2572 3713 1747 
Q 3713 922 3314 415 
Q 2916 -91 2278 -91 
Q 1894 -91 1617 61 
Q 1341 213 1159 525 
L 1159 0 
L 581 0 
L 581 4863 
L 1159 4863 
L 1159 2969 
z
" transform="scale(0.015625)"/>
       <path id="DejaVuSans-65" d="M 3597 1894 
L 3597 1613 
L 953 1613 
Q 991 1019 1311 708 
Q 1631 397 2203 397 
Q 2534 397 2845 478 
Q 3156 559 3463 722 
L 3463 178 
Q 3153 47 2828 -22 
Q 2503 -91 2169 -91 
Q 1331 -91 842 396 
Q 353 884 353 1716 
Q 353 2575 817 3079 
Q 1281 3584 2069 3584 
Q 2775 3584 3186 3129 
Q 3597 2675 3597 1894 
z
M 3022 2063 
Q 3016 2534 2758 2815 
Q 2500 3097 2075 3097 
Q 1594 3097 1305 2825 
Q 1016 2553 972 2059 
L 3022 2063 
z
" transform="scale(0.015625)"/>
       <path id="DejaVuSans-72" d="M 2631 2963 
Q 2534 3019 2420 3045 
Q 2306 3072 2169 3072 
Q 1681 3072 1420 2755 
Q 1159 2438 1159 1844 
L 1159 0 
L 581 0 
L 581 3500 
L 1159 3500 
L 1159 2956 
Q 1341 3275 1631 3429 
Q 1922 3584 2338 3584 
Q 2397 3584 2469 3576 
Q 2541 3569 2628 3553 
L 2631 2963 
z
" transform="scale(0.015625)"/>
      </defs>
      <use xlink:href="#DejaVuSans-6e"/>
      <use xlink:href="#DejaVuSans-75" x="63.378906"/>
      <use xlink:href="#DejaVuSans-6d" x="126.757812"/>
      <use xlink:href="#DejaVuSans-62" x="224.169922"/>
      <use xlink:href="#DejaVuSans-65" x="287.646484"/>
      <use xlink:href="#DejaVuSans-72" x="349.169922"/>
     </g>
    </g>
   </g>
   <g id="matplotlib.axis_4">
    <g id="ytick_6">
     <g id="line2d_12">
      <g>
       <use xlink:href="#me6521bd44d" x="394.363636" y="280.8" style="stroke: #000000; stroke-width: 0.8"/>
      </g>
     </g>
     <g id="text_11">
      <!-- 0.2 -->
      <g transform="translate(352.376761 289.158281) scale(0.22 -0.22)">
       <use xlink:href="#DejaVuSans-30"/>
       <use xlink:href="#DejaVuSans-2e" x="63.623047"/>
       <use xlink:href="#DejaVuSans-32" x="95.410156"/>
      </g>
     </g>
    </g>
    <g id="ytick_7">
     <g id="line2d_13">
      <g>
       <use xlink:href="#me6521bd44d" x="394.363636" y="201.6" style="stroke: #000000; stroke-width: 0.8"/>
      </g>
     </g>
     <g id="text_12">
      <!-- 0.4 -->
      <g transform="translate(352.376761 209.958281) scale(0.22 -0.22)">
       <use xlink:href="#DejaVuSans-30"/>
       <use xlink:href="#DejaVuSans-2e" x="63.623047"/>
       <use xlink:href="#DejaVuSans-34" x="95.410156"/>
      </g>
     </g>
    </g>
    <g id="ytick_8">
     <g id="line2d_14">
      <g>
       <use xlink:href="#me6521bd44d" x="394.363636" y="122.4" style="stroke: #000000; stroke-width: 0.8"/>
      </g>
     </g>
     <g id="text_13">
      <!-- 0.6 -->
      <g transform="translate(352.376761 130.758281) scale(0.22 -0.22)">
       <defs>
        <path id="DejaVuSans-36" d="M 2113 2584 
Q 1688 2584 1439 2293 
Q 1191 2003 1191 1497 
Q 1191 994 1439 701 
Q 1688 409 2113 409 
Q 2538 409 2786 701 
Q 3034 994 3034 1497 
Q 3034 2003 2786 2293 
Q 2538 2584 2113 2584 
z
M 3366 4563 
L 3366 3988 
Q 3128 4100 2886 4159 
Q 2644 4219 2406 4219 
Q 1781 4219 1451 3797 
Q 1122 3375 1075 2522 
Q 1259 2794 1537 2939 
Q 1816 3084 2150 3084 
Q 2853 3084 3261 2657 
Q 3669 2231 3669 1497 
Q 3669 778 3244 343 
Q 2819 -91 2113 -91 
Q 1303 -91 875 529 
Q 447 1150 447 2328 
Q 447 3434 972 4092 
Q 1497 4750 2381 4750 
Q 2619 4750 2861 4703 
Q 3103 4656 3366 4563 
z
" transform="scale(0.015625)"/>
       </defs>
       <use xlink:href="#DejaVuSans-30"/>
       <use xlink:href="#DejaVuSans-2e" x="63.623047"/>
       <use xlink:href="#DejaVuSans-36" x="95.410156"/>
      </g>
     </g>
    </g>
    <g id="ytick_9">
     <g id="line2d_15">
      <g>
       <use xlink:href="#me6521bd44d" x="394.363636" y="43.2" style="stroke: #000000; stroke-width: 0.8"/>
      </g>
     </g>
     <g id="text_14">
      <!-- 0.8 -->
      <g transform="translate(352.376761 51.558281) scale(0.22 -0.22)">
       <defs>
        <path id="DejaVuSans-38" d="M 2034 2216 
Q 1584 2216 1326 1975 
Q 1069 1734 1069 1313 
Q 1069 891 1326 650 
Q 1584 409 2034 409 
Q 2484 409 2743 651 
Q 3003 894 3003 1313 
Q 3003 1734 2745 1975 
Q 2488 2216 2034 2216 
z
M 1403 2484 
Q 997 2584 770 2862 
Q 544 3141 544 3541 
Q 544 4100 942 4425 
Q 1341 4750 2034 4750 
Q 2731 4750 3128 4425 
Q 3525 4100 3525 3541 
Q 3525 3141 3298 2862 
Q 3072 2584 2669 2484 
Q 3125 2378 3379 2068 
Q 3634 1759 3634 1313 
Q 3634 634 3220 271 
Q 2806 -91 2034 -91 
Q 1263 -91 848 271 
Q 434 634 434 1313 
Q 434 1759 690 2068 
Q 947 2378 1403 2484 
z
M 1172 3481 
Q 1172 3119 1398 2916 
Q 1625 2713 2034 2713 
Q 2441 2713 2670 2916 
Q 2900 3119 2900 3481 
Q 2900 3844 2670 4047 
Q 2441 4250 2034 4250 
Q 1625 4250 1398 4047 
Q 1172 3844 1172 3481 
z
" transform="scale(0.015625)"/>
       </defs>
       <use xlink:href="#DejaVuSans-30"/>
       <use xlink:href="#DejaVuSans-2e" x="63.623047"/>
       <use xlink:href="#DejaVuSans-38" x="95.410156"/>
      </g>
     </g>
    </g>
   </g>
   <g id="line2d_16">
    <g clip-path="url(#p8e6a1194b3)">
     <use xlink:href="#m4a0a051ac9" x="402.545455" y="151.46734" style="fill: #ff0000; stroke: #ff0000"/>
    </g>
   </g>
   <g id="line2d_17">
    <g clip-path="url(#p8e6a1194b3)">
     <use xlink:href="#m4a0a051ac9" x="410.727273" y="251.711025" style="fill: #ff0000; stroke: #ff0000"/>
    </g>
   </g>
   <g id="line2d_18">
    <g clip-path="url(#p8e6a1194b3)">
     <use xlink:href="#m4a0a051ac9" x="418.909091" y="281.321339" style="fill: #ff0000; stroke: #ff0000"/>
    </g>
   </g>
   <g id="line2d_19">
    <g clip-path="url(#p8e6a1194b3)">
     <use xlink:href="#m4a0a051ac9" x="427.090909" y="284.525966" style="fill: #ff0000; stroke: #ff0000"/>
    </g>
   </g>
   <g id="line2d_20">
    <g clip-path="url(#p8e6a1194b3)">
     <use xlink:href="#m4a0a051ac9" x="435.272727" y="284.691594" style="fill: #ff0000; stroke: #ff0000"/>
    </g>
   </g>
   <g id="line2d_21">
    <g clip-path="url(#p8e6a1194b3)">
     <use xlink:href="#m4a0a051ac9" x="443.454545" y="284.675947" style="fill: #ff0000; stroke: #ff0000"/>
    </g>
   </g>
   <g id="line2d_22">
    <g clip-path="url(#p8e6a1194b3)">
     <use xlink:href="#m4a0a051ac9" x="451.636364" y="284.679702" style="fill: #ff0000; stroke: #ff0000"/>
    </g>
   </g>
   <g id="line2d_23">
    <g clip-path="url(#p8e6a1194b3)">
     <use xlink:href="#m4a0a051ac9" x="459.818182" y="284.687943" style="fill: #ff0000; stroke: #ff0000"/>
    </g>
   </g>
   <g id="line2d_24">
    <g clip-path="url(#p8e6a1194b3)">
     <use xlink:href="#m4a0a051ac9" x="468" y="284.763949" style="fill: #ff0000; stroke: #ff0000"/>
    </g>
   </g>
   <g id="line2d_25">
    <g clip-path="url(#p8e6a1194b3)">
     <use xlink:href="#m4a0a051ac9" x="476.181818" y="284.811835" style="fill: #ff0000; stroke: #ff0000"/>
    </g>
   </g>
   <g id="line2d_26">
    <g clip-path="url(#p8e6a1194b3)">
     <use xlink:href="#m4a0a051ac9" x="484.363636" y="284.881925" style="fill: #ff0000; stroke: #ff0000"/>
    </g>
   </g>
   <g id="line2d_27">
    <g clip-path="url(#p8e6a1194b3)">
     <use xlink:href="#m4a0a051ac9" x="492.545455" y="284.922343" style="fill: #ff0000; stroke: #ff0000"/>
    </g>
   </g>
   <g id="line2d_28">
    <g clip-path="url(#p8e6a1194b3)">
     <use xlink:href="#m4a0a051ac9" x="500.727273" y="284.964912" style="fill: #ff0000; stroke: #ff0000"/>
    </g>
   </g>
   <g id="line2d_29">
    <g clip-path="url(#p8e6a1194b3)">
     <use xlink:href="#m4a0a051ac9" x="508.909091" y="284.988058" style="fill: #ff0000; stroke: #ff0000"/>
    </g>
   </g>
   <g id="line2d_30">
    <g clip-path="url(#p8e6a1194b3)">
     <use xlink:href="#m4a0a051ac9" x="517.090909" y="285.00922" style="fill: #ff0000; stroke: #ff0000"/>
    </g>
   </g>
   <g id="line2d_31">
    <g clip-path="url(#p8e6a1194b3)">
     <use xlink:href="#m4a0a051ac9" x="525.272727" y="285.020215" style="fill: #ff0000; stroke: #ff0000"/>
    </g>
   </g>
   <g id="line2d_32">
    <g clip-path="url(#p8e6a1194b3)">
     <use xlink:href="#m4a0a051ac9" x="533.454545" y="285.029544" style="fill: #ff0000; stroke: #ff0000"/>
    </g>
   </g>
   <g id="line2d_33">
    <g clip-path="url(#p8e6a1194b3)">
     <use xlink:href="#m4a0a051ac9" x="541.636364" y="285.034221" style="fill: #ff0000; stroke: #ff0000"/>
    </g>
   </g>
   <g id="patch_8">
    <path d="M 394.363636 320.4 
L 394.363636 43.2 
" style="fill: none; stroke: #000000; stroke-width: 0.8; stroke-linejoin: miter; stroke-linecap: square"/>
   </g>
   <g id="patch_9">
    <path d="M 648 320.4 
L 648 43.2 
" style="fill: none; stroke: #000000; stroke-width: 0.8; stroke-linejoin: miter; stroke-linecap: square"/>
   </g>
   <g id="patch_10">
    <path d="M 394.363636 320.4 
L 648 320.4 
" style="fill: none; stroke: #000000; stroke-width: 0.8; stroke-linejoin: miter; stroke-linecap: square"/>
   </g>
   <g id="patch_11">
    <path d="M 394.363636 43.2 
L 648 43.2 
" style="fill: none; stroke: #000000; stroke-width: 0.8; stroke-linejoin: miter; stroke-linecap: square"/>
   </g>
   <g id="text_15">
    <!-- Negative Marginal Likelihood -->
    <g transform="translate(376.470881 37.2) scale(0.2 -0.2)">
     <defs>
      <path id="DejaVuSans-4e" d="M 628 4666 
L 1478 4666 
L 3547 763 
L 3547 4666 
L 4159 4666 
L 4159 0 
L 3309 0 
L 1241 3903 
L 1241 0 
L 628 0 
L 628 4666 
z
" transform="scale(0.015625)"/>
      <path id="DejaVuSans-67" d="M 2906 1791 
Q 2906 2416 2648 2759 
Q 2391 3103 1925 3103 
Q 1463 3103 1205 2759 
Q 947 2416 947 1791 
Q 947 1169 1205 825 
Q 1463 481 1925 481 
Q 2391 481 2648 825 
Q 2906 1169 2906 1791 
z
M 3481 434 
Q 3481 -459 3084 -895 
Q 2688 -1331 1869 -1331 
Q 1566 -1331 1297 -1286 
Q 1028 -1241 775 -1147 
L 775 -588 
Q 1028 -725 1275 -790 
Q 1522 -856 1778 -856 
Q 2344 -856 2625 -561 
Q 2906 -266 2906 331 
L 2906 616 
Q 2728 306 2450 153 
Q 2172 0 1784 0 
Q 1141 0 747 490 
Q 353 981 353 1791 
Q 353 2603 747 3093 
Q 1141 3584 1784 3584 
Q 2172 3584 2450 3431 
Q 2728 3278 2906 2969 
L 2906 3500 
L 3481 3500 
L 3481 434 
z
" transform="scale(0.015625)"/>
      <path id="DejaVuSans-61" d="M 2194 1759 
Q 1497 1759 1228 1600 
Q 959 1441 959 1056 
Q 959 750 1161 570 
Q 1363 391 1709 391 
Q 2188 391 2477 730 
Q 2766 1069 2766 1631 
L 2766 1759 
L 2194 1759 
z
M 3341 1997 
L 3341 0 
L 2766 0 
L 2766 531 
Q 2569 213 2275 61 
Q 1981 -91 1556 -91 
Q 1019 -91 701 211 
Q 384 513 384 1019 
Q 384 1609 779 1909 
Q 1175 2209 1959 2209 
L 2766 2209 
L 2766 2266 
Q 2766 2663 2505 2880 
Q 2244 3097 1772 3097 
Q 1472 3097 1187 3025 
Q 903 2953 641 2809 
L 641 3341 
Q 956 3463 1253 3523 
Q 1550 3584 1831 3584 
Q 2591 3584 2966 3190 
Q 3341 2797 3341 1997 
z
" transform="scale(0.015625)"/>
      <path id="DejaVuSans-74" d="M 1172 4494 
L 1172 3500 
L 2356 3500 
L 2356 3053 
L 1172 3053 
L 1172 1153 
Q 1172 725 1289 603 
Q 1406 481 1766 481 
L 2356 481 
L 2356 0 
L 1766 0 
Q 1100 0 847 248 
Q 594 497 594 1153 
L 594 3053 
L 172 3053 
L 172 3500 
L 594 3500 
L 594 4494 
L 1172 4494 
z
" transform="scale(0.015625)"/>
      <path id="DejaVuSans-69" d="M 603 3500 
L 1178 3500 
L 1178 0 
L 603 0 
L 603 3500 
z
M 603 4863 
L 1178 4863 
L 1178 4134 
L 603 4134 
L 603 4863 
z
" transform="scale(0.015625)"/>
      <path id="DejaVuSans-76" d="M 191 3500 
L 800 3500 
L 1894 563 
L 2988 3500 
L 3597 3500 
L 2284 0 
L 1503 0 
L 191 3500 
z
" transform="scale(0.015625)"/>
      <path id="DejaVuSans-20" transform="scale(0.015625)"/>
      <path id="DejaVuSans-4d" d="M 628 4666 
L 1569 4666 
L 2759 1491 
L 3956 4666 
L 4897 4666 
L 4897 0 
L 4281 0 
L 4281 4097 
L 3078 897 
L 2444 897 
L 1241 4097 
L 1241 0 
L 628 0 
L 628 4666 
z
" transform="scale(0.015625)"/>
      <path id="DejaVuSans-6c" d="M 603 4863 
L 1178 4863 
L 1178 0 
L 603 0 
L 603 4863 
z
" transform="scale(0.015625)"/>
      <path id="DejaVuSans-4c" d="M 628 4666 
L 1259 4666 
L 1259 531 
L 3531 531 
L 3531 0 
L 628 0 
L 628 4666 
z
" transform="scale(0.015625)"/>
      <path id="DejaVuSans-6b" d="M 581 4863 
L 1159 4863 
L 1159 1991 
L 2875 3500 
L 3609 3500 
L 1753 1863 
L 3688 0 
L 2938 0 
L 1159 1709 
L 1159 0 
L 581 0 
L 581 4863 
z
" transform="scale(0.015625)"/>
      <path id="DejaVuSans-68" d="M 3513 2113 
L 3513 0 
L 2938 0 
L 2938 2094 
Q 2938 2591 2744 2837 
Q 2550 3084 2163 3084 
Q 1697 3084 1428 2787 
Q 1159 2491 1159 1978 
L 1159 0 
L 581 0 
L 581 4863 
L 1159 4863 
L 1159 2956 
Q 1366 3272 1645 3428 
Q 1925 3584 2291 3584 
Q 2894 3584 3203 3211 
Q 3513 2838 3513 2113 
z
" transform="scale(0.015625)"/>
      <path id="DejaVuSans-6f" d="M 1959 3097 
Q 1497 3097 1228 2736 
Q 959 2375 959 1747 
Q 959 1119 1226 758 
Q 1494 397 1959 397 
Q 2419 397 2687 759 
Q 2956 1122 2956 1747 
Q 2956 2369 2687 2733 
Q 2419 3097 1959 3097 
z
M 1959 3584 
Q 2709 3584 3137 3096 
Q 3566 2609 3566 1747 
Q 3566 888 3137 398 
Q 2709 -91 1959 -91 
Q 1206 -91 779 398 
Q 353 888 353 1747 
Q 353 2609 779 3096 
Q 1206 3584 1959 3584 
z
" transform="scale(0.015625)"/>
      <path id="DejaVuSans-64" d="M 2906 2969 
L 2906 4863 
L 3481 4863 
L 3481 0 
L 2906 0 
L 2906 525 
Q 2725 213 2448 61 
Q 2172 -91 1784 -91 
Q 1150 -91 751 415 
Q 353 922 353 1747 
Q 353 2572 751 3078 
Q 1150 3584 1784 3584 
Q 2172 3584 2448 3432 
Q 2725 3281 2906 2969 
z
M 947 1747 
Q 947 1113 1208 752 
Q 1469 391 1925 391 
Q 2381 391 2643 752 
Q 2906 1113 2906 1747 
Q 2906 2381 2643 2742 
Q 2381 3103 1925 3103 
Q 1469 3103 1208 2742 
Q 947 2381 947 1747 
z
" transform="scale(0.015625)"/>
     </defs>
     <use xlink:href="#DejaVuSans-4e"/>
     <use xlink:href="#DejaVuSans-65" x="74.804688"/>
     <use xlink:href="#DejaVuSans-67" x="136.328125"/>
     <use xlink:href="#DejaVuSans-61" x="199.804688"/>
     <use xlink:href="#DejaVuSans-74" x="261.083984"/>
     <use xlink:href="#DejaVuSans-69" x="300.292969"/>
     <use xlink:href="#DejaVuSans-76" x="328.076172"/>
     <use xlink:href="#DejaVuSans-65" x="387.255859"/>
     <use xlink:href="#DejaVuSans-20" x="448.779297"/>
     <use xlink:href="#DejaVuSans-4d" x="480.566406"/>
     <use xlink:href="#DejaVuSans-61" x="566.845703"/>
     <use xlink:href="#DejaVuSans-72" x="628.125"/>
     <use xlink:href="#DejaVuSans-67" x="667.488281"/>
     <use xlink:href="#DejaVuSans-69" x="730.964844"/>
     <use xlink:href="#DejaVuSans-6e" x="758.748047"/>
     <use xlink:href="#DejaVuSans-61" x="822.126953"/>
     <use xlink:href="#DejaVuSans-6c" x="883.40625"/>
     <use xlink:href="#DejaVuSans-20" x="911.189453"/>
     <use xlink:href="#DejaVuSans-4c" x="942.976562"/>
     <use xlink:href="#DejaVuSans-69" x="998.689453"/>
     <use xlink:href="#DejaVuSans-6b" x="1026.472656"/>
     <use xlink:href="#DejaVuSans-65" x="1080.757812"/>
     <use xlink:href="#DejaVuSans-6c" x="1142.28125"/>
     <use xlink:href="#DejaVuSans-69" x="1170.064453"/>
     <use xlink:href="#DejaVuSans-68" x="1197.847656"/>
     <use xlink:href="#DejaVuSans-6f" x="1261.226562"/>
     <use xlink:href="#DejaVuSans-6f" x="1322.408203"/>
     <use xlink:href="#DejaVuSans-64" x="1383.589844"/>
    </g>
   </g>
  </g>
 </g>
 <defs>
  <clipPath id="p474809c393">
   <rect x="90" y="43.2" width="253.636364" height="277.2"/>
  </clipPath>
  <clipPath id="p8e6a1194b3">
   <rect x="394.363636" y="43.2" width="253.636364" height="277.2"/>
  </clipPath>
 </defs>
</svg>
