<?xml version="1.0" encoding="utf-8" standalone="no"?>
<!DOCTYPE svg PUBLIC "-//W3C//DTD SVG 1.1//EN"
  "http://www.w3.org/Graphics/SVG/1.1/DTD/svg11.dtd">
<svg xmlns:xlink="http://www.w3.org/1999/xlink" width="720pt" height="360pt" viewBox="0 0 720 360" xmlns="http://www.w3.org/2000/svg" version="1.1">
 <metadata>
  <rdf:RDF xmlns:dc="http://purl.org/dc/elements/1.1/" xmlns:cc="http://creativecommons.org/ns#" xmlns:rdf="http://www.w3.org/1999/02/22-rdf-syntax-ns#">
   <cc:Work>
    <dc:type rdf:resource="http://purl.org/dc/dcmitype/StillImage"/>
    <dc:date>2025-09-24T08:48:15.628792</dc:date>
    <dc:format>image/svg+xml</dc:format>
    <dc:creator>
     <cc:Agent>
      <dc:title>Matplotlib v3.10.3, https://matplotlib.org/</dc:title>
     </cc:Agent>
    </dc:creator>
   </cc:Work>
  </rdf:RDF>
 </metadata>
 <defs>
  <style type="text/css">*{stroke-linejoin: round; stroke-linecap: butt}</style>
 </defs>
 <g id="figure_1">
  <g id="patch_1">
   <path d="M 0 360 
L 720 360 
L 720 0 
L 0 0 
L 0 360 
z
" style="fill: none"/>
  </g>
  <g id="axes_1">
   <g id="patch_2">
    <path d="M 180 0 
L 231.428571 0 
L 231.428571 51.428571 
L 180 51.428571 
z
" clip-path="url(#p3b3e34c6bf)" style="fill: #ff0000; stroke: #ff0000; stroke-linejoin: miter"/>
   </g>
   <g id="patch_3">
    <path d="M 180 51.428571 
L 231.428571 51.428571 
L 231.428571 102.857143 
L 180 102.857143 
z
" clip-path="url(#p3b3e34c6bf)" style="fill: #ffffff; stroke: #ffffff; stroke-linejoin: miter"/>
   </g>
   <g id="patch_4">
    <path d="M 180 102.857143 
L 231.428571 102.857143 
L 231.428571 154.285714 
L 180 154.285714 
z
" clip-path="url(#p3b3e34c6bf)" style="fill: #ffffff; stroke: #ffffff; stroke-linejoin: miter"/>
   </g>
   <g id="patch_5">
    <path d="M 180 154.285714 
L 231.428571 154.285714 
L 231.428571 205.714286 
L 180 205.714286 
z
" clip-path="url(#p3b3e34c6bf)" style="fill: #ff0000; stroke: #ff0000; stroke-linejoin: miter"/>
   </g>
   <g id="patch_6">
    <path d="M 180 205.714286 
L 231.428571 205.714286 
L 231.428571 257.142857 
L 180 257.142857 
z
" clip-path="url(#p3b3e34c6bf)" style="fill: #ffffff; stroke: #ffffff; stroke-linejoin: miter"/>
   </g>
   <g id="patch_7">
    <path d="M 180 257.142857 
L 231.428571 257.142857 
L 231.428571 308.571429 
L 180 308.571429 
z
" clip-path="url(#p3b3e34c6bf)" style="fill: #ffffff; stroke: #ffffff; stroke-linejoin: miter"/>
   </g>
   <g id="patch_8">
    <path d="M 180 308.571429 
L 231.428571 308.571429 
L 231.428571 360 
L 180 360 
z
" clip-path="url(#p3b3e34c6bf)" style="fill: #ff0000; stroke: #ff0000; stroke-linejoin: miter"/>
   </g>
   <g id="patch_9">
    <path d="M 180 360 
L 231.428571 360 
L 231.428571 411.428571 
L 180 411.428571 
z
" clip-path="url(#p3b3e34c6bf)" style="fill: #ffffff; stroke: #ffffff; stroke-linejoin: miter"/>
   </g>
   <g id="patch_10">
    <path d="M 180 411.428571 
L 231.428571 411.428571 
L 231.428571 462.857143 
L 180 462.857143 
z
" clip-path="url(#p3b3e34c6bf)" style="fill: #ffffff; stroke: #ffffff; stroke-linejoin: miter"/>
   </g>
   <g id="patch_11">
    <path d="M 231.428571 0 
L 282.857143 0 
L 282.857143 51.428571 
L 231.428571 51.428571 
z
" clip-path="url(#p3b3e34c6bf)" style="fill: #ffffff; stroke: #ffffff; stroke-linejoin: miter"/>
   </g>
   <g id="patch_12">
    <path d="M 231.428571 51.428571 
L 282.857143 51.428571 
L 282.857143 102.857143 
L 231.428571 102.857143 
z
" clip-path="url(#p3b3e34c6bf)" style="fill: #ff0000; stroke: #ff0000; stroke-linejoin: miter"/>
   </g>
   <g id="patch_13">
    <path d="M 231.428571 102.857143 
L 282.857143 102.857143 
L 282.857143 154.285714 
L 231.428571 154.285714 
z
" clip-path="url(#p3b3e34c6bf)" style="fill: #ffffff; stroke: #ffffff; stroke-linejoin: miter"/>
   </g>
   <g id="patch_14">
    <path d="M 231.428571 154.285714 
L 282.857143 154.285714 
L 282.857143 205.714286 
L 231.428571 205.714286 
z
" clip-path="url(#p3b3e34c6bf)" style="fill: #ffffff; stroke: #ffffff; stroke-linejoin: miter"/>
   </g>
   <g id="patch_15">
    <path d="M 231.428571 205.714286 
L 282.857143 205.714286 
L 282.857143 257.142857 
L 231.428571 257.142857 
z
" clip-path="url(#p3b3e34c6bf)" style="fill: #ff0000; stroke: #ff0000; stroke-linejoin: miter"/>
   </g>
   <g id="patch_16">
    <path d="M 231.428571 257.142857 
L 282.857143 257.142857 
L 282.857143 308.571429 
L 231.428571 308.571429 
z
" clip-path="url(#p3b3e34c6bf)" style="fill: #ffffff; stroke: #ffffff; stroke-linejoin: miter"/>
   </g>
   <g id="patch_17">
    <path d="M 231.428571 308.571429 
L 282.857143 308.571429 
L 282.857143 360 
L 231.428571 360 
z
" clip-path="url(#p3b3e34c6bf)" style="fill: #ffffff; stroke: #ffffff; stroke-linejoin: miter"/>
   </g>
   <g id="patch_18">
    <path d="M 231.428571 360 
L 282.857143 360 
L 282.857143 411.428571 
L 231.428571 411.428571 
z
" clip-path="url(#p3b3e34c6bf)" style="fill: #ff0000; stroke: #ff0000; stroke-linejoin: miter"/>
   </g>
   <g id="patch_19">
    <path d="M 231.428571 411.428571 
L 282.857143 411.428571 
L 282.857143 462.857143 
L 231.428571 462.857143 
z
" clip-path="url(#p3b3e34c6bf)" style="fill: #ffffff; stroke: #ffffff; stroke-linejoin: miter"/>
   </g>
   <g id="patch_20">
    <path d="M 282.857143 0 
L 334.285714 0 
L 334.285714 51.428571 
L 282.857143 51.428571 
z
" clip-path="url(#p3b3e34c6bf)" style="fill: #ffffff; stroke: #ffffff; stroke-linejoin: miter"/>
   </g>
   <g id="patch_21">
    <path d="M 282.857143 51.428571 
L 334.285714 51.428571 
L 334.285714 102.857143 
L 282.857143 102.857143 
z
" clip-path="url(#p3b3e34c6bf)" style="fill: #ffffff; stroke: #ffffff; stroke-linejoin: miter"/>
   </g>
   <g id="patch_22">
    <path d="M 282.857143 102.857143 
L 334.285714 102.857143 
L 334.285714 154.285714 
L 282.857143 154.285714 
z
" clip-path="url(#p3b3e34c6bf)" style="fill: #ff0000; stroke: #ff0000; stroke-linejoin: miter"/>
   </g>
   <g id="patch_23">
    <path d="M 282.857143 154.285714 
L 334.285714 154.285714 
L 334.285714 205.714286 
L 282.857143 205.714286 
z
" clip-path="url(#p3b3e34c6bf)" style="fill: #ffffff; stroke: #ffffff; stroke-linejoin: miter"/>
   </g>
   <g id="patch_24">
    <path d="M 282.857143 205.714286 
L 334.285714 205.714286 
L 334.285714 257.142857 
L 282.857143 257.142857 
z
" clip-path="url(#p3b3e34c6bf)" style="fill: #ffffff; stroke: #ffffff; stroke-linejoin: miter"/>
   </g>
   <g id="patch_25">
    <path d="M 282.857143 257.142857 
L 334.285714 257.142857 
L 334.285714 308.571429 
L 282.857143 308.571429 
z
" clip-path="url(#p3b3e34c6bf)" style="fill: #ff0000; stroke: #ff0000; stroke-linejoin: miter"/>
   </g>
   <g id="patch_26">
    <path d="M 282.857143 308.571429 
L 334.285714 308.571429 
L 334.285714 360 
L 282.857143 360 
z
" clip-path="url(#p3b3e34c6bf)" style="fill: #ffffff; stroke: #ffffff; stroke-linejoin: miter"/>
   </g>
   <g id="patch_27">
    <path d="M 282.857143 360 
L 334.285714 360 
L 334.285714 411.428571 
L 282.857143 411.428571 
z
" clip-path="url(#p3b3e34c6bf)" style="fill: #ffffff; stroke: #ffffff; stroke-linejoin: miter"/>
   </g>
   <g id="patch_28">
    <path d="M 282.857143 411.428571 
L 334.285714 411.428571 
L 334.285714 462.857143 
L 282.857143 462.857143 
z
" clip-path="url(#p3b3e34c6bf)" style="fill: #ff0000; stroke: #ff0000; stroke-linejoin: miter"/>
   </g>
   <g id="patch_29">
    <path d="M 334.285714 0 
L 385.714286 0 
L 385.714286 51.428571 
L 334.285714 51.428571 
z
" clip-path="url(#p3b3e34c6bf)" style="fill: #ff0000; stroke: #ff0000; stroke-linejoin: miter"/>
   </g>
   <g id="patch_30">
    <path d="M 334.285714 51.428571 
L 385.714286 51.428571 
L 385.714286 102.857143 
L 334.285714 102.857143 
z
" clip-path="url(#p3b3e34c6bf)" style="fill: #ffffff; stroke: #ffffff; stroke-linejoin: miter"/>
   </g>
   <g id="patch_31">
    <path d="M 334.285714 102.857143 
L 385.714286 102.857143 
L 385.714286 154.285714 
L 334.285714 154.285714 
z
" clip-path="url(#p3b3e34c6bf)" style="fill: #ffffff; stroke: #ffffff; stroke-linejoin: miter"/>
   </g>
   <g id="patch_32">
    <path d="M 334.285714 154.285714 
L 385.714286 154.285714 
L 385.714286 205.714286 
L 334.285714 205.714286 
z
" clip-path="url(#p3b3e34c6bf)" style="fill: #00ff00; stroke: #00ff00; stroke-linejoin: miter"/>
   </g>
   <g id="patch_33">
    <path d="M 334.285714 205.714286 
L 385.714286 205.714286 
L 385.714286 257.142857 
L 334.285714 257.142857 
z
" clip-path="url(#p3b3e34c6bf)" style="fill: #ffffff; stroke: #ffffff; stroke-linejoin: miter"/>
   </g>
   <g id="patch_34">
    <path d="M 334.285714 257.142857 
L 385.714286 257.142857 
L 385.714286 308.571429 
L 334.285714 308.571429 
z
" clip-path="url(#p3b3e34c6bf)" style="fill: #ffffff; stroke: #ffffff; stroke-linejoin: miter"/>
   </g>
   <g id="patch_35">
    <path d="M 334.285714 308.571429 
L 385.714286 308.571429 
L 385.714286 360 
L 334.285714 360 
z
" clip-path="url(#p3b3e34c6bf)" style="fill: #00ff00; stroke: #00ff00; stroke-linejoin: miter"/>
   </g>
   <g id="patch_36">
    <path d="M 334.285714 360 
L 385.714286 360 
L 385.714286 411.428571 
L 334.285714 411.428571 
z
" clip-path="url(#p3b3e34c6bf)" style="fill: #ffffff; stroke: #ffffff; stroke-linejoin: miter"/>
   </g>
   <g id="patch_37">
    <path d="M 334.285714 411.428571 
L 385.714286 411.428571 
L 385.714286 462.857143 
L 334.285714 462.857143 
z
" clip-path="url(#p3b3e34c6bf)" style="fill: #ffffff; stroke: #ffffff; stroke-linejoin: miter"/>
   </g>
   <g id="patch_38">
    <path d="M 385.714286 0 
L 437.142857 0 
L 437.142857 51.428571 
L 385.714286 51.428571 
z
" clip-path="url(#p3b3e34c6bf)" style="fill: #ffffff; stroke: #ffffff; stroke-linejoin: miter"/>
   </g>
   <g id="patch_39">
    <path d="M 385.714286 51.428571 
L 437.142857 51.428571 
L 437.142857 102.857143 
L 385.714286 102.857143 
z
" clip-path="url(#p3b3e34c6bf)" style="fill: #ff0000; stroke: #ff0000; stroke-linejoin: miter"/>
   </g>
   <g id="patch_40">
    <path d="M 385.714286 102.857143 
L 437.142857 102.857143 
L 437.142857 154.285714 
L 385.714286 154.285714 
z
" clip-path="url(#p3b3e34c6bf)" style="fill: #ffffff; stroke: #ffffff; stroke-linejoin: miter"/>
   </g>
   <g id="patch_41">
    <path d="M 385.714286 154.285714 
L 437.142857 154.285714 
L 437.142857 205.714286 
L 385.714286 205.714286 
z
" clip-path="url(#p3b3e34c6bf)" style="fill: #ffffff; stroke: #ffffff; stroke-linejoin: miter"/>
   </g>
   <g id="patch_42">
    <path d="M 385.714286 205.714286 
L 437.142857 205.714286 
L 437.142857 257.142857 
L 385.714286 257.142857 
z
" clip-path="url(#p3b3e34c6bf)" style="fill: #00ff00; stroke: #00ff00; stroke-linejoin: miter"/>
   </g>
   <g id="patch_43">
    <path d="M 385.714286 257.142857 
L 437.142857 257.142857 
L 437.142857 308.571429 
L 385.714286 308.571429 
z
" clip-path="url(#p3b3e34c6bf)" style="fill: #ffffff; stroke: #ffffff; stroke-linejoin: miter"/>
   </g>
   <g id="patch_44">
    <path d="M 385.714286 308.571429 
L 437.142857 308.571429 
L 437.142857 360 
L 385.714286 360 
z
" clip-path="url(#p3b3e34c6bf)" style="fill: #ffffff; stroke: #ffffff; stroke-linejoin: miter"/>
   </g>
   <g id="patch_45">
    <path d="M 385.714286 360 
L 437.142857 360 
L 437.142857 411.428571 
L 385.714286 411.428571 
z
" clip-path="url(#p3b3e34c6bf)" style="fill: #00ff00; stroke: #00ff00; stroke-linejoin: miter"/>
   </g>
   <g id="patch_46">
    <path d="M 385.714286 411.428571 
L 437.142857 411.428571 
L 437.142857 462.857143 
L 385.714286 462.857143 
z
" clip-path="url(#p3b3e34c6bf)" style="fill: #ffffff; stroke: #ffffff; stroke-linejoin: miter"/>
   </g>
   <g id="patch_47">
    <path d="M 437.142857 0 
L 488.571429 0 
L 488.571429 51.428571 
L 437.142857 51.428571 
z
" clip-path="url(#p3b3e34c6bf)" style="fill: #ffffff; stroke: #ffffff; stroke-linejoin: miter"/>
   </g>
   <g id="patch_48">
    <path d="M 437.142857 51.428571 
L 488.571429 51.428571 
L 488.571429 102.857143 
L 437.142857 102.857143 
z
" clip-path="url(#p3b3e34c6bf)" style="fill: #ffffff; stroke: #ffffff; stroke-linejoin: miter"/>
   </g>
   <g id="patch_49">
    <path d="M 437.142857 102.857143 
L 488.571429 102.857143 
L 488.571429 154.285714 
L 437.142857 154.285714 
z
" clip-path="url(#p3b3e34c6bf)" style="fill: #ff0000; stroke: #ff0000; stroke-linejoin: miter"/>
   </g>
   <g id="patch_50">
    <path d="M 437.142857 154.285714 
L 488.571429 154.285714 
L 488.571429 205.714286 
L 437.142857 205.714286 
z
" clip-path="url(#p3b3e34c6bf)" style="fill: #ffffff; stroke: #ffffff; stroke-linejoin: miter"/>
   </g>
   <g id="patch_51">
    <path d="M 437.142857 205.714286 
L 488.571429 205.714286 
L 488.571429 257.142857 
L 437.142857 257.142857 
z
" clip-path="url(#p3b3e34c6bf)" style="fill: #ffffff; stroke: #ffffff; stroke-linejoin: miter"/>
   </g>
   <g id="patch_52">
    <path d="M 437.142857 257.142857 
L 488.571429 257.142857 
L 488.571429 308.571429 
L 437.142857 308.571429 
z
" clip-path="url(#p3b3e34c6bf)" style="fill: #00ff00; stroke: #00ff00; stroke-linejoin: miter"/>
   </g>
   <g id="patch_53">
    <path d="M 437.142857 308.571429 
L 488.571429 308.571429 
L 488.571429 360 
L 437.142857 360 
z
" clip-path="url(#p3b3e34c6bf)" style="fill: #ffffff; stroke: #ffffff; stroke-linejoin: miter"/>
   </g>
   <g id="patch_54">
    <path d="M 437.142857 360 
L 488.571429 360 
L 488.571429 411.428571 
L 437.142857 411.428571 
z
" clip-path="url(#p3b3e34c6bf)" style="fill: #ffffff; stroke: #ffffff; stroke-linejoin: miter"/>
   </g>
   <g id="patch_55">
    <path d="M 437.142857 411.428571 
L 488.571429 411.428571 
L 488.571429 462.857143 
L 437.142857 462.857143 
z
" clip-path="url(#p3b3e34c6bf)" style="fill: #00ff00; stroke: #00ff00; stroke-linejoin: miter"/>
   </g>
   <g id="patch_56">
    <path d="M 488.571429 0 
L 540 0 
L 540 51.428571 
L 488.571429 51.428571 
z
" clip-path="url(#p3b3e34c6bf)" style="fill: #ff0000; stroke: #ff0000; stroke-linejoin: miter"/>
   </g>
   <g id="patch_57">
    <path d="M 488.571429 51.428571 
L 540 51.428571 
L 540 102.857143 
L 488.571429 102.857143 
z
" clip-path="url(#p3b3e34c6bf)" style="fill: #ffffff; stroke: #ffffff; stroke-linejoin: miter"/>
   </g>
   <g id="patch_58">
    <path d="M 488.571429 102.857143 
L 540 102.857143 
L 540 154.285714 
L 488.571429 154.285714 
z
" clip-path="url(#p3b3e34c6bf)" style="fill: #ffffff; stroke: #ffffff; stroke-linejoin: miter"/>
   </g>
   <g id="patch_59">
    <path d="M 488.571429 154.285714 
L 540 154.285714 
L 540 205.714286 
L 488.571429 205.714286 
z
" clip-path="url(#p3b3e34c6bf)" style="fill: #00ff00; stroke: #00ff00; stroke-linejoin: miter"/>
   </g>
   <g id="patch_60">
    <path d="M 488.571429 205.714286 
L 540 205.714286 
L 540 257.142857 
L 488.571429 257.142857 
z
" clip-path="url(#p3b3e34c6bf)" style="fill: #ffffff; stroke: #ffffff; stroke-linejoin: miter"/>
   </g>
   <g id="patch_61">
    <path d="M 488.571429 257.142857 
L 540 257.142857 
L 540 308.571429 
L 488.571429 308.571429 
z
" clip-path="url(#p3b3e34c6bf)" style="fill: #ffffff; stroke: #ffffff; stroke-linejoin: miter"/>
   </g>
   <g id="patch_62">
    <path d="M 488.571429 308.571429 
L 540 308.571429 
L 540 360 
L 488.571429 360 
z
" clip-path="url(#p3b3e34c6bf)" style="fill: #0000ff; stroke: #0000ff; stroke-linejoin: miter"/>
   </g>
   <g id="patch_63">
    <path d="M 488.571429 360 
L 540 360 
L 540 411.428571 
L 488.571429 411.428571 
z
" clip-path="url(#p3b3e34c6bf)" style="fill: #ffffff; stroke: #ffffff; stroke-linejoin: miter"/>
   </g>
   <g id="patch_64">
    <path d="M 488.571429 411.428571 
L 540 411.428571 
L 540 462.857143 
L 488.571429 462.857143 
z
" clip-path="url(#p3b3e34c6bf)" style="fill: #ffffff; stroke: #ffffff; stroke-linejoin: miter"/>
   </g>
   <g id="patch_65">
    <path d="M 540 0 
L 591.428571 0 
L 591.428571 51.428571 
L 540 51.428571 
z
" clip-path="url(#p3b3e34c6bf)" style="fill: #ffffff; stroke: #ffffff; stroke-linejoin: miter"/>
   </g>
   <g id="patch_66">
    <path d="M 540 51.428571 
L 591.428571 51.428571 
L 591.428571 102.857143 
L 540 102.857143 
z
" clip-path="url(#p3b3e34c6bf)" style="fill: #ff0000; stroke: #ff0000; stroke-linejoin: miter"/>
   </g>
   <g id="patch_67">
    <path d="M 540 102.857143 
L 591.428571 102.857143 
L 591.428571 154.285714 
L 540 154.285714 
z
" clip-path="url(#p3b3e34c6bf)" style="fill: #ffffff; stroke: #ffffff; stroke-linejoin: miter"/>
   </g>
   <g id="patch_68">
    <path d="M 540 154.285714 
L 591.428571 154.285714 
L 591.428571 205.714286 
L 540 205.714286 
z
" clip-path="url(#p3b3e34c6bf)" style="fill: #ffffff; stroke: #ffffff; stroke-linejoin: miter"/>
   </g>
   <g id="patch_69">
    <path d="M 540 205.714286 
L 591.428571 205.714286 
L 591.428571 257.142857 
L 540 257.142857 
z
" clip-path="url(#p3b3e34c6bf)" style="fill: #00ff00; stroke: #00ff00; stroke-linejoin: miter"/>
   </g>
   <g id="patch_70">
    <path d="M 540 257.142857 
L 591.428571 257.142857 
L 591.428571 308.571429 
L 540 308.571429 
z
" clip-path="url(#p3b3e34c6bf)" style="fill: #ffffff; stroke: #ffffff; stroke-linejoin: miter"/>
   </g>
   <g id="patch_71">
    <path d="M 540 308.571429 
L 591.428571 308.571429 
L 591.428571 360 
L 540 360 
z
" clip-path="url(#p3b3e34c6bf)" style="fill: #ffffff; stroke: #ffffff; stroke-linejoin: miter"/>
   </g>
   <g id="patch_72">
    <path d="M 540 360 
L 591.428571 360 
L 591.428571 411.428571 
L 540 411.428571 
z
" clip-path="url(#p3b3e34c6bf)" style="fill: #0000ff; stroke: #0000ff; stroke-linejoin: miter"/>
   </g>
   <g id="patch_73">
    <path d="M 540 411.428571 
L 591.428571 411.428571 
L 591.428571 462.857143 
L 540 462.857143 
z
" clip-path="url(#p3b3e34c6bf)" style="fill: #ffffff; stroke: #ffffff; stroke-linejoin: miter"/>
   </g>
   <g id="patch_74">
    <path d="M 591.428571 0 
L 642.857143 0 
L 642.857143 51.428571 
L 591.428571 51.428571 
z
" clip-path="url(#p3b3e34c6bf)" style="fill: #ffffff; stroke: #ffffff; stroke-linejoin: miter"/>
   </g>
   <g id="patch_75">
    <path d="M 591.428571 51.428571 
L 642.857143 51.428571 
L 642.857143 102.857143 
L 591.428571 102.857143 
z
" clip-path="url(#p3b3e34c6bf)" style="fill: #ffffff; stroke: #ffffff; stroke-linejoin: miter"/>
   </g>
   <g id="patch_76">
    <path d="M 591.428571 102.857143 
L 642.857143 102.857143 
L 642.857143 154.285714 
L 591.428571 154.285714 
z
" clip-path="url(#p3b3e34c6bf)" style="fill: #ff0000; stroke: #ff0000; stroke-linejoin: miter"/>
   </g>
   <g id="patch_77">
    <path d="M 591.428571 154.285714 
L 642.857143 154.285714 
L 642.857143 205.714286 
L 591.428571 205.714286 
z
" clip-path="url(#p3b3e34c6bf)" style="fill: #ffffff; stroke: #ffffff; stroke-linejoin: miter"/>
   </g>
   <g id="patch_78">
    <path d="M 591.428571 205.714286 
L 642.857143 205.714286 
L 642.857143 257.142857 
L 591.428571 257.142857 
z
" clip-path="url(#p3b3e34c6bf)" style="fill: #ffffff; stroke: #ffffff; stroke-linejoin: miter"/>
   </g>
   <g id="patch_79">
    <path d="M 591.428571 257.142857 
L 642.857143 257.142857 
L 642.857143 308.571429 
L 591.428571 308.571429 
z
" clip-path="url(#p3b3e34c6bf)" style="fill: #00ff00; stroke: #00ff00; stroke-linejoin: miter"/>
   </g>
   <g id="patch_80">
    <path d="M 591.428571 308.571429 
L 642.857143 308.571429 
L 642.857143 360 
L 591.428571 360 
z
" clip-path="url(#p3b3e34c6bf)" style="fill: #ffffff; stroke: #ffffff; stroke-linejoin: miter"/>
   </g>
   <g id="patch_81">
    <path d="M 591.428571 360 
L 642.857143 360 
L 642.857143 411.428571 
L 591.428571 411.428571 
z
" clip-path="url(#p3b3e34c6bf)" style="fill: #ffffff; stroke: #ffffff; stroke-linejoin: miter"/>
   </g>
   <g id="patch_82">
    <path d="M 591.428571 411.428571 
L 642.857143 411.428571 
L 642.857143 462.857143 
L 591.428571 462.857143 
z
" clip-path="url(#p3b3e34c6bf)" style="fill: #0000ff; stroke: #0000ff; stroke-linejoin: miter"/>
   </g>
   <g id="matplotlib.axis_1"/>
   <g id="matplotlib.axis_2"/>
   <g id="line2d_1">
    <path d="M 180 0 
L 180 154.285714 
L 334.285714 154.285714 
L 334.285714 0 
L 180 0 
" clip-path="url(#p3b3e34c6bf)" style="fill: none; stroke: #ff00ff; stroke-width: 8; stroke-linecap: square"/>
   </g>
  </g>
 </g>
 <defs>
  <clipPath id="p3b3e34c6bf">
   <rect x="180" y="0" width="360" height="360"/>
  </clipPath>
 </defs>
</svg>
